<svg width="182" height="19" viewBox="0 0 182 19" fill="none" xmlns="http://www.w3.org/2000/svg">
<path d="M9.21747 12.9462V12.8205H9.1109L9.09352 12.9251L9.21747 12.9462ZM0.443737 8.96122V8.83556H0.339995L0.320391 8.93704L0.443737 8.96122ZM2.29922 8.96122L2.42317 8.98128L2.4476 8.83556H2.29922V8.96122ZM2.14903 9.89712L2.02477 9.87902L2.02447 9.88104L2.14903 9.89712ZM2.06065 10.6129L1.9357 10.5998L1.9355 10.6029L2.06065 10.6129ZM3.32412 14.0419L3.36201 13.9213H3.36071L3.32412 14.0419ZM6.08084 13.9887L6.04063 13.869L6.03852 13.8701L6.08084 13.9887ZM7.68891 0.125662V0H7.56325V0.125662H7.68891ZM9.57093 0.125662H9.69659V0H9.57093V0.125662ZM9.76535 10.8964L9.65819 10.9618L9.6614 10.9668L9.76535 10.8964ZM10.2159 11.2322L10.171 11.3488L10.1752 11.3508L10.2159 11.2322ZM11.0818 11.3377H11.2075V11.212H11.0818V11.3377ZM11.0818 13.7414V13.867H11.2075V13.7414H11.0818ZM9.86247 13.5554L9.91876 13.4428H9.91756L9.86247 13.5554ZM9.28824 12.9462L9.40104 12.8909L9.36655 12.8205H9.28824V12.9462ZM9.09352 12.9251C8.89105 14.1516 8.40549 15.0442 7.6482 15.6203L7.8004 15.8204C8.62173 15.1951 9.13161 14.238 9.34152 12.9663L9.09352 12.9251ZM7.6482 15.6203C6.88769 16.1993 5.83977 16.4959 4.49046 16.4959V16.7472C5.87435 16.7472 6.98229 16.4426 7.8004 15.8204L7.6482 15.6203ZM4.49046 16.4959C3.71135 16.4959 3.0556 16.3943 2.51978 16.1943L2.43211 16.4295C3.00362 16.6426 3.69094 16.7472 4.49046 16.7472V16.4959ZM2.51978 16.1943C1.98395 15.9952 1.55188 15.7007 1.21963 15.3116L1.02862 15.4755C1.39143 15.8998 1.8605 16.2174 2.43211 16.4295L2.51978 16.1943ZM1.21963 15.3116C0.886173 14.9216 0.640677 14.436 0.48566 13.85L0.24278 13.9143C0.405839 14.5306 0.666915 15.0523 1.02862 15.4755L1.21963 15.3116ZM0.48566 13.85C0.33004 13.2679 0.251324 12.5873 0.251324 11.8062H0C0 12.6034 0.0803241 13.3061 0.24278 13.9143L0.48566 13.85ZM0.251324 11.8062C0.251324 11.4101 0.27465 10.9939 0.321296 10.5556L0.0713752 10.5295C0.0238247 10.9748 0 11.401 0 11.8062H0.251324ZM0.321296 10.5556C0.367942 10.1183 0.449771 9.59551 0.56719 8.98429L0.320391 8.93704C0.202067 9.55229 0.119026 10.0831 0.0713752 10.5295L0.321296 10.5556ZM0.443737 9.08688H2.29922V8.83556H0.443737V9.08688ZM2.17526 8.94005C2.11625 9.29392 2.06609 9.60658 2.02477 9.87902L2.27328 9.9162C2.31439 9.64578 2.36436 9.33515 2.42317 8.98128L2.17526 8.94005ZM2.02447 9.88104C1.98898 10.1464 1.95932 10.3867 1.9357 10.5998L2.18552 10.627C2.20904 10.4159 2.23829 10.1786 2.27358 9.91424L2.02447 9.88104ZM1.9355 10.6029C1.9176 10.81 1.90574 10.9979 1.89971 11.1658L2.15094 11.1748C2.15667 11.012 2.16833 10.8291 2.18582 10.624L1.9355 10.6029ZM1.89971 11.1648C1.89378 11.3256 1.89086 11.4805 1.89086 11.6293H2.14219C2.14219 11.4835 2.14511 11.3327 2.15094 11.1748L1.89971 11.1648ZM1.89086 11.6293C1.89086 12.0726 1.92966 12.4626 2.00908 12.7984L2.25367 12.7401C2.17988 12.4285 2.14219 12.0585 2.14219 11.6293H1.89086ZM2.00908 12.7984C2.08981 13.1392 2.23407 13.4278 2.44518 13.658L2.63046 13.4881C2.45272 13.294 2.32605 13.0467 2.25367 12.7401L2.00908 12.7984ZM2.44518 13.658C2.6575 13.8902 2.9405 14.056 3.28762 14.1616L3.36071 13.9213C3.04806 13.8268 2.80679 13.6811 2.63046 13.4881L2.44518 13.658ZM3.28631 14.1616C3.63857 14.2722 4.0796 14.3265 4.60537 14.3265V14.0751C4.09437 14.0751 3.6812 14.0228 3.36201 13.9213L3.28631 14.1616ZM4.60537 14.3265C5.20342 14.3265 5.71069 14.2541 6.12327 14.1063L6.03852 13.8701C5.66173 14.0048 5.18532 14.0751 4.60537 14.0751V14.3265ZM6.12115 14.1073C6.54157 13.9655 6.88086 13.7373 7.13329 13.4217L6.93695 13.2648C6.7182 13.5383 6.42123 13.7404 6.04063 13.869L6.12115 14.1073ZM7.13329 13.4217C7.38361 13.109 7.55823 12.713 7.66157 12.2395L7.41598 12.1862C7.31896 12.6305 7.15791 12.9884 6.93695 13.2648L7.13329 13.4217ZM7.66157 12.2395C7.76411 11.763 7.81458 11.197 7.81458 10.5425H7.56325C7.56325 11.1849 7.51369 11.7318 7.41598 12.1862L7.66157 12.2395ZM7.81458 10.5425V0.125662H7.56325V10.5425H7.81458ZM7.68891 0.251324H9.57093V0H7.68891V0.251324ZM9.44527 0.125662V9.51811H9.69659V0.125662H9.44527ZM9.44527 9.51811C9.44527 9.83176 9.45422 10.1062 9.47211 10.3404L9.72273 10.3214C9.70534 10.0952 9.69659 9.82774 9.69659 9.51811H9.44527ZM9.47211 10.3404C9.49091 10.5797 9.55123 10.7878 9.65819 10.9618L9.87232 10.83C9.79079 10.6973 9.73922 10.5305 9.72273 10.3214L9.47211 10.3404ZM9.6614 10.9668C9.77872 11.1397 9.95164 11.2654 10.171 11.3488L10.2609 11.1145C10.0795 11.0452 9.95224 10.9476 9.8692 10.825L9.6614 10.9668ZM10.1752 11.3508C10.4005 11.4282 10.7052 11.4634 11.0818 11.4634V11.212C10.7163 11.212 10.4437 11.1768 10.2566 11.1125L10.1752 11.3508ZM10.9561 11.3377V13.7414H11.2075V11.3377H10.9561ZM11.0818 13.6157H10.7107V13.867H11.0818V13.6157ZM10.7107 13.6157C10.4092 13.6157 10.1464 13.5574 9.91876 13.4428L9.80627 13.668C10.0736 13.8017 10.3761 13.867 10.7107 13.867V13.6157ZM9.91756 13.4428C9.70595 13.3392 9.53263 13.1593 9.40104 12.8909L9.17535 13.0015C9.32654 13.3101 9.53615 13.5363 9.80738 13.669L9.91756 13.4428ZM9.28824 12.8205H9.21747V13.0719H9.28824V12.8205ZM20.6861 12.142L20.736 12.2576L20.8118 12.2244V12.142H20.6861ZM10.6224 13.4227L10.736 13.3694L10.7354 13.3684L10.6224 13.4227ZM10.6224 11.6644L10.7349 11.7208L10.7366 11.7167L10.6224 11.6644ZM13.3879 11.3377V11.4634H13.4785L13.5072 11.3779L13.3879 11.3377ZM13.4056 11.2844L13.5248 11.3246L13.5501 11.2493L13.4922 11.1939L13.4056 11.2844ZM12.4513 9.95038L12.3349 9.99763L12.3354 9.99867L12.4513 9.95038ZM12.2658 9.31403L12.1414 9.33213L12.142 9.33618L12.2658 9.31403ZM17.7527 4.93193L17.7411 5.05759H17.744L17.7527 4.93193ZM18.6451 5.04655H18.7708V4.94101L18.6665 4.92291L18.6451 5.04655ZM18.6451 7.46732L18.6255 7.59201L18.7708 7.61508V7.46732H18.6451ZM17.6997 7.35271L17.687 7.47837H17.6897L17.6997 7.35271ZM14.9518 7.52967L14.9065 7.41204L14.9056 7.41302L14.9518 7.52967ZM14.3333 7.98004L14.2349 7.9026L14.2335 7.90364L14.3333 7.98004ZM14.1654 9.19039L14.0437 9.22255L14.0453 9.22758L14.1654 9.19039ZM14.4394 9.72121L14.3352 9.79158L14.3377 9.79459L14.4394 9.72121ZM15.0401 10.3746L14.9545 10.4671L14.9557 10.4681L15.0401 10.3746ZM16.0651 11.1085L16.0007 11.2161L16.042 11.2402L16.0894 11.2312L16.0651 11.1085ZM20.6861 9.56137H20.8118V9.36631L20.6341 9.44773L20.6861 9.56137ZM16.9045 3.48332V3.60898H17.0301V3.48332H16.9045ZM14.8281 3.48332H14.7025V3.60898H14.8281V3.48332ZM14.8281 1.61851V1.49285H14.7025V1.61851H14.8281ZM16.9045 1.61851H17.0301V1.49285H16.9045V1.61851ZM20.6363 12.0263C19.9032 12.343 19.215 12.6034 18.5717 12.8085L18.6479 13.0478C19.3004 12.8407 19.9965 12.5763 20.736 12.2576L20.6363 12.0263ZM18.5717 12.8085C17.9276 13.0135 17.3046 13.1774 16.7027 13.3001L16.752 13.5464C17.3635 13.4217 17.996 13.2559 18.6479 13.0478L18.5717 12.8085ZM16.7027 13.3001C16.1063 13.4167 15.52 13.4981 14.9417 13.5454L14.9619 13.7957C15.55 13.7484 16.1467 13.665 16.752 13.5464L16.7027 13.3001ZM14.9417 13.5454C14.3621 13.5916 13.7705 13.6157 13.1671 13.6157V13.867C13.777 13.867 14.3753 13.8429 14.9619 13.7957L14.9417 13.5454ZM13.1671 13.6157H11.0818V13.867H13.1671V13.6157ZM11.0818 13.6157C11.0015 13.6157 10.9372 13.5956 10.8838 13.5584C10.8296 13.5202 10.7791 13.4609 10.736 13.3694L10.5088 13.477C10.5659 13.5976 10.642 13.6961 10.7408 13.7645C10.8406 13.8338 10.956 13.867 11.0818 13.867V13.6157ZM10.7354 13.3684C10.641 13.1744 10.589 12.9009 10.589 12.539H10.3377C10.3377 12.92 10.3918 13.2367 10.5094 13.478L10.7354 13.3684ZM10.589 12.539C10.589 12.1781 10.6412 11.9087 10.7349 11.7208L10.51 11.6082C10.3917 11.8454 10.3377 12.159 10.3377 12.539H10.589ZM10.7366 11.7167C10.7799 11.6232 10.8309 11.5609 10.8852 11.5217C10.9384 11.4845 11.0022 11.4634 11.0818 11.4634V11.212C10.9553 11.212 10.8394 11.2463 10.7395 11.3176C10.6407 11.387 10.565 11.4885 10.5082 11.6122L10.7366 11.7167ZM11.0818 11.4634H13.3879V11.212H11.0818V11.4634ZM13.5072 11.3779L13.5248 11.3246L13.2864 11.2452L13.2687 11.2985L13.5072 11.3779ZM13.4922 11.1939C13.2557 10.9687 13.0645 10.7486 12.9174 10.5335L12.7099 10.6752C12.869 10.9084 13.0725 11.1417 13.319 11.3759L13.4922 11.1939ZM12.9174 10.5335C12.7682 10.3153 12.6519 10.1052 12.5673 9.90215L12.3354 9.99867C12.4276 10.2198 12.5527 10.446 12.7099 10.6752L12.9174 10.5335ZM12.5678 9.90313C12.4825 9.69303 12.4233 9.48896 12.3897 9.29292L12.142 9.33618C12.179 9.55131 12.2435 9.77244 12.3349 9.99763L12.5678 9.90313ZM12.3902 9.29697C12.3615 9.09591 12.3473 8.89584 12.3473 8.69578H12.0959C12.0959 8.9079 12.1111 9.12001 12.1414 9.33213L12.3902 9.29697ZM12.3473 8.69578C12.3473 8.1298 12.4615 7.62615 12.6872 7.1798L12.4632 7.06622C12.2176 7.55178 12.0959 8.09562 12.0959 8.69578H12.3473ZM12.6869 7.18078C12.9197 6.72639 13.2432 6.3404 13.6588 6.02172L13.5059 5.82163C13.0614 6.16243 12.7134 6.57765 12.4632 7.06622L12.6869 7.18078ZM13.6588 6.02172C14.0752 5.70204 14.5706 5.45471 15.147 5.2818L15.0747 5.04152C14.4731 5.22147 13.9494 5.48184 13.5059 5.82163L13.6588 6.02172ZM15.147 5.2818C15.7228 5.10889 16.3555 5.02244 17.0459 5.02244V4.77111C16.3344 4.77111 15.677 4.86056 15.0747 5.04152L15.147 5.2818ZM17.0459 5.02244C17.2593 5.02244 17.4911 5.03447 17.7411 5.05759L17.7644 4.80731C17.5079 4.78319 17.2683 4.77111 17.0459 4.77111V5.02244ZM17.744 5.05759C17.9918 5.07468 18.2849 5.11188 18.6237 5.17019L18.6665 4.92291C18.322 4.8636 18.0202 4.82437 17.7615 4.80627L17.744 5.05759ZM18.5195 5.04655V7.46732H18.7708V5.04655H18.5195ZM18.6647 7.34369C18.3263 7.29041 18.0079 7.25121 17.7097 7.22809L17.6897 7.47837C17.9805 7.50149 18.2925 7.53973 18.6255 7.59201L18.6647 7.34369ZM17.7124 7.22809C17.4197 7.19793 17.1298 7.18281 16.8426 7.18281V7.43413C17.121 7.43413 17.4025 7.44922 17.687 7.47837L17.7124 7.22809ZM16.8426 7.18281C16.4923 7.18281 16.1506 7.19488 15.8176 7.21901L15.8355 7.46935C16.1623 7.44623 16.4979 7.43413 16.8426 7.43413V7.18281ZM15.8176 7.21901C15.4833 7.24313 15.1791 7.30749 14.9065 7.41204L14.9971 7.64729C15.2429 7.55179 15.522 7.49247 15.8355 7.46935L15.8176 7.21901ZM14.9056 7.41302C14.6332 7.52059 14.4086 7.68345 14.2349 7.9026L14.4317 8.05845C14.5762 7.87649 14.7639 7.73873 14.998 7.64625L14.9056 7.41302ZM14.2335 7.90364C14.0581 8.13386 13.9779 8.44045 13.9779 8.8104H14.2293C14.2293 8.47463 14.3024 8.22733 14.4332 8.05643L14.2335 7.90364ZM13.9779 8.8104C13.9779 8.92098 14.0015 9.05969 14.0437 9.22255L14.2871 9.15922C14.2469 9.00441 14.2293 8.88982 14.2293 8.8104H13.9779ZM14.0453 9.22758C14.0975 9.39747 14.196 9.5855 14.3352 9.79158L14.5434 9.65083C14.4117 9.4558 14.3277 9.29091 14.2856 9.15419L14.0453 9.22758ZM14.3377 9.79459C14.4855 9.99766 14.6919 10.2218 14.9545 10.4671L15.1259 10.2832C14.8701 10.0449 14.676 9.83276 14.541 9.64678L14.3377 9.79459ZM14.9557 10.4681C15.223 10.7104 15.572 10.9597 16.0007 11.2161L16.1296 10.9999C15.71 10.7496 15.3757 10.5103 15.1247 10.2821L14.9557 10.4681ZM16.0894 11.2312C16.4513 11.1598 16.8132 11.0773 17.1749 10.9818L17.1112 10.7396C16.7544 10.8331 16.3976 10.9145 16.0408 10.9849L16.0894 11.2312ZM17.1749 10.9818C17.537 10.8873 17.9048 10.7778 18.2784 10.6531L18.1995 10.4149C17.831 10.5375 17.4677 10.6461 17.1112 10.7396L17.1749 10.9818ZM18.2784 10.6531C18.6581 10.5285 19.0487 10.3867 19.4514 10.2269L19.3586 9.99266C18.9602 10.1515 18.5739 10.2912 18.1995 10.4149L18.2784 10.6531ZM19.4514 10.2269C19.854 10.067 20.283 9.88308 20.7382 9.67598L20.6341 9.44773C20.1821 9.65281 19.757 9.83482 19.3586 9.99266L19.4514 10.2269ZM20.5604 9.56137V12.142H20.8118V9.56137H20.5604ZM16.9045 3.35766H14.8281V3.60898H16.9045V3.35766ZM14.9538 3.48332V1.61851H14.7025V3.48332H14.9538ZM14.8281 1.74418H16.9045V1.49285H14.8281V1.74418ZM16.7788 1.61851V3.48332H17.0301V1.61851H16.7788ZM21.6669 15.0573L21.7117 14.9407L21.5412 14.8754V15.0573H21.6669ZM24.0698 15.6766L24.0829 15.5509H24.0799L24.0698 15.6766ZM26.4825 15.199L26.4041 15.1006L26.4031 15.1015L26.4825 15.199ZM26.9329 14.6773L26.8243 14.615L26.8223 14.618L26.9329 14.6773ZM27.1802 14.0852L27.0596 14.051L27.0586 14.054L27.1802 14.0852ZM27.2154 13.9093L27.0928 13.8781L27.0917 13.8901L27.2154 13.9093ZM27.2596 13.6972L27.3843 13.7172L27.4084 13.5715H27.2596V13.6972ZM29.1687 11.3377L29.043 11.3508L29.0551 11.4634H29.1687V11.3377ZM30.7319 11.3377H30.8576V11.212H30.7319V11.3377ZM30.7319 13.7414V13.867H30.8576V13.7414H30.7319ZM29.1416 13.7414V13.6157H29.03L29.0169 13.7263L29.1416 13.7414ZM27.8256 16.895L27.7341 16.8095L27.7321 16.8106L27.8256 16.895ZM26.5177 17.8138L26.4685 17.6982L26.4675 17.6992L26.5177 17.8138ZM23.2746 17.9908L23.3038 17.8681H23.3018L23.2746 17.9908ZM22.5066 17.7787L22.5458 17.66L22.5438 17.659L22.5066 17.7787ZM21.6669 17.47H21.5412V17.5535L21.6182 17.5856L21.6669 17.47ZM26.2 9.15523L26.1226 9.25476L26.1257 9.25672L26.2 9.15523ZM25.3687 9.16425L25.4441 9.2658L25.4461 9.2628L25.3687 9.16425ZM25.0158 9.53523L25.1184 9.60757L25.1194 9.60561L25.0158 9.53523ZM24.7766 9.99462L24.8952 10.0389V10.0368L24.7766 9.99462ZM27.2777 11.391V11.5167H27.4346L27.4004 11.3638L27.2777 11.391ZM21.622 15.1749C21.9485 15.2996 22.2523 15.4041 22.5327 15.4876L22.6041 15.2463C22.3307 15.1649 22.0333 15.0634 21.7117 14.9407L21.622 15.1749ZM22.5327 15.4876C22.8182 15.571 23.0866 15.6394 23.337 15.6927L23.3892 15.4474C23.146 15.3951 22.8846 15.3277 22.6041 15.2463L22.5327 15.4876ZM23.337 15.6927C23.5893 15.747 23.8306 15.7831 24.0608 15.8012L24.0799 15.5509C23.8627 15.5338 23.6325 15.4996 23.3892 15.4474L23.337 15.6927ZM24.0568 15.8012C24.285 15.8253 24.5101 15.8374 24.7333 15.8374V15.5861C24.5192 15.5861 24.3031 15.5741 24.0829 15.5509L24.0568 15.8012ZM24.7333 15.8374C25.1485 15.8374 25.5074 15.7892 25.806 15.6897L25.7276 15.4504C25.4622 15.5398 25.1304 15.5861 24.7333 15.5861V15.8374ZM25.806 15.6897C26.1056 15.5922 26.3589 15.4615 26.562 15.2966L26.4031 15.1015C26.2292 15.2433 26.005 15.3599 25.7276 15.4504L25.806 15.6897ZM26.5599 15.2976C26.766 15.1357 26.9279 14.9487 27.0435 14.7376L26.8223 14.618C26.7258 14.7949 26.5871 14.9568 26.4041 15.1006L26.5599 15.2976ZM27.0415 14.7406C27.1591 14.5376 27.2456 14.3295 27.3019 14.1174L27.0586 14.054C27.0093 14.242 26.9309 14.429 26.8243 14.615L27.0415 14.7406ZM27.3008 14.1204C27.3149 14.0711 27.328 14.0068 27.3401 13.9284L27.0917 13.8901C27.0797 13.9645 27.0686 14.0179 27.0596 14.051L27.3008 14.1204ZM27.338 13.9394C27.3561 13.866 27.3712 13.7916 27.3843 13.7172L27.136 13.6761C27.1249 13.7434 27.1098 13.8108 27.0928 13.8781L27.338 13.9394ZM27.2596 13.5715H26.4644V13.8228H27.2596V13.5715ZM26.4644 13.5715C25.3094 13.5715 24.4488 13.3071 23.8607 12.7984L23.6959 12.9874C24.3463 13.5503 25.2752 13.8228 26.4644 13.8228V13.5715ZM23.8607 12.7984C23.2756 12.2857 22.9761 11.5468 22.9761 10.5607H22.7247C22.7247 11.6001 23.0434 12.4164 23.6959 12.9874L23.8607 12.7984ZM22.9761 10.5607C22.9761 10.0972 23.0535 9.63376 23.2083 9.1683L22.97 9.08786C22.8072 9.57744 22.7247 10.0691 22.7247 10.5607H22.9761ZM23.2083 9.1683C23.3701 8.69581 23.5823 8.27859 23.8456 7.91266L23.6416 7.76491C23.3621 8.15296 23.1389 8.59426 22.97 9.08786L23.2083 9.1683ZM23.8456 7.91266C24.1151 7.54171 24.4237 7.24315 24.7745 7.01695L24.6378 6.80582C24.2588 7.05011 23.9271 7.37084 23.6416 7.76491L23.8456 7.91266ZM24.7745 7.01695C25.1274 6.78674 25.4923 6.67414 25.8723 6.67414V6.42282C25.44 6.42282 25.0279 6.55248 24.6378 6.80582L24.7745 7.01695ZM25.8723 6.67414C26.3066 6.67414 26.6967 6.79678 27.0465 7.04107L27.1903 6.83496C26.7982 6.56052 26.3579 6.42282 25.8723 6.42282V6.67414ZM27.0465 7.04107C27.3984 7.28636 27.7442 7.67845 28.081 8.22332L28.2941 8.0906C27.9473 7.52864 27.5803 7.1074 27.1903 6.83496L27.0465 7.04107ZM28.081 8.22332C28.3393 8.6375 28.5474 9.10696 28.7032 9.63273L28.9445 9.56137C28.7827 9.01549 28.5655 8.52489 28.2941 8.0906L28.081 8.22332ZM28.7032 9.63273C28.8661 10.1605 28.9797 10.7335 29.043 11.3508L29.2934 11.3246C29.228 10.6933 29.1114 10.1052 28.9435 9.56032L28.7032 9.63273ZM29.1687 11.4634H30.7319V11.212H29.1687V11.4634ZM30.6063 11.3377V13.7414H30.8576V11.3377H30.6063ZM30.7319 13.6157H29.1416V13.867H30.7319V13.6157ZM29.0169 13.7263C28.9415 14.3526 28.7967 14.9276 28.5836 15.4524L28.8168 15.5469C29.039 14.999 29.1888 14.4018 29.2662 13.7564L29.0169 13.7263ZM28.5836 15.4524C28.3705 15.9812 28.087 16.4325 27.7341 16.8095L27.9171 16.9814C28.2941 16.5803 28.5937 16.1018 28.8168 15.5469L28.5836 15.4524ZM27.7321 16.8106C27.3853 17.1916 26.9651 17.4871 26.4685 17.6982L26.567 17.9305C27.0948 17.7053 27.5461 17.3886 27.9181 16.9805L27.7321 16.8106ZM26.4675 17.6992C25.9739 17.9154 25.4018 18.0239 24.7504 18.0239V18.2753C25.43 18.2753 26.0372 18.1617 26.568 17.9294L26.4675 17.6992ZM24.7504 18.0239C24.5071 18.0239 24.2669 18.0129 24.0296 17.9897L24.0045 18.2401C24.2508 18.2642 24.4991 18.2753 24.7504 18.2753V18.0239ZM24.0296 17.9897C23.7934 17.9666 23.5521 17.9254 23.3038 17.8681L23.2465 18.1134C23.5049 18.1737 23.7572 18.216 24.0045 18.2401L24.0296 17.9897ZM23.3018 17.8681C23.0585 17.8159 22.8072 17.7465 22.5458 17.66L22.4664 17.8983C22.7358 17.9877 22.9962 18.0601 23.2485 18.1134L23.3018 17.8681ZM22.5438 17.659C22.2824 17.5776 22.007 17.476 21.7155 17.3534L21.6182 17.5856C21.916 17.7103 22.2 17.8149 22.4694 17.8993L22.5438 17.659ZM21.7925 17.47V15.0573H21.5412V17.47H21.7925ZM27.2375 10.6621C27.1651 10.445 27.0807 10.2349 26.9852 10.0298L26.757 10.1354C26.8495 10.3314 26.9299 10.5345 26.9993 10.7416L27.2375 10.6621ZM26.9852 10.0298C26.8887 9.81772 26.7821 9.6297 26.6645 9.46282L26.4594 9.60757C26.566 9.75937 26.6655 9.93532 26.757 10.1354L26.9852 10.0298ZM26.6645 9.46282C26.5469 9.29494 26.4162 9.15723 26.2734 9.05369L26.1257 9.25672C26.2423 9.34117 26.3539 9.45778 26.4594 9.60757L26.6645 9.46282ZM26.2765 9.05571C26.1297 8.94211 25.9708 8.87974 25.802 8.87974V9.13106C25.9045 9.13106 26.0101 9.1683 26.1226 9.25476L26.2765 9.05571ZM25.802 8.87974C25.617 8.87974 25.4461 8.94407 25.2913 9.06571L25.4461 9.2628C25.5627 9.17232 25.6803 9.13106 25.802 9.13106V8.87974ZM25.2943 9.06271C25.1465 9.17228 25.0188 9.30601 24.9113 9.46485L25.1194 9.60561C25.2118 9.46989 25.3204 9.35628 25.4441 9.2658L25.2943 9.06271ZM24.9133 9.46282C24.8067 9.61362 24.7213 9.77648 24.6589 9.9524L24.8952 10.0368C24.9505 9.88302 25.0249 9.74027 25.1184 9.60757L24.9133 9.46282ZM24.6589 9.9524C24.5966 10.1203 24.5634 10.2761 24.5634 10.4189H24.8148C24.8148 10.3143 24.8389 10.1886 24.8952 10.0389L24.6589 9.9524ZM24.5634 10.4189C24.5634 10.628 24.5996 10.8109 24.6821 10.9637C24.7645 11.1185 24.8891 11.2342 25.051 11.3106L25.1576 11.0824C25.042 11.0291 24.9595 10.9507 24.9032 10.8462C24.8469 10.7396 24.8148 10.5988 24.8148 10.4189H24.5634ZM25.051 11.3106C25.3526 11.4513 25.7869 11.5167 26.3408 11.5167V11.2654C25.7989 11.2654 25.4089 11.2 25.1576 11.0824L25.051 11.3106ZM26.3408 11.5167H27.2777V11.2654H26.3408V11.5167ZM27.4004 11.3638C27.3773 11.2593 27.3541 11.1457 27.33 11.023L27.0837 11.0693C27.1068 11.195 27.131 11.3106 27.1551 11.4181L27.4004 11.3638ZM27.33 11.023C27.3059 10.8944 27.2747 10.7737 27.2375 10.6621L26.9993 10.7416C27.0324 10.8411 27.0606 10.9507 27.0837 11.0693L27.33 11.023ZM40.3365 12.142L40.3868 12.2576L40.4622 12.2244V12.142H40.3365ZM30.2725 11.6644L30.3851 11.7208L30.3871 11.7167L30.2725 11.6644ZM33.0381 11.3377V11.4634H33.1286L33.1577 11.3779L33.0381 11.3377ZM33.0562 11.2844L33.1748 11.3246L33.2009 11.2493L33.1426 11.1939L33.0562 11.2844ZM32.1021 9.95038L31.9855 9.99763V9.99867L32.1021 9.95038ZM31.9162 9.31403L31.7915 9.33213L31.7925 9.33618L31.9162 9.31403ZM37.4031 4.93193L37.391 5.05759H37.394L37.4031 4.93193ZM38.2958 5.04655H38.4214V4.94101L38.3169 4.92291L38.2958 5.04655ZM38.2958 7.46732L38.2757 7.59201L38.4214 7.61508V7.46732H38.2958ZM37.3498 7.35271L37.3377 7.47837H37.3397L37.3498 7.35271ZM34.6023 7.52967L34.5571 7.41204L34.5561 7.41302L34.6023 7.52967ZM33.9841 7.98004L33.8855 7.9026L33.8835 7.90364L33.9841 7.98004ZM33.8162 9.19039L33.6945 9.22255L33.6955 9.22758L33.8162 9.19039ZM34.0896 9.72121L33.9861 9.79158L33.9881 9.79459L34.0896 9.72121ZM34.6908 10.3746L34.6053 10.4671L34.6063 10.4681L34.6908 10.3746ZM35.7152 11.1085L35.6508 11.2161L35.6921 11.2402L35.7393 11.2312L35.7152 11.1085ZM40.3365 9.56137H40.4622V9.36631L40.2843 9.44773L40.3365 9.56137ZM36.5546 3.48332V3.60898H36.6803V3.48332H36.5546ZM34.4787 3.48332H34.353V3.60898H34.4787V3.48332ZM34.4787 1.61851V1.49285H34.353V1.61851H34.4787ZM36.5546 1.61851H36.6803V1.49285H36.5546V1.61851ZM40.2863 12.0263C39.5534 12.343 38.8658 12.6034 38.2224 12.8085L38.2978 13.0478C38.9512 12.8407 39.6469 12.5763 40.3868 12.2576L40.2863 12.0263ZM38.2224 12.8085C37.578 13.0135 36.9547 13.1774 36.3536 13.3001L36.4028 13.5464C37.015 13.4217 37.6464 13.2559 38.2978 13.0478L38.2224 12.8085ZM36.3536 13.3001C35.7574 13.4167 35.1703 13.4981 34.5923 13.5454L34.6124 13.7957C35.2005 13.7484 35.7976 13.665 36.4028 13.5464L36.3536 13.3001ZM34.5923 13.5454C34.0122 13.5916 33.4211 13.6157 32.8179 13.6157V13.867C33.4271 13.867 34.0253 13.8429 34.6124 13.7957L34.5923 13.5454ZM32.8179 13.6157H30.7319V13.867H32.8179V13.6157ZM30.7319 13.6157C30.6515 13.6157 30.5872 13.5956 30.5339 13.5584C30.4796 13.5202 30.4293 13.4609 30.3861 13.3694L30.1589 13.477C30.2162 13.5976 30.2926 13.6961 30.3911 13.7645C30.4907 13.8338 30.6063 13.867 30.7319 13.867V13.6157ZM30.3861 13.3694C30.2916 13.1754 30.2393 12.9009 30.2393 12.539H29.988C29.988 12.92 30.0423 13.2367 30.1599 13.478L30.3861 13.3694ZM30.2393 12.539C30.2393 12.1781 30.2916 11.9087 30.3851 11.7208L30.1599 11.6082C30.0423 11.8454 29.988 12.159 29.988 12.539H30.2393ZM30.3871 11.7167C30.4303 11.6232 30.4816 11.5609 30.5359 11.5217C30.5892 11.4845 30.6525 11.4634 30.7319 11.4634V11.212C30.6053 11.212 30.4897 11.2463 30.3901 11.3176C30.2916 11.387 30.2152 11.4885 30.1589 11.6122L30.3871 11.7167ZM30.7319 11.4634H33.0381V11.212H30.7319V11.4634ZM33.1577 11.3779L33.1748 11.3246L32.9365 11.2452L32.9195 11.2985L33.1577 11.3779ZM33.1426 11.1939C32.9064 10.9687 32.7154 10.7486 32.5676 10.5335L32.3605 10.6752C32.5194 10.9084 32.7224 11.1417 32.9697 11.3759L33.1426 11.1939ZM32.5676 10.5335C32.4188 10.3153 32.3022 10.1052 32.2178 9.90215L31.9855 9.99867C32.078 10.2198 32.2027 10.446 32.3605 10.6752L32.5676 10.5335ZM32.2178 9.90215C32.1333 9.69204 32.074 9.48896 32.0398 9.29292L31.7925 9.33618C31.8297 9.55131 31.8941 9.77244 31.9855 9.99763L32.2178 9.90215ZM32.0408 9.29697C32.0117 9.09591 31.9976 8.89584 31.9976 8.69578H31.7463C31.7463 8.9079 31.7614 9.12001 31.7915 9.33213L32.0408 9.29697ZM31.9976 8.69578C31.9976 8.1298 32.1122 7.62615 32.3374 7.1798L32.1132 7.06622C31.8679 7.55178 31.7463 8.09562 31.7463 8.69578H31.9976ZM32.3374 7.1798C32.5696 6.7254 32.8933 6.3404 33.3095 6.02172L33.1567 5.82163C32.7114 6.16243 32.3635 6.57765 32.1132 7.06622L32.3374 7.1798ZM33.3095 6.02172C33.7257 5.70204 34.2213 5.45471 34.7974 5.2818L34.725 5.04152C34.1238 5.22147 33.6 5.48184 33.1567 5.82163L33.3095 6.02172ZM34.7974 5.2818C35.3734 5.10889 36.0057 5.02244 36.6964 5.02244V4.77111C35.9846 4.77111 35.3271 4.86056 34.725 5.04152L34.7974 5.2818ZM36.6964 5.02244C36.9095 5.02244 37.1417 5.03447 37.391 5.05759L37.4151 4.80731C37.1578 4.78319 36.9185 4.77111 36.6964 4.77111V5.02244ZM37.394 5.05759C37.6423 5.07468 37.9349 5.11188 38.2747 5.17019L38.3169 4.92291C37.9721 4.8636 37.6705 4.82437 37.4121 4.80627L37.394 5.05759ZM38.1701 5.04655V7.46732H38.4214V5.04655H38.1701ZM38.3149 7.34369C37.9771 7.29041 37.6584 7.25121 37.3599 7.22809L37.3397 7.47837C37.6313 7.50149 37.9429 7.53973 38.2757 7.59201L38.3149 7.34369ZM37.3629 7.22809C37.0703 7.19793 36.7798 7.18281 36.4933 7.18281V7.43413C36.7718 7.43413 37.0532 7.44922 37.3377 7.47837L37.3629 7.22809ZM36.4933 7.18281C36.1424 7.18281 35.8006 7.19488 35.4679 7.21901L35.486 7.46935C35.8127 7.44623 36.1485 7.43413 36.4933 7.43413V7.18281ZM35.4679 7.21901C35.1331 7.24313 34.8295 7.30749 34.5571 7.41204L34.6476 7.64729C34.8929 7.55179 35.1723 7.49247 35.486 7.46935L35.4679 7.21901ZM34.5561 7.41302C34.2836 7.52059 34.0595 7.68345 33.8855 7.9026L34.0826 8.05845C34.2263 7.87649 34.4143 7.73873 34.6486 7.64625L34.5561 7.41302ZM33.8835 7.90364C33.7086 8.13386 33.6282 8.44045 33.6282 8.8104H33.8795C33.8795 8.47463 33.9529 8.22733 34.0836 8.05643L33.8835 7.90364ZM33.6282 8.8104C33.6282 8.92098 33.6523 9.05969 33.6945 9.22255L33.9378 9.15922C33.8976 9.00441 33.8795 8.88982 33.8795 8.8104H33.6282ZM33.6955 9.22758C33.7478 9.39747 33.8463 9.5855 33.9861 9.79158L34.1942 9.65083C34.0625 9.4558 33.978 9.29091 33.9358 9.15419L33.6955 9.22758ZM33.9881 9.79459C34.1359 9.99766 34.3419 10.2218 34.6053 10.4671L34.7762 10.2832C34.5209 10.0449 34.3269 9.83276 34.1912 9.64678L33.9881 9.79459ZM34.6063 10.4681C34.8738 10.7104 35.2226 10.9597 35.6508 11.2161L35.7795 10.9999C35.3603 10.7496 35.0266 10.5103 34.7752 10.2821L34.6063 10.4681ZM35.7393 11.2312C36.1012 11.1598 36.4631 11.0773 36.825 10.9818L36.7617 10.7396C36.4048 10.8331 36.0479 10.9145 35.6911 10.9849L35.7393 11.2312ZM36.825 10.9818C37.1879 10.8873 37.5549 10.7778 37.9288 10.6531L37.8494 10.4149C37.4805 10.5375 37.1186 10.6461 36.7617 10.7396L36.825 10.9818ZM37.9288 10.6531C38.3088 10.5285 38.6989 10.3867 39.102 10.2269L39.0085 9.99266C38.6104 10.1515 38.2244 10.2912 37.8494 10.4149L37.9288 10.6531ZM39.102 10.2269C39.5042 10.067 39.9334 9.88308 40.3888 9.67598L40.2843 9.44773C39.8329 9.65281 39.4076 9.83482 39.0085 9.99266L39.102 10.2269ZM40.2109 9.56137V12.142H40.4622V9.56137H40.2109ZM36.5546 3.35766H34.4787V3.60898H36.5546V3.35766ZM34.6043 3.48332V1.61851H34.353V3.48332H34.6043ZM34.4787 1.74418H36.5546V1.49285H34.4787V1.74418ZM36.4289 1.61851V3.48332H36.6803V1.61851H36.4289ZM46.3181 15.384L46.3532 15.2634L46.1924 15.2171V15.384H46.3181ZM47.3344 15.6324L47.3575 15.5087L47.3555 15.5077L47.3344 15.6324ZM49.2606 15.4554L49.2002 15.3448L49.1982 15.3458L49.2606 15.4554ZM50.3121 13.8027L50.1885 13.7816L50.1874 13.7836L50.3121 13.8027ZM49.6938 8.88176L49.5742 8.91999V8.92201L49.6938 8.88176ZM49.163 7.33565V7.20999H48.9851L49.0454 7.37786L49.163 7.33565ZM51.249 7.33565L51.3657 7.2884L51.3335 7.20999H51.249V7.33565ZM51.7788 8.91698L51.6572 8.95011L51.6582 8.95214L51.7788 8.91698ZM52.1498 10.4983L52.0261 10.5204V10.5234L52.1498 10.4983ZM52.2644 10.825L52.1538 10.8843L52.1568 10.8893L52.2644 10.825ZM52.5388 11.0904L52.4725 11.197L52.4745 11.199L52.5388 11.0904ZM53.0505 11.2764L53.0234 11.3991H53.0274L53.0505 11.2764ZM53.8729 11.3377H53.9985V11.212H53.8729V11.3377ZM53.8729 13.7414V13.867H53.9985V13.7414H53.8729ZM52.8656 13.6087L52.8153 13.7233L52.8173 13.7243L52.8656 13.6087ZM52.6092 13.4579L52.5237 13.5514L52.5328 13.5584L52.6092 13.4579ZM52.3971 13.2377L52.4926 13.1553L52.4443 13.1L52.373 13.1141L52.3971 13.2377ZM52.3529 13.2468L52.3287 13.1231L52.2322 13.1422L52.2272 13.2407L52.3529 13.2468ZM51.9286 15.4464L51.812 15.4001L51.811 15.4021L51.9286 15.4464ZM51.0007 16.9754L50.9103 16.8879L50.9093 16.889L51.0007 16.9754ZM49.6938 17.8581L49.6486 17.7414H49.6466L49.6938 17.8581ZM47.2992 18.0622L47.3244 17.9385H47.3223L47.2992 18.0622ZM46.3181 17.7787H46.1924V17.8671L46.2748 17.8973L46.3181 17.7787ZM46.2829 15.5057C46.692 15.6233 47.0358 15.7077 47.3133 15.756L47.3555 15.5077C47.0911 15.4624 46.7574 15.381 46.3532 15.2634L46.2829 15.5057ZM47.3103 15.755C47.5938 15.8093 47.8552 15.8374 48.0944 15.8374V15.5861C47.8743 15.5861 47.629 15.56 47.3575 15.5087L47.3103 15.755ZM48.0944 15.8374C48.585 15.8374 48.9972 15.749 49.3229 15.564L49.1982 15.3458C48.9228 15.5026 48.5579 15.5861 48.0944 15.5861V15.8374ZM49.3209 15.565C49.6406 15.3901 49.8919 15.1508 50.0748 14.8482L49.8597 14.7185C49.7009 14.9819 49.4817 15.19 49.2002 15.3448L49.3209 15.565ZM50.0748 14.8482C50.2548 14.5506 50.3754 14.2079 50.4358 13.8228L50.1874 13.7836C50.1311 14.1405 50.0216 14.4521 49.8597 14.7185L50.0748 14.8482ZM50.4358 13.8248C50.5021 13.4458 50.5353 13.0467 50.5353 12.6275H50.284C50.284 13.0337 50.2518 13.4177 50.1885 13.7816L50.4358 13.8248ZM50.5353 12.6275C50.5353 12.2274 50.5081 11.8303 50.4539 11.4353L50.2055 11.4694C50.2578 11.8524 50.284 12.2385 50.284 12.6275H50.5353ZM50.4539 11.4353C50.4006 11.0351 50.3201 10.6219 50.2126 10.1937L49.9693 10.255C50.0738 10.6752 50.1533 11.0794 50.2055 11.4694L50.4539 11.4353ZM50.2126 10.1937C50.106 9.76641 49.9723 9.31507 49.8125 8.84157L49.5742 8.92201C49.7321 9.39048 49.8637 9.83481 49.9693 10.255L50.2126 10.1937ZM49.8135 8.84255C49.6597 8.37006 49.4827 7.85339 49.2817 7.29344L49.0454 7.37786C49.2445 7.9358 49.4214 8.45051 49.5742 8.91999L49.8135 8.84255ZM49.163 7.46131H51.249V7.20999H49.163V7.46131ZM51.1314 7.38185C51.3365 7.89556 51.5114 8.41831 51.6572 8.95011L51.8995 8.88379C51.7517 8.34294 51.5727 7.81116 51.3657 7.2884L51.1314 7.38185ZM51.6582 8.95214C51.81 9.47791 51.9326 10.0007 52.0261 10.5204L52.2734 10.4762C52.1779 9.94737 52.0533 9.41658 51.8995 8.88176L51.6582 8.95214ZM52.0261 10.5234C52.0523 10.6521 52.0945 10.7727 52.1538 10.8843L52.376 10.7667C52.3287 10.6782 52.2945 10.5807 52.2734 10.4741L52.0261 10.5234ZM52.1568 10.8893C52.2282 11.011 52.3358 11.1126 52.4725 11.197L52.6052 10.9838C52.4936 10.9155 52.4192 10.8401 52.373 10.7617L52.1568 10.8893ZM52.4745 11.199C52.6193 11.2844 52.8042 11.3498 53.0234 11.3991L53.0787 11.1537C52.8736 11.1075 52.7168 11.0502 52.6022 10.9818L52.4745 11.199ZM53.0274 11.3991C53.2496 11.4423 53.5331 11.4634 53.8729 11.4634V11.212C53.5411 11.212 53.2757 11.192 53.0747 11.1528L53.0274 11.3991ZM53.7472 11.3377V13.7414H53.9985V11.3377H53.7472ZM53.8729 13.6157H53.6427V13.867H53.8729V13.6157ZM53.6427 13.6157C53.4778 13.6157 53.338 13.6037 53.2244 13.5826L53.1782 13.8288C53.3109 13.855 53.4667 13.867 53.6427 13.867V13.6157ZM53.2244 13.5826C53.1078 13.5604 53.0043 13.5303 52.9138 13.4921L52.8173 13.7243C52.9269 13.7695 53.0465 13.8047 53.1782 13.8288L53.2244 13.5826ZM52.9158 13.4931C52.8304 13.4559 52.754 13.4106 52.6856 13.3584L52.5328 13.5584C52.6182 13.6238 52.7117 13.6791 52.8153 13.7233L52.9158 13.4931ZM52.6937 13.3654C52.6273 13.3051 52.56 13.2347 52.4926 13.1553L52.3016 13.3191C52.375 13.4046 52.4494 13.482 52.5248 13.5514L52.6937 13.3654ZM52.373 13.1141L52.3287 13.1231L52.378 13.3694L52.4222 13.3604L52.373 13.1141ZM52.2272 13.2407C52.187 14.0842 52.0472 14.804 51.812 15.4001L52.0462 15.4926C52.2935 14.8643 52.4373 14.1164 52.4785 13.2528L52.2272 13.2407ZM51.811 15.4021C51.5808 16.0073 51.2792 16.5019 50.9103 16.8879L51.0922 17.0619C51.4883 16.6467 51.806 16.1229 52.0462 15.4926L51.811 15.4021ZM50.9093 16.889C50.5453 17.276 50.1251 17.5595 49.6486 17.7414L49.7381 17.9757C50.2518 17.7807 50.7032 17.475 51.0922 17.0608L50.9093 16.889ZM49.6466 17.7414C49.1731 17.9304 48.6765 18.0239 48.1557 18.0239V18.2753C48.7076 18.2753 49.2364 18.1758 49.7401 17.9757L49.6466 17.7414ZM48.1557 18.0239C47.8823 18.0239 47.6048 17.9958 47.3244 17.9385L47.2741 18.1848C47.5707 18.2451 47.8642 18.2753 48.1557 18.2753V18.0239ZM47.3223 17.9385C47.0479 17.8872 46.7282 17.7948 46.3613 17.6611L46.2748 17.8973C46.6508 18.034 46.9846 18.1305 47.2761 18.1848L47.3223 17.9385ZM46.4437 17.7787V15.384H46.1924V17.7787H46.4437ZM53.4225 13.4227L53.5361 13.3694L53.5351 13.3684L53.4225 13.4227ZM53.4225 11.6644L53.5341 11.7208L53.5361 11.7167L53.4225 11.6644ZM55.7809 11.3116L55.794 11.4362H55.798L55.7809 11.3116ZM56.4525 10.8169L56.3338 10.7768L56.3328 10.7798L56.4525 10.8169ZM56.5319 5.96539V5.83973H56.4062V5.96539H56.5319ZM58.4138 5.96539H58.5395V5.83973H58.4138V5.96539ZM58.6088 10.9044L58.5023 10.9728L58.5043 10.9758L58.6088 10.9044ZM59.0592 11.2322L59.017 11.3508H59.019L59.0592 11.2322ZM59.9247 11.3377H60.0504V11.212H59.9247V11.3377ZM59.9247 13.7414V13.867H60.0504V13.7414H59.9247ZM58.2027 13.5021L58.1504 13.6167L58.1524 13.6177L58.2027 13.5021ZM57.3984 12.725L57.511 12.6708L57.4768 12.5993H57.3984V12.725ZM57.3452 12.725V12.5993H57.2818L57.2446 12.6496L57.3452 12.725ZM56.2403 13.5383L56.1971 13.4197L56.1961 13.4207L56.2403 13.5383ZM58.3434 16.7985V16.9241H58.4691V16.7985H58.3434ZM56.2675 16.7985H56.1418V16.9241H56.2675V16.7985ZM56.2675 14.9337V14.808H56.1418V14.9337H56.2675ZM58.3434 14.9337H58.4691V14.808H58.3434V14.9337ZM55.0481 13.6157H53.8819V13.867H55.0481V13.6157ZM53.8819 13.6157C53.8015 13.6157 53.7372 13.5956 53.6839 13.5584C53.6296 13.5202 53.5783 13.4609 53.5361 13.3694L53.3089 13.477C53.3652 13.5976 53.4416 13.6961 53.5401 13.7645C53.6406 13.8338 53.7563 13.867 53.8819 13.867V13.6157ZM53.5351 13.3684C53.4406 13.1744 53.3883 12.9009 53.3883 12.539H53.137C53.137 12.92 53.1913 13.2367 53.3089 13.478L53.5351 13.3684ZM53.3883 12.539C53.3883 12.1781 53.4406 11.9087 53.5341 11.7208L53.3099 11.6082C53.1913 11.8454 53.137 12.159 53.137 12.539H53.3883ZM53.5361 11.7167C53.5793 11.6232 53.6306 11.5609 53.6849 11.5217C53.7381 11.4845 53.8015 11.4634 53.8819 11.4634V11.212C53.7553 11.212 53.6396 11.2463 53.5391 11.3176C53.4406 11.387 53.3652 11.4885 53.3079 11.6122L53.5361 11.7167ZM53.8819 11.4634H55.1365V11.212H53.8819V11.4634ZM55.1365 11.4634C55.3919 11.4634 55.612 11.4543 55.794 11.4362L55.7689 11.1859C55.598 11.203 55.3868 11.212 55.1365 11.212V11.4634ZM55.798 11.4362C55.988 11.4101 56.1529 11.3558 56.2856 11.2643L56.1428 11.0572C56.0513 11.1196 55.9277 11.1648 55.7648 11.1869L55.798 11.4362ZM56.2856 11.2643C56.4243 11.1698 56.5188 11.0291 56.5731 10.8531L56.3328 10.7798C56.2926 10.9105 56.2273 10.9999 56.1428 11.0572L56.2856 11.2643ZM56.5721 10.8562C56.6314 10.6792 56.6575 10.445 56.6575 10.1625H56.4062C56.4062 10.4339 56.3801 10.636 56.3338 10.7768L56.5721 10.8562ZM56.6575 10.1625V5.96539H56.4062V10.1625H56.6575ZM56.5319 6.09105H58.4138V5.83973H56.5319V6.09105ZM58.2881 5.96539V9.55333H58.5395V5.96539H58.2881ZM58.2881 9.55333C58.2881 9.86195 58.2972 10.1303 58.3153 10.3585L58.5656 10.3385C58.5485 10.1183 58.5395 9.85693 58.5395 9.55333H58.2881ZM58.3153 10.3585C58.3344 10.5968 58.3947 10.8039 58.5033 10.9728L58.7144 10.8371C58.6339 10.7114 58.5827 10.5476 58.5656 10.3385L58.3153 10.3585ZM58.5043 10.9758C58.6229 11.1487 58.7968 11.2724 59.017 11.3508L59.1014 11.1136C58.9215 11.0502 58.7948 10.9557 58.7124 10.8341L58.5043 10.9758ZM59.019 11.3508C59.2442 11.4282 59.5488 11.4634 59.9247 11.4634V11.212C59.5598 11.212 59.2874 11.1768 59.1004 11.1125L59.019 11.3508ZM59.7991 11.3377V13.7414H60.0504V11.3377H59.7991ZM59.9247 13.6157H59.5186V13.867H59.9247V13.6157ZM59.5186 13.6157C59.019 13.6157 58.5978 13.5383 58.2519 13.3875L58.1524 13.6177C58.5364 13.7856 58.9938 13.867 59.5186 13.867V13.6157ZM58.254 13.3885C57.9152 13.2347 57.6689 12.9965 57.511 12.6708L57.2848 12.7793C57.4688 13.1603 57.7593 13.4398 58.1504 13.6167L58.254 13.3885ZM57.3984 12.5993H57.3452V12.8507H57.3984V12.5993ZM57.2446 12.6496C57.0979 12.8466 56.937 13.0045 56.7611 13.1251L56.9038 13.3322C57.1049 13.1935 57.2859 13.0156 57.4457 12.8004L57.2446 12.6496ZM56.7611 13.1251C56.5811 13.2488 56.3931 13.3473 56.1971 13.4197L56.2846 13.6559C56.5007 13.5755 56.7068 13.4669 56.9038 13.3322L56.7611 13.1251ZM56.1961 13.4207C56.0041 13.4941 55.8101 13.5443 55.613 13.5725L55.6492 13.8218C55.8644 13.7906 56.0765 13.7353 56.2856 13.6549L56.1961 13.4207ZM55.613 13.5725C55.412 13.6016 55.224 13.6157 55.0481 13.6157V13.867C55.237 13.867 55.4371 13.852 55.6492 13.8218L55.613 13.5725ZM58.3434 16.6728H56.2675V16.9241H58.3434V16.6728ZM56.3931 16.7985V14.9337H56.1418V16.7985H56.3931ZM56.2675 15.0593H58.3434V14.808H56.2675V15.0593ZM58.2178 14.9337V16.7985H58.4691V14.9337H58.2178ZM69.5294 12.142L69.5796 12.2576L69.655 12.2244V12.142H69.5294ZM65.5715 13.4227L65.5956 13.5464H65.5966L65.5715 13.4227ZM59.4653 11.6644L59.5779 11.7208L59.5799 11.7167L59.4653 11.6644ZM62.2309 11.3377V11.4634H62.3214L62.3505 11.3779L62.2309 11.3377ZM62.249 11.2844L62.3676 11.3246L62.3938 11.2493L62.3355 11.1939L62.249 11.2844ZM61.295 9.95038L61.1784 9.99763V9.99867L61.295 9.95038ZM61.109 9.31403L60.9843 9.33213L60.9853 9.33618L61.109 9.31403ZM66.5959 4.93193L66.5848 5.05759H66.5868L66.5959 4.93193ZM67.4886 5.04655H67.6143V4.94101L67.5097 4.92291L67.4886 5.04655ZM67.4886 7.46732L67.4685 7.59201L67.6143 7.61508V7.46732H67.4886ZM66.5426 7.35271L66.5306 7.47837H66.5326L66.5426 7.35271ZM63.7951 7.52967L63.7499 7.41204L63.7489 7.41302L63.7951 7.52967ZM63.1769 7.98004L63.0784 7.9026L63.0764 7.90364L63.1769 7.98004ZM63.009 9.19039L62.8874 9.22255L62.8884 9.22758L63.009 9.19039ZM63.2824 9.72121L63.1789 9.79158L63.1809 9.79459L63.2824 9.72121ZM63.8836 10.3746L63.7982 10.4671L63.7992 10.4681L63.8836 10.3746ZM64.908 11.1085L64.8437 11.2161L64.8849 11.2402L64.9331 11.2312L64.908 11.1085ZM67.0825 10.5335L67.0433 10.4149H67.0423L67.0825 10.5335ZM69.5294 9.56137H69.655V9.36631L69.4771 9.44773L69.5294 9.56137ZM65.7474 3.48332V3.60898H65.8731V3.48332H65.7474ZM63.6715 3.48332H63.5458V3.60898H63.6715V3.48332ZM63.6715 1.61851V1.49285H63.5458V1.61851H63.6715ZM65.7474 1.61851H65.8731V1.49285H65.7474V1.61851ZM69.4801 12.0263C68.7462 12.343 68.0586 12.6034 67.4152 12.8085L67.4916 13.0478C68.1441 12.8407 68.8397 12.5763 69.5796 12.2576L69.4801 12.0263ZM67.4152 12.8085C66.7708 13.0135 66.1475 13.1774 65.5464 13.3001L65.5966 13.5464C66.2079 13.4217 66.8392 13.2559 67.4916 13.0478L67.4152 12.8085ZM65.5464 13.3001C64.9492 13.4167 64.3631 13.4981 63.7851 13.5454L63.8052 13.7957C64.3933 13.7484 64.9904 13.665 65.5956 13.5464L65.5464 13.3001ZM63.7851 13.5454C63.205 13.5916 62.6139 13.6157 62.0107 13.6157V13.867C62.62 13.867 63.2191 13.8429 63.8052 13.7957L63.7851 13.5454ZM62.0107 13.6157H59.9247V13.867H62.0107V13.6157ZM59.9247 13.6157C59.8443 13.6157 59.781 13.5956 59.7267 13.5584C59.6724 13.5202 59.6222 13.4609 59.5789 13.3694L59.3517 13.477C59.409 13.5976 59.4854 13.6961 59.584 13.7645C59.6835 13.8338 59.7991 13.867 59.9247 13.867V13.6157ZM59.5789 13.3694C59.4844 13.1754 59.4322 12.9009 59.4322 12.539H59.1808C59.1808 12.92 59.2351 13.2367 59.3527 13.478L59.5789 13.3694ZM59.4322 12.539C59.4322 12.1781 59.4844 11.9087 59.5779 11.7208L59.3537 11.6082C59.2351 11.8454 59.1808 12.159 59.1808 12.539H59.4322ZM59.5799 11.7167C59.6232 11.6232 59.6744 11.5609 59.7287 11.5217C59.782 11.4845 59.8453 11.4634 59.9247 11.4634V11.212C59.7991 11.212 59.6825 11.2463 59.5829 11.3176C59.4844 11.387 59.408 11.4885 59.3517 11.6122L59.5799 11.7167ZM59.9247 11.4634H62.2309V11.212H59.9247V11.4634ZM62.3505 11.3779L62.3676 11.3246L62.1294 11.2452L62.1123 11.2985L62.3505 11.3779ZM62.3355 11.1939C62.0992 10.9687 61.9082 10.7486 61.7604 10.5335L61.5533 10.6752C61.7122 10.9084 61.9163 11.1417 62.1626 11.3759L62.3355 11.1939ZM61.7604 10.5335C61.6116 10.3153 61.495 10.1052 61.4106 9.90215L61.1784 9.99867C61.2708 10.2198 61.3965 10.446 61.5533 10.6752L61.7604 10.5335ZM61.4116 9.90313C61.3261 9.69303 61.2668 9.48896 61.2326 9.29292L60.9853 9.33618C61.0225 9.55131 61.0869 9.77244 61.1784 9.99763L61.4116 9.90313ZM61.2336 9.29697C61.2045 9.09591 61.1904 8.89584 61.1904 8.69578H60.9391C60.9391 8.9079 60.9542 9.12001 60.9843 9.33213L61.2336 9.29697ZM61.1904 8.69578C61.1904 8.1298 61.305 7.62615 61.5302 7.1798L61.306 7.06622C61.0607 7.55178 60.9391 8.09562 60.9391 8.69578H61.1904ZM61.5302 7.1798C61.7634 6.7254 62.0861 6.3404 62.5023 6.02172L62.3495 5.82163C61.9052 6.16243 61.5564 6.57765 61.306 7.06622L61.5302 7.1798ZM62.5023 6.02172C62.9185 5.70204 63.4141 5.45471 63.9902 5.2818L63.9178 5.04152C63.3166 5.22147 62.7929 5.48184 62.3495 5.82163L62.5023 6.02172ZM63.9902 5.2818C64.5662 5.10889 65.1986 5.02244 65.8892 5.02244V4.77111C65.1774 4.77111 64.52 4.86056 63.9178 5.04152L63.9902 5.2818ZM65.8892 5.02244C66.1023 5.02244 66.3345 5.03447 66.5848 5.05759L66.608 4.80731C66.3516 4.78319 66.1114 4.77111 65.8892 4.77111V5.02244ZM66.5868 5.05759C66.8352 5.07468 67.1277 5.11188 67.4675 5.17019L67.5097 4.92291C67.1649 4.8636 66.8633 4.82437 66.6049 4.80627L66.5868 5.05759ZM67.3629 5.04655V7.46732H67.6143V5.04655H67.3629ZM67.5077 7.34369C67.1699 7.29041 66.8512 7.25121 66.5527 7.22809L66.5326 7.47837C66.8241 7.50149 67.1358 7.53973 67.4685 7.59201L67.5077 7.34369ZM66.5557 7.22809C66.2632 7.19793 65.9726 7.18281 65.6861 7.18281V7.43413C65.9646 7.43413 66.2461 7.44922 66.5306 7.47837L66.5557 7.22809ZM65.6861 7.18281C65.3353 7.18281 64.9935 7.19488 64.6607 7.21901L64.6788 7.46935C65.0055 7.44623 65.3413 7.43413 65.6861 7.43413V7.18281ZM64.6607 7.21901C64.3259 7.24313 64.0223 7.30749 63.7499 7.41204L63.8404 7.64729C64.0867 7.55179 64.3652 7.49247 64.6788 7.46935L64.6607 7.21901ZM63.7489 7.41302C63.4765 7.52059 63.2523 7.68345 63.0784 7.9026L63.2754 8.05845C63.4192 7.87649 63.6072 7.73873 63.8414 7.64625L63.7489 7.41302ZM63.0764 7.90364C62.9014 8.13386 62.821 8.44045 62.821 8.8104H63.0723C63.0723 8.47463 63.1457 8.22733 63.2764 8.05643L63.0764 7.90364ZM62.821 8.8104C62.821 8.92098 62.8451 9.05969 62.8874 9.22255L63.1306 9.15922C63.0904 9.00441 63.0723 8.88982 63.0723 8.8104H62.821ZM62.8884 9.22758C62.9406 9.39747 63.0392 9.5855 63.1789 9.79158L63.387 9.65083C63.2553 9.4558 63.1709 9.29091 63.1286 9.15419L62.8884 9.22758ZM63.1809 9.79459C63.3287 9.99766 63.5348 10.2218 63.7982 10.4671L63.9691 10.2832C63.7137 10.0449 63.5197 9.83276 63.384 9.64678L63.1809 9.79459ZM63.7992 10.4681C64.0666 10.7104 64.4154 10.9597 64.8437 11.2161L64.9724 10.9999C64.5531 10.7496 64.2194 10.5103 63.9681 10.2821L63.7992 10.4681ZM64.9331 11.2312C65.2951 11.1598 65.6559 11.0773 66.0179 10.9818L65.9545 10.7396C65.5976 10.8331 65.2408 10.9145 64.8839 10.9849L64.9331 11.2312ZM66.0179 10.9818C66.3808 10.8873 66.7477 10.7778 67.1217 10.6531L67.0423 10.4149C66.6733 10.5375 66.3114 10.6461 65.9545 10.7396L66.0179 10.9818ZM67.1207 10.6531C67.5007 10.5285 67.8917 10.3867 68.2949 10.2269L68.2024 9.99266C67.8033 10.1515 67.4172 10.2912 67.0433 10.4149L67.1207 10.6531ZM68.2949 10.2269C68.697 10.067 69.1262 9.88308 69.5816 9.67598L69.4771 9.44773C69.0257 9.65281 68.6005 9.83482 68.2024 9.99266L68.2949 10.2269ZM69.4037 9.56137V12.142H69.655V9.56137H69.4037ZM65.7474 3.35766H63.6715V3.60898H65.7474V3.35766ZM63.7972 3.48332V1.61851H63.5458V3.48332H63.7972ZM63.6715 1.74418H65.7474V1.49285H63.6715V1.74418ZM65.6218 1.61851V3.48332H65.8731V1.61851H65.6218ZM78.9922 16.3119L78.948 16.4295H78.949L78.9922 16.3119ZM76.9605 8.96122V8.83556H76.856L76.8369 8.93704L76.9605 8.96122ZM78.8153 8.96122L78.9399 8.97926L78.9621 8.83556H78.8153V8.96122ZM78.6836 9.89712L78.8072 9.91424H78.8083L78.6836 9.89712ZM78.5419 11.1698L78.4162 11.1608V11.1648L78.5419 11.1698ZM79.8407 14.0419L79.8789 13.9213H79.8769L79.8407 14.0419ZM82.5972 13.9887L82.557 13.8701H82.555L82.5972 13.9887ZM83.5432 13.3433L83.4457 13.2639L83.4447 13.2648L83.5432 13.3433ZM84.0549 12.2123L84.1775 12.2395H84.1785L84.0549 12.2123ZM84.2057 0.125662V0H84.08V0.125662H84.2057ZM86.0876 0.125662H86.2133V0H86.0876V0.125662ZM81.0068 16.4959C80.2277 16.4959 79.5723 16.3943 79.0364 16.1943L78.949 16.4295C79.52 16.6426 80.2076 16.7472 81.0068 16.7472V16.4959ZM79.0364 16.1943C78.5067 15.9952 78.0744 15.7007 77.7356 15.3107L77.5446 15.4755C77.9125 15.8998 78.383 16.2174 78.948 16.4295L79.0364 16.1943ZM77.7356 15.3107C77.4028 14.9206 77.1575 14.436 77.0017 13.85L76.7595 13.9143C76.9223 14.5306 77.1837 15.0523 77.5446 15.4755L77.7356 15.3107ZM77.0017 13.85C76.8469 13.2679 76.7675 12.5873 76.7675 11.8062H76.5162C76.5162 12.6034 76.5966 13.3061 76.7595 13.9143L77.0017 13.85ZM76.7675 11.8062C76.7675 11.4101 76.7906 10.9939 76.8379 10.5556L76.5876 10.5295C76.5403 10.9748 76.5162 11.401 76.5162 11.8062H76.7675ZM76.8379 10.5556C76.8841 10.1183 76.9666 9.59551 77.0832 8.98429L76.8369 8.93704C76.7183 9.55229 76.6358 10.0831 76.5876 10.5295L76.8379 10.5556ZM76.9605 9.08688H78.8153V8.83556H76.9605V9.08688ZM78.6916 8.94208C78.6383 9.29594 78.5941 9.60961 78.5589 9.88104L78.8083 9.91424C78.8434 9.64381 78.8867 9.33212 78.9399 8.97926L78.6916 8.94208ZM78.5589 9.88104C78.5227 10.1464 78.4936 10.3867 78.4695 10.5998L78.7198 10.628C78.7429 10.4168 78.7721 10.1786 78.8072 9.91424L78.5589 9.88104ZM78.4695 10.5998C78.4463 10.8079 78.4283 10.9939 78.4162 11.1608L78.6675 11.1789C78.6786 11.016 78.6967 10.832 78.7198 10.628L78.4695 10.5998ZM78.4162 11.1648C78.4102 11.3256 78.4071 11.4805 78.4071 11.6293H78.6585C78.6585 11.4835 78.6615 11.3327 78.6675 11.1748L78.4162 11.1648ZM78.4071 11.6293C78.4071 12.0726 78.4463 12.4626 78.5258 12.7984L78.77 12.7401C78.6967 12.4285 78.6585 12.0585 78.6585 11.6293H78.4071ZM78.5258 12.7984C78.6062 13.1392 78.751 13.4278 78.9621 13.658L79.147 13.4881C78.9691 13.294 78.8424 13.0467 78.77 12.7401L78.5258 12.7984ZM78.9621 13.658C79.1742 13.8902 79.4567 14.056 79.8045 14.1616L79.8769 13.9213C79.5642 13.8268 79.323 13.6811 79.147 13.4881L78.9621 13.658ZM79.8025 14.1616C80.1554 14.2722 80.5957 14.3265 81.1214 14.3265V14.0751C80.6107 14.0751 80.1976 14.0228 79.8789 13.9213L79.8025 14.1616ZM81.1214 14.3265C81.7196 14.3265 82.2273 14.2541 82.6394 14.1063L82.555 13.8701C82.178 14.0048 81.7015 14.0751 81.1214 14.0751V14.3265ZM82.6384 14.1073C83.0526 13.9645 83.3884 13.7373 83.6407 13.4217L83.4447 13.2648C83.2255 13.5393 82.931 13.7414 82.557 13.8701L82.6384 14.1073ZM83.6397 13.4227C83.8971 13.1101 84.075 12.714 84.1775 12.2395L83.9323 12.1862C83.8357 12.6305 83.6719 12.9874 83.4457 13.2639L83.6397 13.4227ZM84.1785 12.2395C84.2811 11.763 84.3313 11.197 84.3313 10.5425H84.08C84.08 11.1849 84.0298 11.7318 83.9323 12.1862L84.1785 12.2395ZM84.3313 10.5425V0.125662H84.08V10.5425H84.3313ZM84.2057 0.251324H86.0876V0H84.2057V0.251324ZM85.9619 0.125662V10.7194H86.2133V0.125662H85.9619ZM85.9619 10.7194C85.9619 11.6594 85.8685 12.4908 85.6825 13.2156L85.9268 13.2779C86.1178 12.529 86.2133 11.6755 86.2133 10.7194H85.9619ZM85.6825 13.2156C85.5035 13.9314 85.217 14.5296 84.8239 15.0141L85.019 15.1719C85.4382 14.6552 85.7398 14.0228 85.9268 13.2779L85.6825 13.2156ZM84.8239 15.0141C84.4319 15.4967 83.9252 15.8645 83.3009 16.1159L83.3954 16.3491C84.0559 16.0827 84.5978 15.6907 85.019 15.1719L84.8239 15.0141ZM83.3009 16.1159C82.6786 16.3682 81.9146 16.4959 81.0068 16.4959V16.7472C81.9367 16.7472 82.7339 16.6166 83.3954 16.3491L83.3009 16.1159ZM87.5986 15.0573L87.6428 14.9407L87.4729 14.8754V15.0573H87.5986ZM90.0012 15.6766L90.0143 15.5509H90.0113L90.0012 15.6766ZM92.4139 15.199L92.3355 15.1006L92.3345 15.1015L92.4139 15.199ZM92.8643 14.6773L92.7557 14.615L92.7537 14.618L92.8643 14.6773ZM93.1116 14.0852L92.991 14.051L92.99 14.054L93.1116 14.0852ZM93.1468 13.9093L93.0242 13.8781L93.0232 13.8901L93.1468 13.9093ZM93.191 13.6972L93.3147 13.7172L93.3398 13.5715H93.191V13.6972ZM95.1001 11.3377L94.9744 11.3508L94.9865 11.4634H95.1001V11.3377ZM96.6633 11.3377H96.789V11.212H96.6633V11.3377ZM96.6633 13.7414V13.867H96.789V13.7414H96.6633ZM95.073 13.7414V13.6157H94.9614L94.9483 13.7263L95.073 13.7414ZM93.757 16.895L93.6655 16.8095L93.6635 16.8106L93.757 16.895ZM92.4491 17.8138L92.3999 17.6982L92.3989 17.6992L92.4491 17.8138ZM89.206 17.9908L89.2352 17.8681H89.2332L89.206 17.9908ZM88.438 17.7787L88.4772 17.66L88.4752 17.659L88.438 17.7787ZM87.5986 17.47H87.4729V17.5535L87.5493 17.5856L87.5986 17.47ZM92.1315 9.15523L92.054 9.25476L92.0571 9.25672L92.1315 9.15523ZM91.3001 9.16425L91.3755 9.2658L91.3775 9.2628L91.3001 9.16425ZM90.9472 9.53523L91.0498 9.60757L91.0508 9.60561L90.9472 9.53523ZM90.7079 9.99462L90.8266 10.0389V10.0368L90.7079 9.99462ZM93.2091 11.391V11.5167H93.366L93.3318 11.3638L93.2091 11.391ZM87.5533 15.1749C87.88 15.2996 88.1837 15.4041 88.4641 15.4876L88.5355 15.2463C88.2621 15.1649 87.9645 15.0634 87.6428 14.9407L87.5533 15.1749ZM88.4641 15.4876C88.7496 15.571 89.0181 15.6394 89.2684 15.6927L89.3206 15.4474C89.0774 15.3951 88.815 15.3277 88.5345 15.2463L88.4641 15.4876ZM89.2684 15.6927C89.5207 15.747 89.762 15.7831 89.9922 15.8012L90.0113 15.5509C89.7941 15.5338 89.5639 15.4996 89.3206 15.4474L89.2684 15.6927ZM89.9882 15.8012C90.2164 15.8253 90.4415 15.8374 90.6647 15.8374V15.5861C90.4506 15.5861 90.2345 15.5741 90.0143 15.5509L89.9882 15.8012ZM90.6647 15.8374C91.0799 15.8374 91.4388 15.7892 91.7374 15.6897L91.659 15.4504C91.3936 15.5398 91.0618 15.5861 90.6647 15.5861V15.8374ZM91.7374 15.6897C92.037 15.5922 92.2903 15.4615 92.4934 15.2966L92.3345 15.1015C92.1606 15.2433 91.9364 15.3599 91.659 15.4504L91.7374 15.6897ZM92.4913 15.2976C92.6974 15.1357 92.8593 14.9487 92.9749 14.7376L92.7537 14.618C92.6572 14.7949 92.5185 14.9568 92.3355 15.1006L92.4913 15.2976ZM92.9729 14.7406C93.0905 14.5376 93.177 14.3295 93.2333 14.1174L92.99 14.054C92.9407 14.242 92.8623 14.429 92.7557 14.615L92.9729 14.7406ZM93.2323 14.1204C93.2463 14.0711 93.2594 14.0068 93.2715 13.9284L93.0232 13.8901C93.0111 13.9645 93 14.0179 92.991 14.051L93.2323 14.1204ZM93.2695 13.9394C93.2875 13.866 93.3026 13.7916 93.3147 13.7172L93.0674 13.6761C93.0563 13.7434 93.0423 13.8108 93.0252 13.8781L93.2695 13.9394ZM93.191 13.5715H92.3958V13.8228H93.191V13.5715ZM92.3958 13.5715C91.2408 13.5715 90.3802 13.3071 89.7921 12.7984L89.6273 12.9874C90.2777 13.5503 91.2066 13.8228 92.3958 13.8228V13.5715ZM89.7931 12.7984C89.2081 12.2857 88.9075 11.5468 88.9075 10.5607H88.6561C88.6561 11.6001 88.9748 12.4164 89.6273 12.9874L89.7931 12.7984ZM88.9075 10.5607C88.9075 10.0972 88.9849 9.63376 89.1397 9.1683L88.9014 9.08786C88.7386 9.57744 88.6561 10.0691 88.6561 10.5607H88.9075ZM89.1397 9.1683C89.3015 8.69581 89.5137 8.27859 89.777 7.91266L89.573 7.76491C89.2935 8.15296 89.0703 8.59426 88.9014 9.08786L89.1397 9.1683ZM89.776 7.91266C90.0455 7.54171 90.3551 7.24315 90.7059 7.01695L90.5692 6.80582C90.1902 7.05011 89.8585 7.37084 89.573 7.76491L89.776 7.91266ZM90.7059 7.01695C91.0588 6.78674 91.4237 6.67414 91.8037 6.67414V6.42282C91.3715 6.42282 90.9593 6.55248 90.5692 6.80582L90.7059 7.01695ZM91.8037 6.67414C92.238 6.67414 92.6281 6.79678 92.9779 7.04107L93.1217 6.83496C92.7296 6.56052 92.2893 6.42282 91.8037 6.42282V6.67414ZM92.9779 7.04107C93.3298 7.28636 93.6756 7.67845 94.0124 8.22332L94.2255 8.0906C93.8787 7.52864 93.5117 7.1074 93.1217 6.83496L92.9779 7.04107ZM94.0124 8.22332C94.2707 8.6375 94.4788 9.10696 94.6346 9.63273L94.8759 9.56137C94.7141 9.01549 94.4969 8.52489 94.2255 8.0906L94.0124 8.22332ZM94.6346 9.63273C94.7975 10.1605 94.9111 10.7335 94.9744 11.3508L95.2248 11.3246C95.1594 10.6933 95.0428 10.1052 94.8749 9.56032L94.6346 9.63273ZM95.1001 11.4634H96.6633V11.212H95.1001V11.4634ZM96.5377 11.3377V13.7414H96.789V11.3377H96.5377ZM96.6633 13.6157H95.073V13.867H96.6633V13.6157ZM94.9483 13.7263C94.8729 14.3526 94.7281 14.9276 94.515 15.4524L94.7482 15.5469C94.9704 14.999 95.1202 14.4018 95.1976 13.7564L94.9483 13.7263ZM94.515 15.4524C94.3019 15.9812 94.0184 16.4325 93.6655 16.8095L93.8485 16.9814C94.2255 16.5803 94.5251 16.1018 94.7482 15.5469L94.515 15.4524ZM93.6635 16.8106C93.3167 17.1916 92.8965 17.4871 92.3999 17.6982L92.4984 17.9305C93.0262 17.7053 93.4775 17.3886 93.8495 16.9805L93.6635 16.8106ZM92.3989 17.6992C91.9053 17.9154 91.3332 18.0239 90.6818 18.0239V18.2753C91.3614 18.2753 91.9686 18.1617 92.4994 17.9294L92.3989 17.6992ZM90.6818 18.0239C90.4385 18.0239 90.1983 18.0129 89.961 17.9897L89.9359 18.2401C90.1822 18.2642 90.4305 18.2753 90.6818 18.2753V18.0239ZM89.961 17.9897C89.7248 17.9666 89.4835 17.9254 89.2352 17.8681L89.1779 18.1134C89.4362 18.1737 89.6886 18.216 89.9359 18.2401L89.961 17.9897ZM89.2332 17.8681C88.9899 17.8159 88.7386 17.7465 88.4772 17.66L88.3978 17.8983C88.6672 17.9877 88.9276 18.0601 89.1799 18.1134L89.2332 17.8681ZM88.4752 17.659C88.2138 17.5776 87.9384 17.476 87.6468 17.3534L87.5493 17.5856C87.8469 17.7103 88.1314 17.8149 88.4008 17.8993L88.4752 17.659ZM87.7242 17.47V15.0573H87.4729V17.47H87.7242ZM93.1689 10.6621C93.0965 10.445 93.0121 10.2349 92.9166 10.0298L92.6884 10.1354C92.7809 10.3314 92.8613 10.5345 92.9307 10.7416L93.1689 10.6621ZM92.9166 10.0298C92.8201 9.81772 92.7125 9.6297 92.5959 9.46282L92.3908 9.60757C92.4974 9.75937 92.5969 9.93532 92.6884 10.1354L92.9166 10.0298ZM92.5959 9.46282C92.4773 9.29494 92.3476 9.15723 92.2048 9.05369L92.0571 9.25672C92.1737 9.34117 92.2853 9.45778 92.3908 9.60757L92.5959 9.46282ZM92.2079 9.05571C92.0611 8.94211 91.9022 8.87974 91.7334 8.87974V9.13106C91.8359 9.13106 91.9415 9.1683 92.054 9.25476L92.2079 9.05571ZM91.7334 8.87974C91.5484 8.87974 91.3775 8.94407 91.2227 9.06571L91.3775 9.2628C91.4941 9.17232 91.6117 9.13106 91.7334 9.13106V8.87974ZM91.2257 9.06271C91.0779 9.17228 90.9502 9.30601 90.8427 9.46485L91.0508 9.60561C91.1432 9.46989 91.2518 9.35628 91.3755 9.2658L91.2257 9.06271ZM90.8447 9.46282C90.7371 9.61362 90.6527 9.77648 90.5903 9.9524L90.8266 10.0368C90.8819 9.88302 90.9563 9.74027 91.0498 9.60757L90.8447 9.46282ZM90.5903 9.9524C90.528 10.1203 90.4948 10.2761 90.4948 10.4189H90.7462C90.7462 10.3143 90.7703 10.1886 90.8266 10.0389L90.5903 9.9524ZM90.4948 10.4189C90.4948 10.628 90.531 10.8109 90.6135 10.9637C90.6959 11.1185 90.8205 11.2342 90.9824 11.3106L91.089 11.0824C90.9733 11.0291 90.8909 10.9507 90.8346 10.8462C90.7783 10.7396 90.7462 10.5988 90.7462 10.4189H90.4948ZM90.9824 11.3106C91.284 11.4513 91.7183 11.5167 92.2722 11.5167V11.2654C91.7303 11.2654 91.3403 11.2 91.089 11.0824L90.9824 11.3106ZM92.2722 11.5167H93.2091V11.2654H92.2722V11.5167ZM93.3318 11.3638C93.3087 11.2593 93.2845 11.1457 93.2614 11.023L93.0151 11.0693C93.0382 11.195 93.0623 11.3106 93.0865 11.4181L93.3318 11.3638ZM93.2614 11.023C93.2373 10.8944 93.2061 10.7737 93.1689 10.6621L92.9307 10.7416C92.9638 10.8411 92.992 10.9507 93.0151 11.0693L93.2614 11.023ZM103.873 8.86366H103.999V8.79328L103.94 8.75714L103.873 8.86366ZM103.113 8.45753L103.061 8.57116L103.062 8.57215L103.113 8.45753ZM101.506 8.0333L101.491 8.15798H101.494L101.506 8.0333ZM98.1743 8.28063H98.0486V8.44446L98.2075 8.40224L98.1743 8.28063ZM98.1743 6.05387L98.1411 5.93324L98.0486 5.9584V6.05387H98.1743ZM99.3766 5.78046L99.3555 5.65676H99.3545L99.3766 5.78046ZM104.58 6.99983L104.524 7.11145L104.526 7.11243L104.58 6.99983ZM105.561 7.31755L105.538 7.44119H105.539L105.561 7.31755ZM106.975 7.46732L107.098 7.48843L107.121 7.35068L106.983 7.34264L106.975 7.46732ZM106.541 10.0389L106.572 10.1615L106.652 10.1414L106.666 10.06L106.541 10.0389ZM105.57 10.4631L105.634 10.5707H105.635L105.57 10.4631ZM104.412 11.1879L104.481 11.2935L104.482 11.2925L104.412 11.1879ZM101.355 12.8748L101.402 12.9914H101.403L101.355 12.8748ZM96.2039 11.6644L96.3165 11.7208L96.3185 11.7167L96.2039 11.6644ZM99.076 11.1347L99.1032 11.2573H99.1042L99.076 11.1347ZM100.825 10.5867L100.873 10.7034L100.874 10.7024L100.825 10.5867ZM103.873 8.93404L103.941 9.04062L103.999 9.00343V8.93404H103.873ZM102.99 4.37504V4.5007H103.115V4.37504H102.99ZM100.914 4.37504H100.788V4.5007H100.914V4.37504ZM100.914 2.51122V2.38556H100.788V2.51122H100.914ZM102.99 2.51122H103.115V2.38556H102.99V2.51122ZM103.94 8.75714C103.676 8.59529 103.418 8.45751 103.166 8.34291L103.062 8.57215C103.304 8.68172 103.553 8.81439 103.808 8.97122L103.94 8.75714ZM103.167 8.34291C102.918 8.22831 102.658 8.13482 102.386 8.06244L102.321 8.30475C102.58 8.37411 102.826 8.46259 103.061 8.57116L103.167 8.34291ZM102.386 8.06244C102.114 7.98905 101.825 7.93783 101.518 7.90868L101.494 8.15798C101.787 8.18713 102.064 8.23639 102.321 8.30475L102.386 8.06244ZM101.521 7.90868C101.22 7.87249 100.885 7.85437 100.516 7.85437V8.1057C100.878 8.1057 101.202 8.1238 101.491 8.15798L101.521 7.90868ZM100.516 7.85437C100.087 7.85437 99.6842 7.87846 99.3073 7.92672L99.3394 8.17608C99.7043 8.12883 100.096 8.1057 100.516 8.1057V7.85437ZM99.3073 7.92672C98.9303 7.97396 98.5412 8.0524 98.1421 8.15896L98.2075 8.40224C98.5965 8.29769 98.9745 8.22232 99.3394 8.17608L99.3073 7.92672ZM98.3 8.28063V6.05387H98.0486V8.28063H98.3ZM98.2085 6.17548C98.6287 6.05786 99.0248 5.96843 99.3977 5.9041L99.3545 5.65676C98.9735 5.7221 98.5684 5.81462 98.1411 5.93324L98.2085 6.17548ZM99.3977 5.9041C99.7737 5.84076 100.178 5.80856 100.613 5.80856V5.55724C100.165 5.55724 99.7456 5.59041 99.3555 5.65676L99.3977 5.9041ZM100.613 5.80856C101.072 5.80856 101.474 5.84977 101.823 5.92919L101.878 5.68394C101.508 5.5995 101.086 5.55724 100.613 5.55724V5.80856ZM101.823 5.92919C102.175 6.01062 102.501 6.11416 102.8 6.24083L102.897 6.00865C102.584 5.87595 102.244 5.76839 101.878 5.68394L101.823 5.92919ZM102.8 6.24083C103.102 6.3685 103.39 6.50826 103.662 6.65905L103.784 6.4389C103.503 6.28307 103.208 6.14034 102.897 6.00865L102.8 6.24083ZM103.662 6.65905C103.941 6.81286 104.228 6.96367 104.524 7.11145L104.636 6.88724C104.344 6.74047 104.059 6.5917 103.784 6.4389L103.662 6.65905ZM104.526 7.11243C104.679 7.18581 104.836 7.24919 105 7.30448L105.08 7.06622C104.925 7.01495 104.777 6.95462 104.634 6.88626L104.526 7.11243ZM105 7.30448C105.165 7.35977 105.345 7.405 105.538 7.44119L105.584 7.19385C105.4 7.15967 105.232 7.11649 105.08 7.06622L105 7.30448ZM105.539 7.44119C105.737 7.47738 105.952 7.50753 106.185 7.53065L106.21 7.28135C105.983 7.25722 105.774 7.22904 105.583 7.19385L105.539 7.44119ZM106.185 7.53065C106.417 7.55477 106.677 7.5759 106.967 7.59299L106.983 7.34264C106.695 7.32455 106.438 7.30447 106.21 7.28135L106.185 7.53065ZM106.851 7.4472L106.418 10.0178L106.666 10.06L107.098 7.48843L106.851 7.4472ZM106.512 9.91725C106.202 9.99164 105.866 10.1394 105.505 10.3555L105.635 10.5707C105.98 10.3636 106.293 10.2279 106.572 10.1615L106.512 9.91725ZM105.506 10.3545C105.156 10.5626 104.769 10.8049 104.344 11.0824L104.482 11.2925C104.904 11.017 105.289 10.7757 105.634 10.5707L105.506 10.3545ZM104.344 11.0824C103.928 11.3518 103.466 11.6373 102.962 11.9369L103.089 12.153C103.597 11.8514 104.061 11.5649 104.481 11.2935L104.344 11.0824ZM102.962 11.9369C102.46 12.2334 101.909 12.5079 101.307 12.7592L101.403 12.9914C102.016 12.7361 102.577 12.4566 103.089 12.153L102.962 11.9369ZM101.308 12.7592C100.709 13.0035 100.052 13.2076 99.3394 13.3714L99.3957 13.6157C100.12 13.4498 100.789 13.2417 101.402 12.9914L101.308 12.7592ZM99.3394 13.3714C98.6367 13.5333 97.8717 13.6157 97.0433 13.6157V13.867C97.8878 13.867 98.6719 13.7836 99.3957 13.6157L99.3394 13.3714ZM97.0433 13.6157H96.6633V13.867H97.0433V13.6157ZM96.6633 13.6157C96.5829 13.6157 96.5186 13.5956 96.4653 13.5584C96.411 13.5202 96.3607 13.4609 96.3175 13.3694L96.0903 13.477C96.1476 13.5976 96.224 13.6961 96.3225 13.7645C96.4221 13.8338 96.5377 13.867 96.6633 13.867V13.6157ZM96.3175 13.3694C96.223 13.1754 96.1707 12.9009 96.1707 12.539H95.9194C95.9194 12.92 95.9737 13.2367 96.0913 13.478L96.3175 13.3694ZM96.1707 12.539C96.1707 12.1781 96.223 11.9087 96.3165 11.7208L96.0913 11.6082C95.9737 11.8454 95.9194 12.159 95.9194 12.539H96.1707ZM96.3185 11.7167C96.3617 11.6232 96.413 11.5609 96.4673 11.5217C96.5206 11.4845 96.5839 11.4634 96.6633 11.4634V11.212C96.5367 11.212 96.4211 11.2463 96.3215 11.3176C96.223 11.387 96.1466 11.4885 96.0903 11.6122L96.3185 11.7167ZM96.6633 11.4634H97.1227V11.212H96.6633V11.4634ZM97.1227 11.4634C97.8204 11.4634 98.4809 11.395 99.1032 11.2573L99.0489 11.012C98.4457 11.1457 97.8043 11.212 97.1227 11.212V11.4634ZM99.1042 11.2573C99.7225 11.1146 100.313 10.9296 100.873 10.7034L100.778 10.4701C100.231 10.6913 99.6551 10.8723 99.0489 11.012L99.1042 11.2573ZM100.874 10.7024C101.431 10.4712 101.963 10.2128 102.469 9.92731L102.345 9.70912C101.849 9.98859 101.326 10.2429 100.777 10.4711L100.874 10.7024ZM102.469 9.92731C102.978 9.63778 103.468 9.34221 103.941 9.04062L103.806 8.8285C103.336 9.12808 102.849 9.4216 102.344 9.70912L102.469 9.92731ZM103.999 8.93404V8.86366H103.748V8.93404H103.999ZM102.99 4.24938H100.914V4.5007H102.99V4.24938ZM101.039 4.37504V2.51122H100.788V4.37504H101.039ZM100.914 2.63688H102.99V2.38556H100.914V2.63688ZM102.864 2.51122V4.37504H103.115V2.51122H102.864ZM109.528 13.7142L109.539 13.5895H109.538L109.528 13.7142ZM108.07 13.5202L107.947 13.5443L107.964 13.6288L108.048 13.6439L108.07 13.5202ZM107.593 11.0904L107.611 10.9657L107.436 10.9406L107.47 11.1145L107.593 11.0904ZM111.755 11.2935L111.782 11.4161H111.785L111.755 11.2935ZM110.995 4.26944V4.14378H110.813L110.877 4.31368L110.995 4.26944ZM113.222 4.26944L113.34 4.22925L113.312 4.14378H113.222V4.26944ZM114.653 9.39447L114.53 9.42159V9.42264L114.653 9.39447ZM115.077 10.7104L114.969 10.7747L114.972 10.7788L115.077 10.7104ZM116.314 11.3377H116.44V11.212H116.314V11.3377ZM116.314 13.7414V13.867H116.44V13.7414H116.314ZM115.51 13.6791L115.48 13.8017H115.481L115.51 13.6791ZM115.015 13.4851L114.951 13.5926L114.954 13.5946L115.015 13.4851ZM114.565 13.1141L114.47 13.1975L114.472 13.1985L114.565 13.1141ZM114.194 12.539L114.306 12.4847L114.272 12.4134H114.194V12.539ZM114.149 12.539V12.4134H114.088L114.05 12.4626L114.149 12.539ZM113.487 13.1402L113.551 13.2478L113.553 13.2468L113.487 13.1402ZM112.656 13.5202L112.695 13.6399H112.696L112.656 13.5202ZM111.72 13.7142L111.707 13.5895H111.704L111.72 13.7142ZM110.712 13.6509C110.382 13.6509 109.991 13.6308 109.539 13.5895L109.517 13.8399C109.973 13.8811 110.372 13.9022 110.712 13.9022V13.6509ZM109.538 13.5895C109.09 13.5544 108.607 13.4901 108.093 13.3966L108.048 13.6439C108.57 13.7383 109.059 13.8037 109.517 13.8399L109.538 13.5895ZM108.194 13.4961L107.717 11.0663L107.47 11.1145L107.947 13.5443L108.194 13.4961ZM107.576 11.215C108.237 11.3095 108.831 11.38 109.358 11.4272L109.38 11.1769C108.859 11.1306 108.269 11.0602 107.611 10.9657L107.576 11.215ZM109.358 11.4272C109.885 11.4755 110.364 11.4986 110.792 11.4986V11.2473C110.373 11.2473 109.902 11.2241 109.38 11.1769L109.358 11.4272ZM110.792 11.4986C111.202 11.4986 111.534 11.4724 111.782 11.4161L111.728 11.1709C111.505 11.2211 111.194 11.2473 110.792 11.2473V11.4986ZM111.785 11.4161C112.036 11.3548 112.24 11.2653 112.384 11.1417L112.221 10.9506C112.118 11.0391 111.957 11.1155 111.725 11.1718L111.785 11.4161ZM112.384 11.1417C112.533 11.013 112.631 10.8542 112.673 10.6672L112.427 10.6129C112.398 10.7436 112.331 10.8561 112.22 10.9506L112.384 11.1417ZM112.673 10.6672C112.711 10.4973 112.729 10.3053 112.729 10.0922H112.478C112.478 10.2912 112.461 10.4641 112.427 10.6129L112.673 10.6672ZM112.729 10.0922C112.729 9.80869 112.683 9.44874 112.593 9.01546L112.347 9.06571C112.435 9.49196 112.478 9.83281 112.478 10.0922H112.729ZM112.593 9.01546C112.505 8.58117 112.386 8.10465 112.238 7.58391L111.996 7.65232C112.143 8.16804 112.26 8.63947 112.347 9.06571L112.593 9.01546ZM112.238 7.58391C112.091 7.05713 111.919 6.50724 111.724 5.93422L111.485 6.01466C111.679 6.58467 111.849 7.13057 111.996 7.65232L112.238 7.58391ZM111.724 5.93422C111.529 5.35618 111.326 4.78622 111.112 4.22527L110.877 4.31368C111.089 4.87162 111.291 5.43863 111.485 6.01466L111.724 5.93422ZM110.995 4.39511H113.222V4.14378H110.995V4.39511ZM113.103 4.3097C113.438 5.2969 113.716 6.20768 113.939 7.04107L114.183 6.97572C113.957 6.1363 113.677 5.22048 113.34 4.22925L113.103 4.3097ZM113.939 7.04107C114.164 7.87044 114.36 8.6636 114.53 9.42159L114.776 9.36631C114.604 8.60429 114.407 7.80811 114.183 6.97572L113.939 7.04107ZM114.53 9.42264C114.584 9.65285 114.64 9.88405 114.699 10.1143L114.943 10.0519C114.884 9.82272 114.828 9.59552 114.776 9.36631L114.53 9.42264ZM114.699 10.1143C114.761 10.3545 114.85 10.5747 114.969 10.7747L115.185 10.6461C115.079 10.4691 114.999 10.2711 114.943 10.0519L114.699 10.1143ZM114.972 10.7788C115.1 10.9778 115.27 11.1417 115.48 11.2684L115.61 11.0532C115.431 10.9457 115.289 10.8079 115.183 10.6421L114.972 10.7788ZM115.48 11.2684C115.701 11.4021 115.982 11.4634 116.314 11.4634V11.212C116.01 11.212 115.779 11.1558 115.61 11.0532L115.48 11.2684ZM116.188 11.3377V13.7414H116.44V11.3377H116.188ZM116.314 13.6157H116.049V13.867H116.314V13.6157ZM116.049 13.6157C115.876 13.6157 115.706 13.5956 115.539 13.5564L115.481 13.8017C115.667 13.845 115.856 13.867 116.049 13.867V13.6157ZM115.54 13.5574C115.38 13.5182 115.226 13.4579 115.076 13.3755L114.954 13.5946C115.123 13.6881 115.299 13.7575 115.48 13.8017L115.54 13.5574ZM115.079 13.3765C114.932 13.289 114.791 13.1734 114.657 13.0286L114.472 13.1985C114.621 13.3604 114.781 13.4921 114.951 13.5926L115.079 13.3765ZM114.659 13.0306C114.532 12.8879 114.415 12.7059 114.306 12.4847L114.08 12.5943C114.197 12.8316 114.325 13.0337 114.47 13.1975L114.659 13.0306ZM114.194 12.4134H114.149V12.6647H114.194V12.4134ZM114.05 12.4626C113.871 12.6929 113.661 12.8828 113.42 13.0336L113.553 13.2468C113.82 13.0799 114.051 12.8698 114.248 12.6165L114.05 12.4626ZM113.422 13.0327C113.176 13.1804 112.909 13.3041 112.616 13.4006L112.696 13.6399C113.004 13.5363 113.29 13.4056 113.551 13.2478L113.422 13.0327ZM112.617 13.4006C112.332 13.492 112.028 13.5554 111.707 13.5895L111.733 13.8399C112.071 13.8037 112.391 13.7374 112.695 13.6399L112.617 13.4006ZM111.704 13.5895C111.38 13.6308 111.049 13.6509 110.712 13.6509V13.9022C111.059 13.9022 111.4 13.8811 111.735 13.8389L111.704 13.5895ZM115.854 11.6644L115.967 11.7208L115.969 11.7167L115.854 11.6644ZM118.576 11.1698L118.512 11.0613L118.509 11.0633L118.576 11.1698ZM118.867 10.825L118.983 10.8743L118.984 10.8723L118.867 10.825ZM118.965 0.125662V0H118.839V0.125662H118.965ZM120.847 0.125662H120.972V0H120.847V0.125662ZM118.673 13.5906L118.645 13.4679L118.643 13.4689L118.673 13.5906ZM117.392 13.6157H116.314V13.867H117.392V13.6157ZM116.314 13.6157C116.233 13.6157 116.169 13.5956 116.116 13.5584C116.062 13.5202 116.011 13.4609 115.968 13.3694L115.741 13.477C115.798 13.5976 115.875 13.6961 115.973 13.7645C116.073 13.8338 116.188 13.867 116.314 13.867V13.6157ZM115.968 13.3694C115.874 13.1754 115.821 12.9009 115.821 12.539H115.57C115.57 12.92 115.624 13.2367 115.742 13.478L115.968 13.3694ZM115.821 12.539C115.821 12.1781 115.874 11.9087 115.967 11.7208L115.742 11.6082C115.624 11.8454 115.57 12.159 115.57 12.539H115.821ZM115.969 11.7167C116.012 11.6232 116.063 11.5609 116.118 11.5217C116.171 11.4845 116.234 11.4634 116.314 11.4634V11.212C116.187 11.212 116.072 11.2463 115.972 11.3176C115.873 11.387 115.797 11.4885 115.741 11.6122L115.969 11.7167ZM116.314 11.4634H117.48V11.212H116.314V11.4634ZM117.48 11.4634C117.719 11.4634 117.932 11.4543 118.119 11.4362L118.096 11.1859C117.919 11.203 117.713 11.212 117.48 11.212V11.4634ZM118.119 11.4362C118.321 11.4171 118.497 11.3659 118.642 11.2764L118.509 11.0633C118.407 11.1266 118.271 11.1698 118.096 11.1859L118.119 11.4362ZM118.64 11.2784C118.795 11.1869 118.91 11.0492 118.983 10.8743L118.752 10.7768C118.696 10.9074 118.616 11 118.512 11.0613L118.64 11.2784ZM118.984 10.8723C119.057 10.6923 119.091 10.452 119.091 10.1625H118.839C118.839 10.4379 118.807 10.641 118.751 10.7777L118.984 10.8723ZM119.091 10.1625V0.125662H118.839V10.1625H119.091ZM118.965 0.251324H120.847V0H118.965V0.251324ZM120.721 0.125662V10.2248H120.972V0.125662H120.721ZM120.721 10.2248C120.721 10.9336 120.625 11.5036 120.44 11.9429L120.671 12.0414C120.874 11.5619 120.972 10.9527 120.972 10.2248H120.721ZM120.44 11.9419C120.252 12.3802 120.004 12.719 119.699 12.9623L119.857 13.1593C120.199 12.8849 120.47 12.5099 120.671 12.0414L120.44 11.9419ZM119.699 12.9623C119.396 13.2086 119.045 13.3785 118.645 13.4679L118.7 13.7132C119.137 13.6147 119.523 13.4307 119.857 13.1593L119.699 12.9623ZM118.643 13.4689C118.241 13.5664 117.824 13.6157 117.392 13.6157V13.867C117.843 13.867 118.28 13.8158 118.702 13.7132L118.643 13.4689ZM123.498 13.5202H123.372V13.6459H123.498V13.5202ZM123.498 0.125662V0H123.372V0.125662H123.498ZM125.38 0.125662H125.505V0H125.38V0.125662ZM125.38 13.5202V13.6459H125.505V13.5202H125.38ZM123.623 13.5202V0.125662H123.372V13.5202H123.623ZM123.498 0.251324H125.38V0H123.498V0.251324ZM125.254 0.125662V13.5202H125.505V0.125662H125.254ZM125.38 13.3946H123.498V13.6459H125.38V13.3946ZM142.123 12.9462V12.8205H142.016L141.999 12.9251L142.123 12.9462ZM133.349 8.96122V8.83556H133.245L133.226 8.93704L133.349 8.96122ZM135.204 8.96122L135.328 8.98128L135.353 8.83556H135.204V8.96122ZM135.055 9.89712L134.93 9.87902V9.88104L135.055 9.89712ZM134.966 10.6129L134.841 10.5998L134.84 10.6029L134.966 10.6129ZM138.986 13.9887L138.946 13.869L138.944 13.8701L138.986 13.9887ZM140.595 0.125662V0H140.469V0.125662H140.595ZM142.477 0.125662H142.602V0H142.477V0.125662ZM142.671 10.8964L142.563 10.9618L142.567 10.9668L142.671 10.8964ZM143.121 11.2322L143.077 11.3488L143.081 11.3508L143.121 11.2322ZM143.988 11.3377H144.113V11.212H143.988V11.3377ZM143.988 13.7414V13.867H144.113V13.7414H143.988ZM142.768 13.5554L142.825 13.4428H142.823L142.768 13.5554ZM142.193 12.9462L142.307 12.8909L142.272 12.8205H142.193V12.9462ZM141.999 12.9251C141.796 14.1516 141.311 15.0442 140.554 15.6203L140.705 15.8204C141.527 15.1951 142.037 14.238 142.247 12.9663L141.999 12.9251ZM140.554 15.6203C139.793 16.1993 138.745 16.4959 137.396 16.4959V16.7472C138.779 16.7472 139.888 16.4426 140.705 15.8204L140.554 15.6203ZM137.396 16.4959C136.617 16.4959 135.961 16.3943 135.426 16.1943L135.337 16.4295C135.909 16.6426 136.597 16.7472 137.396 16.7472V16.4959ZM135.426 16.1943C134.89 15.9952 134.457 15.7007 134.125 15.3116L133.934 15.4755C134.297 15.8998 134.766 16.2174 135.337 16.4295L135.426 16.1943ZM134.125 15.3116C133.792 14.9216 133.546 14.436 133.391 13.85L133.149 13.9143C133.311 14.5306 133.573 15.0523 133.934 15.4755L134.125 15.3116ZM133.391 13.85C133.235 13.2679 133.157 12.5873 133.157 11.8062H132.905C132.905 12.6034 132.986 13.3061 133.149 13.9143L133.391 13.85ZM133.157 11.8062C133.157 11.4101 133.18 10.9939 133.227 10.5556L132.977 10.5295C132.929 10.9748 132.905 11.401 132.905 11.8062H133.157ZM133.227 10.5556C133.273 10.1183 133.355 9.59551 133.472 8.98429L133.226 8.93704C133.107 9.55229 133.024 10.0831 132.977 10.5295L133.227 10.5556ZM133.349 9.08688H135.204V8.83556H133.349V9.08688ZM135.081 8.94005C135.021 9.29392 134.971 9.60658 134.93 9.87902L135.178 9.9162C135.219 9.64578 135.27 9.33515 135.328 8.98128L135.081 8.94005ZM134.93 9.88104C134.895 10.1464 134.865 10.3867 134.841 10.5998L135.091 10.627C135.114 10.4159 135.144 10.1786 135.179 9.91424L134.93 9.88104ZM134.84 10.6029C134.823 10.81 134.811 10.9979 134.805 11.1658L135.057 11.1748C135.062 11.012 135.074 10.8291 135.091 10.624L134.84 10.6029ZM134.805 11.1648C134.799 11.3256 134.796 11.4805 134.796 11.6293H135.048C135.048 11.4835 135.051 11.3327 135.057 11.1748L134.805 11.1648ZM134.796 11.6293C134.796 12.0726 134.835 12.4626 134.915 12.7984L135.159 12.7401C135.085 12.4285 135.048 12.0585 135.048 11.6293H134.796ZM134.915 12.7984C134.995 13.1392 135.139 13.4278 135.35 13.658L135.536 13.4881C135.358 13.294 135.232 13.0467 135.159 12.7401L134.915 12.7984ZM135.35 13.658C135.563 13.8902 135.846 14.056 136.193 14.1616L136.267 13.9213C135.954 13.8268 135.712 13.6811 135.536 13.4881L135.35 13.658ZM136.192 14.1616C136.544 14.2722 136.985 14.3265 137.511 14.3265V14.0751C137 14.0751 136.587 14.0228 136.267 13.9213L136.192 14.1616ZM137.511 14.3265C138.109 14.3265 138.616 14.2541 139.029 14.1063L138.944 13.8701C138.567 14.0048 138.091 14.0751 137.511 14.0751V14.3265ZM139.027 14.1073C139.447 13.9655 139.787 13.7373 140.039 13.4217L139.843 13.2648C139.624 13.5383 139.326 13.7404 138.946 13.869L139.027 14.1073ZM140.039 13.4217C140.289 13.109 140.464 12.713 140.567 12.2395L140.321 12.1862C140.224 12.6305 140.063 12.9884 139.843 13.2648L140.039 13.4217ZM140.567 12.2395C140.669 11.763 140.72 11.197 140.72 10.5425H140.469C140.469 11.1849 140.419 11.7318 140.321 12.1862L140.567 12.2395ZM140.72 10.5425V0.125662H140.469V10.5425H140.72ZM140.595 0.251324H142.477V0H140.595V0.251324ZM142.351 0.125662V9.51811H142.602V0.125662H142.351ZM142.351 9.51811C142.351 9.83176 142.359 10.1062 142.377 10.3404L142.629 10.3214C142.61 10.0952 142.602 9.82774 142.602 9.51811H142.351ZM142.377 10.3404C142.396 10.5797 142.457 10.7878 142.563 10.9618L142.777 10.83C142.696 10.6973 142.645 10.5305 142.629 10.3214L142.377 10.3404ZM142.567 10.9668C142.684 11.1397 142.857 11.2654 143.077 11.3488L143.166 11.1145C142.985 11.0452 142.858 10.9476 142.774 10.825L142.567 10.9668ZM143.081 11.3508C143.306 11.4282 143.611 11.4634 143.988 11.4634V11.212C143.622 11.212 143.349 11.1768 143.162 11.1125L143.081 11.3508ZM143.862 11.3377V13.7414H144.113V11.3377H143.862ZM143.988 13.6157H143.616V13.867H143.988V13.6157ZM143.616 13.6157C143.314 13.6157 143.052 13.5574 142.825 13.4428L142.712 13.668C142.979 13.8017 143.281 13.867 143.616 13.867V13.6157ZM142.823 13.4428C142.611 13.3392 142.438 13.1593 142.307 12.8909L142.081 13.0015C142.231 13.3101 142.442 13.5363 142.713 13.669L142.823 13.4428ZM142.193 12.8205H142.123V13.0719H142.193V12.8205ZM143.527 13.4227L143.642 13.3694L143.641 13.3684L143.527 13.4227ZM143.527 11.6644L143.64 11.7208L143.642 11.7167L143.527 11.6644ZM145.887 11.3116L145.9 11.4362H145.904L145.887 11.3116ZM146.558 10.8169L146.44 10.7768L146.439 10.7798L146.558 10.8169ZM146.638 5.96539V5.83973H146.512V5.96539H146.638ZM148.52 5.96539H148.645V5.83973H148.52V5.96539ZM148.715 10.9044L148.608 10.9728L148.61 10.9758L148.715 10.9044ZM150.031 11.3377H150.156V11.212H150.031V11.3377ZM150.031 13.7414V13.867H150.156V13.7414H150.031ZM148.307 13.5021L148.256 13.6167L148.257 13.6177L148.307 13.5021ZM147.504 12.725L147.617 12.6708L147.583 12.5993H147.504V12.725ZM147.451 12.725V12.5993H147.388L147.349 12.6496L147.451 12.725ZM146.346 13.5383L146.303 13.4197L146.302 13.4207L146.346 13.5383ZM146.435 16.7985V16.9241H146.56V16.7985H146.435ZM144.359 16.7985H144.233V16.9241H144.359V16.7985ZM144.359 14.9337V14.808H144.233V14.9337H144.359ZM146.435 14.9337H146.56V14.808H146.435V14.9337ZM149.457 16.7985V16.9241H149.582V16.7985H149.457ZM147.381 16.7985H147.255V16.9241H147.381V16.7985ZM147.381 14.9337V14.808H147.255V14.9337H147.381ZM149.457 14.9337H149.582V14.808H149.457V14.9337ZM145.154 13.6157H143.988V13.867H145.154V13.6157ZM143.988 13.6157C143.907 13.6157 143.843 13.5956 143.79 13.5584C143.735 13.5202 143.684 13.4609 143.642 13.3694L143.414 13.477C143.471 13.5976 143.547 13.6961 143.646 13.7645C143.746 13.8338 143.861 13.867 143.988 13.867V13.6157ZM143.641 13.3684C143.546 13.1744 143.494 12.9009 143.494 12.539H143.243C143.243 12.92 143.297 13.2367 143.415 13.478L143.641 13.3684ZM143.494 12.539C143.494 12.1781 143.546 11.9087 143.64 11.7208L143.416 11.6082C143.297 11.8454 143.243 12.159 143.243 12.539H143.494ZM143.642 11.7167C143.685 11.6232 143.736 11.5609 143.791 11.5217C143.844 11.4845 143.907 11.4634 143.988 11.4634V11.212C143.861 11.212 143.744 11.2463 143.645 11.3176C143.546 11.387 143.47 11.4885 143.414 11.6122L143.642 11.7167ZM143.988 11.4634H145.242V11.212H143.988V11.4634ZM145.242 11.4634C145.498 11.4634 145.717 11.4543 145.9 11.4362L145.875 11.1859C145.703 11.203 145.493 11.212 145.242 11.212V11.4634ZM145.904 11.4362C146.094 11.4101 146.259 11.3558 146.39 11.2643L146.249 11.0572C146.157 11.1196 146.033 11.1648 145.871 11.1869L145.904 11.4362ZM146.39 11.2643C146.53 11.1698 146.625 11.0291 146.679 10.8531L146.439 10.7798C146.398 10.9105 146.333 10.9999 146.249 11.0572L146.39 11.2643ZM146.678 10.8562C146.737 10.6792 146.763 10.445 146.763 10.1625H146.512C146.512 10.4339 146.486 10.636 146.44 10.7768L146.678 10.8562ZM146.763 10.1625V5.96539H146.512V10.1625H146.763ZM146.638 6.09105H148.52V5.83973H146.638V6.09105ZM148.394 5.96539V9.55333H148.645V5.96539H148.394ZM148.394 9.55333C148.394 9.86195 148.403 10.1303 148.421 10.3585L148.671 10.3385C148.654 10.1183 148.645 9.85693 148.645 9.55333H148.394ZM148.421 10.3585C148.44 10.5968 148.5 10.8039 148.608 10.9728L148.82 10.8371C148.74 10.7114 148.688 10.5476 148.671 10.3385L148.421 10.3585ZM148.61 10.9758C148.729 11.1487 148.903 11.2724 149.123 11.3508L149.207 11.1136C149.026 11.0502 148.901 10.9557 148.818 10.8341L148.61 10.9758ZM149.123 11.3508C149.349 11.4282 149.655 11.4634 150.031 11.4634V11.212C149.666 11.212 149.392 11.1768 149.205 11.1125L149.123 11.3508ZM149.905 11.3377V13.7414H150.156V11.3377H149.905ZM150.031 13.6157H149.624V13.867H150.031V13.6157ZM149.624 13.6157C149.125 13.6157 148.704 13.5383 148.358 13.3875L148.257 13.6177C148.642 13.7856 149.1 13.867 149.624 13.867V13.6157ZM148.36 13.3885C148.021 13.2347 147.775 12.9965 147.617 12.6708L147.391 12.7793C147.575 13.1603 147.865 13.4398 148.256 13.6167L148.36 13.3885ZM147.504 12.5993H147.451V12.8507H147.504V12.5993ZM147.349 12.6496C147.204 12.8466 147.043 13.0045 146.867 13.1251L147.01 13.3322C147.211 13.1935 147.392 13.0156 147.551 12.8004L147.349 12.6496ZM146.867 13.1251C146.687 13.2488 146.499 13.3473 146.303 13.4197L146.39 13.6559C146.606 13.5755 146.813 13.4669 147.01 13.3322L146.867 13.1251ZM146.302 13.4207C146.11 13.4941 145.916 13.5443 145.719 13.5725L145.754 13.8218C145.97 13.7906 146.182 13.7353 146.391 13.6549L146.302 13.4207ZM145.719 13.5725C145.518 13.6016 145.33 13.6157 145.154 13.6157V13.867C145.343 13.867 145.543 13.852 145.754 13.8218L145.719 13.5725ZM146.435 16.6728H144.359V16.9241H146.435V16.6728ZM144.484 16.7985V14.9337H144.233V16.7985H144.484ZM144.359 15.0593H146.435V14.808H144.359V15.0593ZM146.309 14.9337V16.7985H146.56V14.9337H146.309ZM149.457 16.6728H147.381V16.9241H149.457V16.6728ZM147.506 16.7985V14.9337H147.255V16.7985H147.506ZM147.381 15.0593H149.457V14.808H147.381V15.0593ZM149.331 14.9337V16.7985H149.582V14.9337H149.331ZM157.241 8.86366H157.366V8.79328L157.306 8.75714L157.241 8.86366ZM156.481 8.45753L156.428 8.57116L156.429 8.57215L156.481 8.45753ZM154.873 8.0333L154.858 8.15798H154.86L154.873 8.0333ZM151.541 8.28063H151.416V8.44446L151.575 8.40224L151.541 8.28063ZM151.541 6.05387L151.508 5.93324L151.416 5.9584V6.05387H151.541ZM157.947 6.99983L157.891 7.11145L157.893 7.11243L157.947 6.99983ZM160.342 7.46732L160.466 7.48843L160.489 7.35068L160.35 7.34264L160.342 7.46732ZM159.909 10.0389L159.94 10.1605L160.019 10.1404L160.033 10.06L159.909 10.0389ZM158.301 10.8522L158.234 10.7456L158.16 10.7928L158.177 10.8773L158.301 10.8522ZM158.602 11.2673L158.551 11.383L158.561 11.386L158.602 11.2673ZM158.937 11.3287L158.926 11.4543H158.931L158.937 11.3287ZM160.607 11.3377H160.733V11.212H160.607V11.3377ZM160.607 13.7414V13.867H160.733V13.7414H160.607ZM158.733 13.5826L158.771 13.4619L158.769 13.4609L158.733 13.5826ZM157.877 13.1583L157.794 13.2528L157.797 13.2558L157.877 13.1583ZM157.108 11.6202L157.231 11.5981L157.198 11.4161L157.041 11.5137L157.108 11.6202ZM152.46 13.5464L152.437 13.4237H152.435L152.46 13.5464ZM149.571 11.6644L149.684 11.7208L149.686 11.7167L149.571 11.6644ZM154.192 10.5867L154.24 10.7034L154.241 10.7024L154.192 10.5867ZM157.241 8.93404L157.308 9.04062L157.366 9.00343V8.93404H157.241ZM156.357 16.7985V16.9241H156.483V16.7985H156.357ZM154.281 16.7985H154.155V16.9241H154.281V16.7985ZM154.281 14.9337V14.808H154.155V14.9337H154.281ZM156.357 14.9337H156.483V14.808H156.357V14.9337ZM157.306 8.75714C157.043 8.59529 156.785 8.45751 156.533 8.34291L156.429 8.57215C156.672 8.68172 156.92 8.81439 157.175 8.97122L157.306 8.75714ZM156.534 8.34291C156.285 8.22831 156.025 8.13482 155.754 8.06244L155.688 8.30475C155.947 8.37411 156.193 8.46259 156.428 8.57116L156.534 8.34291ZM155.754 8.06244C155.481 7.98905 155.192 7.93783 154.885 7.90868L154.86 8.15798C155.155 8.18713 155.431 8.23639 155.688 8.30475L155.754 8.06244ZM154.888 7.90868C154.588 7.87249 154.252 7.85437 153.883 7.85437V8.1057C154.245 8.1057 154.569 8.1238 154.858 8.15798L154.888 7.90868ZM153.883 7.85437C153.455 7.85437 153.051 7.87846 152.674 7.92672L152.706 8.17608C153.072 8.12883 153.464 8.1057 153.883 8.1057V7.85437ZM152.674 7.92672C152.297 7.97396 151.908 8.0524 151.509 8.15896L151.575 8.40224C151.964 8.29769 152.341 8.22232 152.706 8.17608L152.674 7.92672ZM151.667 8.28063V6.05387H151.416V8.28063H151.667ZM151.576 6.17548C151.996 6.05786 152.392 5.96843 152.765 5.9041L152.723 5.65676C152.342 5.7221 151.936 5.81462 151.508 5.93324L151.576 6.17548ZM152.764 5.9041C153.139 5.84076 153.545 5.80856 153.98 5.80856V5.55724C153.532 5.55724 153.113 5.59041 152.723 5.65676L152.764 5.9041ZM153.98 5.80856C154.439 5.80856 154.841 5.84977 155.189 5.92919L155.245 5.68394C154.875 5.5995 154.453 5.55724 153.98 5.55724V5.80856ZM155.189 5.92919C155.543 6.01062 155.868 6.11416 156.167 6.24083L156.264 6.00865C155.951 5.87595 155.611 5.76839 155.245 5.68394L155.189 5.92919ZM156.167 6.24083C156.469 6.3685 156.757 6.50826 157.029 6.65905L157.151 6.4389C156.871 6.28307 156.575 6.14034 156.264 6.00865L156.167 6.24083ZM157.029 6.65905C157.308 6.81286 157.595 6.96367 157.891 7.11145L158.004 6.88724C157.711 6.74047 157.427 6.5917 157.151 6.4389L157.029 6.65905ZM157.893 7.11243C158.045 7.18581 158.204 7.24919 158.367 7.30448L158.447 7.06622C158.292 7.01495 158.144 6.95462 158.002 6.88626L157.893 7.11243ZM158.367 7.30448C158.532 7.35977 158.711 7.405 158.905 7.44119L158.952 7.19385C158.768 7.15967 158.6 7.11649 158.447 7.06622L158.367 7.30448ZM158.905 7.44119C159.103 7.47738 159.319 7.50753 159.552 7.53065L159.577 7.28135C159.351 7.25722 159.143 7.22904 158.952 7.19385L158.905 7.44119ZM159.552 7.53065C159.783 7.55477 160.044 7.5759 160.334 7.59299L160.35 7.34264C160.062 7.32455 159.805 7.30447 159.577 7.28135L159.552 7.53065ZM160.218 7.4472L159.785 10.0178L160.033 10.06L160.466 7.48843L160.218 7.4472ZM159.877 9.91725C159.635 9.97957 159.376 10.0871 159.098 10.2379L159.217 10.4591C159.481 10.3153 159.723 10.2168 159.94 10.1605L159.877 9.91725ZM159.099 10.2369C158.831 10.3807 158.542 10.5496 158.234 10.7456L158.368 10.9577C158.672 10.7647 158.956 10.5988 159.217 10.4591L159.099 10.2369ZM158.177 10.8773C158.204 10.9999 158.244 11.1065 158.305 11.1909L158.508 11.0432C158.475 10.9969 158.445 10.9276 158.424 10.826L158.177 10.8773ZM158.305 11.1909C158.367 11.2764 158.451 11.3397 158.551 11.383L158.651 11.1517C158.587 11.1246 158.54 11.0874 158.508 11.0432L158.305 11.1909ZM158.561 11.386C158.662 11.4202 158.785 11.4423 158.926 11.4543L158.948 11.204C158.818 11.1929 158.717 11.1729 158.641 11.1477L158.561 11.386ZM158.931 11.4543C159.069 11.4604 159.242 11.4634 159.449 11.4634V11.212C159.244 11.212 159.075 11.209 158.942 11.203L158.931 11.4543ZM159.449 11.4634H160.607V11.212H159.449V11.4634ZM160.482 11.3377V13.7414H160.733V11.3377H160.482ZM160.607 13.6157H160.041V13.867H160.607V13.6157ZM160.041 13.6157C159.525 13.6157 159.102 13.5635 158.771 13.4619L158.697 13.7022C159.06 13.8128 159.509 13.867 160.041 13.867V13.6157ZM158.769 13.4609C158.434 13.3644 158.164 13.2297 157.956 13.0608L157.797 13.2558C158.037 13.4508 158.339 13.5986 158.699 13.7032L158.769 13.4609ZM157.959 13.0628C157.754 12.8859 157.597 12.6768 157.488 12.4345L157.259 12.538C157.384 12.8145 157.563 13.0528 157.794 13.2528L157.959 13.0628ZM157.488 12.4345C157.374 12.1862 157.289 11.9067 157.231 11.5981L156.984 11.6433C157.045 11.97 157.136 12.2686 157.259 12.538L157.488 12.4345ZM157.041 11.5137C156.638 11.766 156.199 12.0173 155.724 12.2696L155.841 12.4918C156.32 12.2364 156.765 11.9821 157.174 11.7268L157.041 11.5137ZM155.725 12.2696C155.258 12.5139 154.75 12.7381 154.202 12.9432L154.289 13.1784C154.847 12.9703 155.365 12.7421 155.841 12.4918L155.725 12.2696ZM154.202 12.9432C153.661 13.1402 153.073 13.3011 152.437 13.4237L152.484 13.67C153.132 13.5453 153.734 13.3815 154.289 13.1784L154.202 12.9432ZM152.435 13.4237C151.809 13.5514 151.133 13.6157 150.411 13.6157V13.867C151.148 13.867 151.84 13.8017 152.485 13.67L152.435 13.4237ZM150.411 13.6157H150.031V13.867H150.411V13.6157ZM150.031 13.6157C149.95 13.6157 149.886 13.5956 149.832 13.5584C149.778 13.5202 149.728 13.4609 149.685 13.3694L149.458 13.477C149.515 13.5976 149.591 13.6961 149.69 13.7645C149.789 13.8338 149.905 13.867 150.031 13.867V13.6157ZM149.685 13.3694C149.59 13.1754 149.538 12.9009 149.538 12.539H149.287C149.287 12.92 149.341 13.2367 149.459 13.478L149.685 13.3694ZM149.538 12.539C149.538 12.1781 149.59 11.9087 149.684 11.7208L149.459 11.6082C149.341 11.8454 149.287 12.159 149.287 12.539H149.538ZM149.686 11.7167C149.729 11.6232 149.78 11.5609 149.834 11.5217C149.888 11.4845 149.951 11.4634 150.031 11.4634V11.212C149.904 11.212 149.788 11.2463 149.689 11.3176C149.589 11.387 149.514 11.4885 149.458 11.6122L149.686 11.7167ZM150.031 11.4634H150.49V11.212H150.031V11.4634ZM150.49 11.4634C151.188 11.4634 151.848 11.395 152.47 11.2573L152.416 11.012C151.813 11.1457 151.172 11.212 150.49 11.212V11.4634ZM152.47 11.2573C153.089 11.1146 153.68 10.9296 154.24 10.7034L154.145 10.4701C153.598 10.6913 153.021 10.8723 152.415 11.012L152.47 11.2573ZM154.241 10.7024C154.799 10.4712 155.33 10.2128 155.836 9.92731L155.712 9.70912C155.216 9.98859 154.693 10.2429 154.144 10.4711L154.241 10.7024ZM155.836 9.92731C156.345 9.63778 156.835 9.34221 157.308 9.04062L157.173 8.8285C156.704 9.12808 156.217 9.4216 155.712 9.70912L155.836 9.92731ZM157.366 8.93404V8.86366H157.115V8.93404H157.366ZM156.357 16.6728H154.281V16.9241H156.357V16.6728ZM154.407 16.7985V14.9337H154.155V16.7985H154.407ZM154.281 15.0593H156.357V14.808H154.281V15.0593ZM156.231 14.9337V16.7985H156.483V14.9337H156.231ZM164.08 12.7431V12.6174H164.022L163.985 12.6597L164.08 12.7431ZM163.532 13.2196L163.463 13.1141L163.462 13.1151L163.532 13.2196ZM162.921 13.5292L162.879 13.4106L162.878 13.4117L162.921 13.5292ZM162.294 13.6881L162.277 13.5635L162.273 13.5645L162.294 13.6881ZM160.156 13.4227L160.27 13.3694L160.269 13.3684L160.156 13.4227ZM160.156 11.6644L160.268 11.7208L160.27 11.7167L160.156 11.6644ZM162.268 11.3025L162.252 11.1779H162.251L162.268 11.3025ZM163.126 10.7898L163.23 10.8592L163.231 10.8572L163.126 10.7898ZM163.275 7.6533V7.52764H163.15V7.6533H163.275ZM165.148 7.6533H165.274V7.52764H165.148V7.6533ZM165.325 10.9135L165.216 10.9748L165.217 10.9768L165.325 10.9135ZM166.934 11.3116L166.947 11.4362L166.951 11.4353L166.934 11.3116ZM167.366 11.1608L167.303 11.0532L167.301 11.0542L167.366 11.1608ZM167.676 10.8169L167.564 10.7587L167.563 10.7607L167.676 10.8169ZM167.799 7.6533V7.52764H167.673V7.6533H167.799ZM169.681 7.6533H169.807V7.52764H169.681V7.6533ZM169.858 10.9044L169.748 10.9668L169.75 10.9698L169.858 10.9044ZM170.264 11.2322L170.219 11.3488L170.22 11.3498L170.264 11.2322ZM171.554 11.3116L171.541 11.1859L171.54 11.1869L171.554 11.3116ZM171.961 11.1698L172.031 11.2734H172.032L171.961 11.1698ZM172.235 10.8169L172.35 10.8652L172.351 10.8642L172.235 10.8169ZM172.332 5.96539V5.83973H172.206V5.96539H172.332ZM174.214 5.96539H174.34V5.83973H174.214V5.96539ZM174.408 10.8873L174.301 10.9527L174.304 10.9577L174.408 10.8873ZM175.725 11.3377H175.851V11.212H175.725V11.3377ZM175.725 13.7414V13.867H175.851V13.7414H175.725ZM173.286 12.8306L173.393 12.7642L173.3 12.6185L173.19 12.7502L173.286 12.8306ZM172.782 13.282L172.714 13.1764L172.713 13.1774L172.782 13.282ZM172.225 13.5554L172.186 13.4368L172.183 13.4378L172.225 13.5554ZM171.625 13.6972L171.611 13.5725H171.607L171.625 13.6972ZM170.353 13.6881L170.373 13.5635H170.369L170.353 13.6881ZM169.716 13.5292L169.762 13.4117L169.758 13.4106L169.716 13.5292ZM168.718 12.7431L168.825 12.6748L168.787 12.6174H168.718V12.7431ZM168.683 12.7431V12.6174H168.624L168.586 12.6617L168.683 12.7431ZM168.144 13.2196L168.076 13.1141L168.074 13.1151L168.144 13.2196ZM167.534 13.5292L167.492 13.4106L167.491 13.4117L167.534 13.5292ZM166.915 13.6881L166.897 13.5635L166.894 13.5645L166.915 13.6881ZM164.115 12.7431L164.221 12.6757L164.184 12.6174H164.115V12.7431ZM163.985 12.6597C163.827 12.8396 163.653 12.9914 163.463 13.1141L163.6 13.3252C163.81 13.1895 164.002 13.0226 164.174 12.8256L163.985 12.6597ZM163.462 13.1151C163.275 13.2397 163.081 13.3382 162.879 13.4106L162.965 13.6469C163.187 13.5674 163.399 13.4589 163.601 13.3242L163.462 13.1151ZM162.878 13.4117C162.68 13.4851 162.48 13.5353 162.277 13.5635L162.312 13.8128C162.533 13.7816 162.751 13.7263 162.965 13.6469L162.878 13.4117ZM162.273 13.5645C162.073 13.5986 161.883 13.6157 161.703 13.6157V13.867C161.899 13.867 162.103 13.8479 162.316 13.8117L162.273 13.5645ZM161.703 13.6157H160.616V13.867H161.703V13.6157ZM160.616 13.6157C160.536 13.6157 160.472 13.5956 160.418 13.5584C160.364 13.5202 160.313 13.4609 160.27 13.3694L160.042 13.477C160.1 13.5976 160.176 13.6961 160.275 13.7645C160.375 13.8338 160.49 13.867 160.616 13.867V13.6157ZM160.269 13.3684C160.175 13.1744 160.123 12.9009 160.123 12.539H159.871C159.871 12.92 159.926 13.2367 160.043 13.478L160.269 13.3684ZM160.123 12.539C160.123 12.1781 160.175 11.9087 160.268 11.7208L160.044 11.6082C159.926 11.8454 159.871 12.159 159.871 12.539H160.123ZM160.27 11.7167C160.314 11.6232 160.365 11.5609 160.419 11.5217C160.473 11.4845 160.536 11.4634 160.616 11.4634V11.212C160.49 11.212 160.373 11.2463 160.274 11.3176C160.175 11.387 160.099 11.4885 160.042 11.6122L160.27 11.7167ZM160.616 11.4634H161.791V11.212H160.616V11.4634ZM161.791 11.4634C161.945 11.4634 162.11 11.4513 162.285 11.4272L162.251 11.1779C162.085 11.201 161.931 11.212 161.791 11.212V11.4634ZM162.285 11.4272C162.476 11.4011 162.654 11.3437 162.816 11.2533L162.692 11.0341C162.56 11.1085 162.414 11.1567 162.252 11.1779L162.285 11.4272ZM162.816 11.2533C162.982 11.1598 163.121 11.0271 163.23 10.8592L163.02 10.7215C162.929 10.8592 162.821 10.9617 162.692 11.0341L162.816 11.2533ZM163.231 10.8572C163.348 10.6712 163.401 10.4369 163.401 10.1625H163.15C163.15 10.4068 163.102 10.5908 163.019 10.7235L163.231 10.8572ZM163.401 10.1625V7.6533H163.15V10.1625H163.401ZM163.275 7.77896H165.148V7.52764H163.275V7.77896ZM165.023 7.6533V9.57947H165.274V7.6533H165.023ZM165.023 9.57947C165.023 9.88206 165.032 10.1475 165.05 10.3757L165.3 10.3555C165.283 10.1364 165.274 9.87804 165.274 9.57947H165.023ZM165.05 10.3757C165.069 10.6069 165.122 10.8079 165.216 10.9748L165.435 10.8522C165.363 10.7245 165.317 10.5606 165.3 10.3555L165.05 10.3757ZM165.217 10.9768C165.315 11.1447 165.464 11.2683 165.657 11.3478L165.753 11.1155C165.605 11.0542 165.501 10.9647 165.434 10.8501L165.217 10.9768ZM165.657 11.3478C165.85 11.4282 166.107 11.4634 166.421 11.4634V11.212C166.121 11.212 165.902 11.1768 165.753 11.1155L165.657 11.3478ZM166.421 11.4634C166.602 11.4634 166.777 11.4543 166.947 11.4362L166.92 11.1859C166.76 11.204 166.594 11.212 166.421 11.212V11.4634ZM166.951 11.4353C167.131 11.4101 167.291 11.3548 167.432 11.2684L167.301 11.0542C167.193 11.1206 167.065 11.1658 166.915 11.1869L166.951 11.4353ZM167.43 11.2693C167.583 11.1789 167.702 11.0442 167.788 10.8723L167.563 10.7607C167.496 10.8954 167.408 10.9899 167.303 11.0532L167.43 11.2693ZM167.787 10.8743C167.883 10.6903 167.925 10.45 167.925 10.1625H167.673C167.673 10.4289 167.633 10.6249 167.564 10.7587L167.787 10.8743ZM167.925 10.1625V7.6533H167.673V10.1625H167.925ZM167.799 7.77896H169.681V7.52764H167.799V7.77896ZM169.555 7.6533V9.55333H169.807V7.6533H169.555ZM169.555 9.55333C169.555 9.86195 169.564 10.1303 169.583 10.3585L169.833 10.3385C169.816 10.1183 169.807 9.85693 169.807 9.55333H169.555ZM169.583 10.3585C169.601 10.5948 169.655 10.7989 169.748 10.9668L169.968 10.8431C169.896 10.7164 169.85 10.5496 169.833 10.3385L169.583 10.3585ZM169.75 10.9698C169.855 11.1437 170.014 11.2694 170.219 11.3488L170.309 11.1145C170.15 11.0522 170.038 10.9597 169.966 10.8401L169.75 10.9698ZM170.22 11.3498C170.429 11.4282 170.708 11.4634 171.05 11.4634V11.212C170.722 11.212 170.476 11.1769 170.308 11.1145L170.22 11.3498ZM171.05 11.4634C171.237 11.4634 171.41 11.4543 171.569 11.4362L171.54 11.1869C171.392 11.203 171.229 11.212 171.05 11.212V11.4634ZM171.569 11.4362C171.745 11.4171 171.9 11.3639 172.031 11.2734L171.89 11.0663C171.797 11.1296 171.683 11.1708 171.541 11.1859L171.569 11.4362ZM172.032 11.2734C172.173 11.1749 172.278 11.0371 172.35 10.8652L172.119 10.7677C172.062 10.9024 171.984 10.9999 171.889 11.0673L172.032 11.2734ZM172.351 10.8642C172.425 10.6832 172.458 10.447 172.458 10.1625H172.206C172.206 10.4319 172.174 10.632 172.118 10.7687L172.351 10.8642ZM172.458 10.1625V5.96539H172.206V10.1625H172.458ZM172.332 6.09105H174.214V5.83973H172.332V6.09105ZM174.088 5.96539V9.50001H174.34V5.96539H174.088ZM174.088 9.50001C174.088 9.81467 174.097 10.0891 174.115 10.3223L174.366 10.3033C174.349 10.0781 174.34 9.80964 174.34 9.50001H174.088ZM174.115 10.3223C174.134 10.5666 174.194 10.7788 174.301 10.9527L174.516 10.821C174.434 10.6893 174.382 10.5184 174.366 10.3033L174.115 10.3223ZM174.304 10.9577C174.422 11.1306 174.595 11.2563 174.814 11.3407L174.904 11.1055C174.723 11.0361 174.595 10.9386 174.513 10.8169L174.304 10.9577ZM174.814 11.3407C175.04 11.4251 175.348 11.4634 175.725 11.4634V11.212C175.36 11.212 175.09 11.1739 174.904 11.1055L174.814 11.3407ZM175.599 11.3377V13.7414H175.851V11.3377H175.599ZM175.725 13.6157H175.319V13.867H175.725V13.6157ZM175.319 13.6157C174.846 13.6157 174.457 13.5493 174.147 13.4217L174.051 13.6539C174.401 13.7977 174.824 13.867 175.319 13.867V13.6157ZM174.147 13.4217C173.844 13.297 173.592 13.0799 173.393 12.7642L173.18 12.8979C173.405 13.2538 173.694 13.5071 174.051 13.6539L174.147 13.4217ZM173.19 12.7502C173.044 12.9241 172.885 13.0658 172.714 13.1764L172.851 13.3875C173.045 13.2618 173.222 13.103 173.383 12.912L173.19 12.7502ZM172.713 13.1774C172.545 13.289 172.369 13.3754 172.186 13.4368L172.266 13.675C172.471 13.6067 172.667 13.5102 172.852 13.3865L172.713 13.1774ZM172.183 13.4378C171.998 13.5052 171.807 13.5494 171.611 13.5725L171.639 13.8218C171.856 13.7967 172.065 13.7474 172.269 13.674L172.183 13.4378ZM171.607 13.5725C171.412 13.6016 171.221 13.6157 171.033 13.6157V13.867C171.234 13.867 171.437 13.852 171.643 13.8208L171.607 13.5725ZM171.033 13.6157C170.81 13.6157 170.59 13.5977 170.373 13.5635L170.334 13.8117C170.564 13.8489 170.797 13.867 171.033 13.867V13.6157ZM170.369 13.5635C170.155 13.5353 169.953 13.4851 169.762 13.4117L169.672 13.6469C169.881 13.7263 170.103 13.7816 170.337 13.8128L170.369 13.5635ZM169.758 13.4106C169.57 13.3443 169.397 13.2508 169.236 13.1281L169.084 13.3292C169.265 13.4659 169.462 13.5725 169.675 13.6479L169.758 13.4106ZM169.236 13.1281C169.078 13.0085 168.94 12.8577 168.825 12.6748L168.612 12.8105C168.743 13.0166 168.9 13.1895 169.084 13.3292L169.236 13.1281ZM168.718 12.6174H168.683V12.8688H168.718V12.6174ZM168.586 12.6617C168.436 12.8406 168.265 12.9914 168.076 13.1141L168.212 13.3252C168.423 13.1885 168.612 13.0216 168.778 12.8236L168.586 12.6617ZM168.074 13.1151C167.888 13.2397 167.694 13.3382 167.492 13.4106L167.577 13.6469C167.799 13.5674 168.011 13.4589 168.213 13.3242L168.074 13.1151ZM167.491 13.4117C167.292 13.4851 167.094 13.5353 166.897 13.5635L166.934 13.8128C167.149 13.7816 167.364 13.7263 167.578 13.6469L167.491 13.4117ZM166.894 13.5645C166.694 13.5986 166.507 13.6157 166.332 13.6157V13.867C166.523 13.867 166.725 13.8479 166.937 13.8117L166.894 13.5645ZM166.332 13.6157C165.808 13.6157 165.377 13.5403 165.039 13.3955L164.94 13.6268C165.32 13.7886 165.786 13.867 166.332 13.867V13.6157ZM165.039 13.3955C164.705 13.2538 164.432 13.0155 164.221 12.6757L164.008 12.8095C164.244 13.1885 164.555 13.4629 164.94 13.6268L165.039 13.3955ZM164.115 12.6174H164.08V12.8688H164.115V12.6174ZM175.265 13.4227L175.379 13.3694L175.378 13.3684L175.265 13.4227ZM175.265 11.6644L175.378 11.7208L175.379 11.7167L175.265 11.6644ZM178.031 11.1698L177.963 11.0643L177.96 11.0663L178.031 11.1698ZM178.287 10.825L178.169 10.7818V10.7838L178.287 10.825ZM178.376 5.96539V5.83973H178.25V5.96539H178.376ZM180.258 5.96539H180.383V5.83973H180.258V5.96539ZM179.974 11.9912L179.859 11.9439L179.858 11.9449L179.974 11.9912ZM179.232 13.0608L179.152 12.9643L179.151 12.9653L179.232 13.0608ZM178.852 4.19005V4.31571H178.978V4.19005H178.852ZM176.776 4.19005H176.651V4.31571H176.776V4.19005ZM176.776 2.32524V2.19958H176.651V2.32524H176.776ZM178.852 2.32524H178.978V2.19958H178.852V2.32524ZM181.874 4.19005V4.31571H182V4.19005H181.874ZM179.798 4.19005H179.673V4.31571H179.798V4.19005ZM179.798 2.32524V2.19958H179.673V2.32524H179.798ZM181.874 2.32524H182V2.19958H181.874V2.32524ZM176.891 13.6157H175.725V13.867H176.891V13.6157ZM175.725 13.6157C175.644 13.6157 175.58 13.5956 175.527 13.5584C175.473 13.5202 175.422 13.4609 175.379 13.3694L175.152 13.477C175.209 13.5976 175.285 13.6961 175.384 13.7645C175.484 13.8338 175.599 13.867 175.725 13.867V13.6157ZM175.378 13.3684C175.284 13.1744 175.232 12.9009 175.232 12.539H174.981C174.981 12.92 175.034 13.2367 175.152 13.478L175.378 13.3684ZM175.232 12.539C175.232 12.1781 175.284 11.9087 175.378 11.7208L175.153 11.6082C175.034 11.8454 174.981 12.159 174.981 12.539H175.232ZM175.379 11.7167C175.423 11.6232 175.474 11.5609 175.528 11.5217C175.581 11.4845 175.646 11.4634 175.725 11.4634V11.212C175.598 11.212 175.483 11.2463 175.382 11.3176C175.284 11.387 175.208 11.4885 175.151 11.6122L175.379 11.7167ZM175.725 11.4634H176.98V11.212H175.725V11.4634ZM176.98 11.4634C177.218 11.4634 177.429 11.4543 177.611 11.4362L177.586 11.1859C177.414 11.203 177.212 11.212 176.98 11.212V11.4634ZM177.611 11.4362C177.802 11.4171 177.968 11.3649 178.101 11.2734L177.96 11.0663C177.87 11.1276 177.748 11.1698 177.586 11.1859L177.611 11.4362ZM178.099 11.2754C178.244 11.1809 178.345 11.0421 178.406 10.8662L178.169 10.7838C178.123 10.9155 178.053 11.006 177.963 11.0643L178.099 11.2754ZM178.405 10.8692C178.471 10.6893 178.502 10.452 178.502 10.1625H178.25C178.25 10.439 178.221 10.6431 178.169 10.7818L178.405 10.8692ZM178.502 10.1625V5.96539H178.25V10.1625H178.502ZM178.376 6.09105H180.258V5.83973H178.376V6.09105ZM180.132 5.96539V10.2248H180.383V5.96539H180.132ZM180.132 10.2248C180.132 10.9336 180.039 11.5046 179.859 11.9439L180.091 12.0394C180.288 11.5599 180.383 10.9527 180.383 10.2248H180.132ZM179.858 11.9449C179.682 12.3832 179.446 12.721 179.152 12.9643L179.313 13.1573C179.644 12.8828 179.903 12.5089 180.091 12.0394L179.858 11.9449ZM179.151 12.9653C178.86 13.2106 178.523 13.3784 178.135 13.4689L178.192 13.7132C178.617 13.6147 178.991 13.4297 179.314 13.1563L179.151 12.9653ZM178.135 13.4689C177.739 13.5664 177.323 13.6157 176.891 13.6157V13.867C177.342 13.867 177.777 13.8158 178.194 13.7132L178.135 13.4689ZM178.852 4.06438H176.776V4.31571H178.852V4.06438ZM176.902 4.19005V2.32524H176.651V4.19005H176.902ZM176.776 2.4509H178.852V2.19958H176.776V2.4509ZM178.727 2.32524V4.19005H178.978V2.32524H178.727ZM181.874 4.06438H179.798V4.31571H181.874V4.06438ZM179.924 4.19005V2.32524H179.673V4.19005H179.924ZM179.798 2.4509H181.874V2.19958H179.798V2.4509ZM181.749 2.32524V4.19005H182V2.32524H181.749Z" fill="white"/>
</svg>
