<svg width="181" height="18" viewBox="0 0 181 18" fill="none" xmlns="http://www.w3.org/2000/svg">
<path d="M9.05435 12.7677C8.84912 14.0112 8.35345 14.9322 7.56734 15.5299C6.78123 16.1286 5.70779 16.428 4.34682 16.428C3.56071 16.428 2.89204 16.3248 2.3406 16.1196C1.78916 15.9143 1.34045 15.61 0.99435 15.2045C0.648251 14.8 0.395954 14.2985 0.237571 13.6998C0.0791885 13.1081 0 12.4183 0 11.6324C0 11.2329 0.0234243 10.8145 0.0703785 10.374C0.117333 9.93447 0.199429 9.40887 0.316764 8.79916H2.1646C2.10593 9.15057 2.05608 9.4619 2.01503 9.73121C1.97979 9.99551 1.95045 10.2328 1.92702 10.444C1.9094 10.6492 1.89769 10.8345 1.89179 10.9987C1.88598 11.1568 1.88307 11.3101 1.88307 11.4562C1.88307 11.8907 1.92112 12.2691 1.99741 12.5915C2.0737 12.9139 2.20865 13.1812 2.40217 13.3924C2.5958 13.6037 2.8568 13.7588 3.18528 13.859C3.51967 13.9641 3.94496 14.0172 4.46125 14.0172C5.04783 14.0172 5.53759 13.9461 5.93065 13.8059C6.32961 13.6708 6.64637 13.4565 6.88095 13.1631C7.11562 12.8698 7.28281 12.4944 7.38252 12.0368C7.48224 11.5733 7.5321 11.0197 7.5321 10.374V0H9.40636V9.35376C9.40636 9.66412 9.41517 9.93447 9.43279 10.1627C9.45041 10.386 9.50607 10.5732 9.59998 10.7264C9.6997 10.8725 9.84927 10.9837 10.0487 11.0607C10.254 11.1308 10.5415 11.1658 10.911 11.1658V13.5596H10.5415C10.2247 13.5596 9.94308 13.4975 9.6967 13.3744C9.45622 13.2573 9.2656 13.0551 9.12484 12.7677H9.05435ZM20.4757 11.9668C19.7425 12.2832 19.0532 12.5445 18.408 12.7497C17.7627 12.9549 17.138 13.1191 16.5337 13.2423C15.9354 13.3604 15.3458 13.4425 14.765 13.4885C14.1844 13.5356 13.5919 13.5596 12.9877 13.5596H10.911C10.7058 13.5596 10.5532 13.4535 10.4535 13.2423C10.3478 13.026 10.2951 12.7327 10.2951 12.3622C10.2951 11.9928 10.3478 11.7025 10.4535 11.4912C10.5532 11.275 10.7058 11.1658 10.911 11.1658H13.2076L13.2253 11.1128C12.9847 10.8845 12.7882 10.6583 12.6357 10.436C12.4832 10.2127 12.3629 9.99549 12.2749 9.78425C12.187 9.567 12.1253 9.35576 12.0902 9.15052C12.0608 8.94528 12.0461 8.74005 12.0461 8.53482C12.0461 7.95415 12.1634 7.43258 12.3981 6.96905C12.6386 6.4995 12.973 6.101 13.4012 5.77162C13.8295 5.44324 14.3368 5.19094 14.9234 5.01574C15.5101 4.83954 16.1525 4.75146 16.8506 4.75146C17.0676 4.75146 17.3022 4.76344 17.5545 4.78647C17.8067 4.80449 18.1029 4.84255 18.4432 4.90062V7.31142C18.1088 7.25936 17.7949 7.2213 17.5016 7.19727C17.2142 7.16824 16.9297 7.15322 16.6481 7.15322C16.302 7.15322 15.9647 7.16527 15.6363 7.18829C15.3136 7.21232 15.0232 7.27339 14.765 7.3735C14.5129 7.47362 14.3075 7.62279 14.1491 7.82202C13.9967 8.02125 13.9204 8.29756 13.9204 8.64896C13.9204 8.74307 13.9409 8.86921 13.9819 9.02739C14.0289 9.18057 14.1198 9.35579 14.2548 9.55602C14.3955 9.74924 14.595 9.96645 14.853 10.2067C15.1112 10.441 15.4514 10.6853 15.8738 10.9376C16.2316 10.8665 16.5894 10.7844 16.9473 10.6903C17.3052 10.5972 17.6688 10.4881 18.0384 10.3649C18.4139 10.2418 18.801 10.1016 19.1999 9.94245C19.5988 9.78427 20.0241 9.60307 20.4757 9.39684V11.9668ZM16.7097 3.34383H14.6419V1.4867H16.7097V3.34383ZM21.4525 14.8701C21.7751 14.9933 22.0745 15.0964 22.3498 15.1785C22.6311 15.2606 22.8954 15.3277 23.1417 15.3807C23.388 15.4338 23.6233 15.4689 23.8455 15.4869C24.0688 15.5099 24.289 15.5219 24.5063 15.5219C24.9108 15.5219 25.2542 15.4748 25.5355 15.3807C25.8228 15.2866 26.0601 15.1635 26.2483 15.0113C26.4415 14.8591 26.5917 14.6859 26.6968 14.4917C26.808 14.2985 26.8901 14.1023 26.9431 13.902C26.9551 13.861 26.9671 13.8029 26.9781 13.7268C26.9962 13.6558 27.0102 13.5857 27.0222 13.5156H26.2303C25.0629 13.5156 24.1719 13.2482 23.5552 12.7146C22.9395 12.175 22.6311 11.4002 22.6311 10.392C22.6311 9.91645 22.7112 9.44089 22.8694 8.96635C23.0336 8.48479 23.2508 8.05728 23.5202 7.68184C23.7965 7.3004 24.1158 6.99207 24.4793 6.7578C24.8487 6.51753 25.2361 6.39636 25.6406 6.39636C26.0981 6.39636 26.5116 6.52554 26.882 6.78383C27.2515 7.04213 27.6059 7.44655 27.9463 7.99819C28.2106 8.42068 28.4218 8.89827 28.58 9.43289C28.7442 9.9665 28.8583 10.5441 28.9234 11.1658H30.4802V13.5596H28.8964C28.8203 14.1933 28.6741 14.777 28.4569 15.3106C28.2396 15.8503 27.9493 16.3138 27.5859 16.7003C27.2274 17.0937 26.7939 17.3991 26.2833 17.6153C25.7728 17.8386 25.1861 17.9497 24.5233 17.9497C24.277 17.9497 24.0337 17.9387 23.7935 17.9147C23.5522 17.8916 23.3059 17.8506 23.0536 17.7915C22.8073 17.7395 22.552 17.6684 22.2887 17.5803C22.0244 17.4982 21.7458 17.3961 21.4525 17.2729V14.8701ZM26.882 10.5321C26.811 10.3209 26.7289 10.1156 26.6347 9.91642C26.5416 9.71118 26.4385 9.52899 26.3274 9.3708C26.2163 9.21262 26.0951 9.08649 25.967 8.99238C25.8378 8.89326 25.7057 8.84316 25.5705 8.84316C25.4183 8.84316 25.2742 8.89624 25.139 9.00136C25.0049 9.10148 24.8867 9.22464 24.7876 9.3708C24.6875 9.51197 24.6084 9.66411 24.5493 9.8283C24.4913 9.98649 24.4622 10.1276 24.4622 10.2508C24.4622 10.6382 24.5994 10.8965 24.8757 11.0247C25.151 11.1538 25.5615 11.2189 26.1071 11.2189H27.0402C27.0162 11.1128 26.9932 10.9987 26.9691 10.8755C26.9461 10.7524 26.9171 10.6382 26.882 10.5321ZM40.0452 11.9668C39.3124 12.2832 38.6226 12.5445 37.9778 12.7497C37.3321 12.9549 36.7074 13.1191 36.1037 13.2423C35.505 13.3604 34.9153 13.4425 34.3346 13.4885C33.754 13.5356 33.1613 13.5596 32.5576 13.5596H30.4802C30.275 13.5596 30.1228 13.4535 30.0227 13.2423C29.9175 13.026 29.8645 12.7327 29.8645 12.3622C29.8645 11.9928 29.9175 11.7025 30.0227 11.4912C30.1228 11.275 30.275 11.1658 30.4802 11.1658H32.7768L32.7949 11.1128C32.5546 10.8845 32.3574 10.6583 32.2052 10.436C32.053 10.2127 31.9329 9.99549 31.8448 9.78425C31.7567 9.567 31.6946 9.35576 31.6596 9.15052C31.6305 8.94528 31.6155 8.74005 31.6155 8.53482C31.6155 7.95415 31.7326 7.43258 31.9679 6.96905C32.2082 6.4995 32.5426 6.101 32.9711 5.77162C33.3986 5.44324 33.9062 5.19094 34.4928 5.01574C35.0795 4.83954 35.7222 4.75146 36.42 4.75146C36.6373 4.75146 36.8716 4.76344 37.1239 4.78647C37.3762 4.80449 37.6725 4.84255 38.0129 4.90062V7.31142C37.6785 7.25936 37.3641 7.2213 37.0708 7.19727C36.7835 7.16824 36.4991 7.15322 36.2178 7.15322C35.8714 7.15322 35.534 7.16527 35.2056 7.18829C34.8833 7.21232 34.5929 7.27339 34.3346 7.3735C34.0824 7.47362 33.8771 7.62279 33.7189 7.82202C33.5658 8.02125 33.4897 8.29756 33.4897 8.64896C33.4897 8.74307 33.5107 8.86921 33.5517 9.02739C33.5988 9.18057 33.6889 9.35579 33.8241 9.55602C33.9652 9.74924 34.1645 9.96645 34.4227 10.2067C34.681 10.441 35.0204 10.6853 35.4429 10.9376C35.8013 10.8665 36.1587 10.7844 36.5172 10.6903C36.8746 10.5972 37.238 10.4881 37.6074 10.3649C37.9829 10.2418 38.3703 10.1016 38.7698 9.94245C39.1682 9.78427 39.5937 9.60307 40.0452 9.39684V11.9668ZM36.2789 3.34383H34.2115V1.4867H36.2789V3.34383ZM46.0021 15.1955C46.4076 15.3137 46.744 15.3958 47.0143 15.4428C47.2896 15.4949 47.5419 15.5219 47.7712 15.5219C48.2457 15.5219 48.6332 15.4368 48.9325 15.2666C49.2318 15.1024 49.4661 14.8792 49.6363 14.5978C49.8065 14.3165 49.9206 13.9901 49.9797 13.6207C50.0438 13.2513 50.0768 12.8608 50.0768 12.4503C50.0768 12.0579 50.0498 11.6674 49.9967 11.28C49.9447 10.8875 49.8656 10.4801 49.7595 10.0576C49.6543 9.63508 49.5222 9.18857 49.364 8.72003C49.2108 8.25049 49.0356 7.73693 48.8354 7.18029H50.9128C51.118 7.69588 51.2932 8.22149 51.4404 8.7551C51.5926 9.28271 51.7157 9.80832 51.8098 10.3299C51.8328 10.4471 51.8719 10.5561 51.924 10.6552C51.983 10.7554 52.0741 10.8435 52.1973 10.9196C52.3264 10.9957 52.4966 11.0577 52.7069 11.1048C52.9181 11.1458 53.1914 11.1658 53.5258 11.1658V13.5596H53.2965C53.1263 13.5596 52.9802 13.5476 52.857 13.5246C52.7339 13.5006 52.6228 13.4685 52.5226 13.4275C52.4285 13.3864 52.3434 13.3364 52.2673 13.2773C52.1973 13.2132 52.1262 13.1401 52.0561 13.058L52.012 13.0671C51.971 13.9171 51.8308 14.6479 51.5896 15.2576C51.3553 15.8733 51.0469 16.3809 50.6655 16.7804C50.2901 17.1788 49.8566 17.4722 49.364 17.6594C48.8764 17.8536 48.3668 17.9497 47.8322 17.9497C47.5509 17.9497 47.2666 17.9207 46.9792 17.8626C46.6979 17.8095 46.3715 17.7155 46.0021 17.5803V15.1955ZM54.6961 13.5596H53.5348C53.3296 13.5596 53.1764 13.4535 53.0773 13.2423C52.9712 13.026 52.9181 12.7327 52.9181 12.3622C52.9181 11.9928 52.9712 11.7025 53.0773 11.4912C53.1764 11.275 53.3296 11.1658 53.5348 11.1658H54.7842C55.0365 11.1658 55.2508 11.1568 55.426 11.1398C55.6022 11.1158 55.7464 11.0658 55.8575 10.9897C55.9686 10.9136 56.0477 10.7994 56.0948 10.6472C56.1478 10.4881 56.1739 10.2718 56.1739 9.99549V5.81567H58.048V9.38883C58.048 9.69318 58.057 9.95744 58.075 10.1807C58.0921 10.403 58.1481 10.5882 58.2423 10.7344C58.3414 10.8815 58.4915 10.9897 58.6908 11.0607C58.896 11.1308 59.1833 11.1658 59.5528 11.1658V13.5596H59.1483C58.6377 13.5596 58.2012 13.4805 57.8378 13.3214C57.4734 13.1572 57.207 12.8999 57.0368 12.5474H56.9838C56.8316 12.7527 56.6614 12.9199 56.4732 13.0491C56.286 13.1782 56.0888 13.2803 55.8835 13.3574C55.6843 13.4335 55.4821 13.4856 55.2768 13.5156C55.0716 13.5446 54.8774 13.5596 54.6961 13.5596ZM57.9779 16.6041H55.9105V14.747H57.9779V16.6041ZM69.1178 11.9668C68.385 12.2832 67.6952 12.5445 67.0504 12.7497C66.4047 12.9549 65.7799 13.1191 65.1763 13.2423C64.5776 13.3604 63.9879 13.4425 63.4072 13.4885C62.8265 13.5356 62.2339 13.5596 61.6302 13.5596H59.5528C59.3475 13.5596 59.1953 13.4535 59.0952 13.2423C58.9901 13.026 58.9371 12.7327 58.9371 12.3622C58.9371 11.9928 58.9901 11.7025 59.0952 11.4912C59.1953 11.275 59.3475 11.1658 59.5528 11.1658H61.8494L61.8674 11.1128C61.6272 10.8845 61.4299 10.6583 61.2778 10.436C61.1256 10.2127 61.0054 9.99549 60.9173 9.78425C60.8292 9.567 60.7672 9.35576 60.7321 9.15052C60.7031 8.94528 60.6881 8.74005 60.6881 8.53482C60.6881 7.95415 60.8052 7.43258 61.0405 6.96905C61.2808 6.4995 61.6151 6.101 62.0436 5.77162C62.4711 5.44324 62.9787 5.19094 63.5654 5.01574C64.1521 4.83954 64.7948 4.75146 65.4926 4.75146C65.7099 4.75146 65.9441 4.76344 66.1964 4.78647C66.4487 4.80449 66.7451 4.84255 67.0855 4.90062V7.31142C66.7511 7.25936 66.4367 7.2213 66.1434 7.19727C65.856 7.16824 65.5717 7.15322 65.2904 7.15322C64.944 7.15322 64.6066 7.16527 64.2782 7.18829C63.9558 7.21232 63.6655 7.27339 63.4072 7.3735C63.1549 7.47362 62.9497 7.62279 62.7915 7.82202C62.6383 8.02125 62.5622 8.29756 62.5622 8.64896C62.5622 8.74307 62.5833 8.86921 62.6243 9.02739C62.6714 9.18057 62.7615 9.35579 62.8966 9.55602C63.0378 9.74924 63.237 9.96645 63.4953 10.2067C63.7536 10.441 64.094 10.6853 64.5155 10.9376C64.8739 10.8665 65.2313 10.7844 65.5897 10.6903C65.9472 10.5972 66.3106 10.4881 66.681 10.3649C67.0564 10.2418 67.4429 10.1016 67.8423 9.94245C68.2408 9.78427 68.6663 9.60307 69.1178 9.39684V11.9668ZM65.3515 3.34383H63.2841V1.4867H65.3515V3.34383ZM80.548 16.428C79.7621 16.428 79.0933 16.3248 78.5417 16.1196C77.9961 15.9143 77.5475 15.61 77.1951 15.2045C76.8497 14.8 76.5974 14.2985 76.4393 13.6998C76.2801 13.1081 76.201 12.4183 76.201 11.6324C76.201 11.2329 76.225 10.8145 76.2721 10.374C76.3181 9.93447 76.4012 9.40887 76.5183 8.79916H78.3655C78.3134 9.15057 78.2694 9.4619 78.2343 9.73121C78.1983 9.99551 78.1693 10.2328 78.1462 10.444C78.1222 10.6492 78.1052 10.8345 78.0932 10.9987C78.0872 11.1568 78.0842 11.3101 78.0842 11.4562C78.0842 11.8907 78.1222 12.2691 78.1983 12.5915C78.2754 12.9139 78.4095 13.1812 78.6038 13.3924C78.797 13.6037 79.0583 13.7588 79.3867 13.859C79.721 13.9641 80.1465 14.0172 80.6621 14.0172C81.2488 14.0172 81.7394 13.9461 82.1318 13.8059C82.5253 13.6708 82.8386 13.4565 83.0739 13.1631C83.3142 12.8698 83.4844 12.4944 83.5835 12.0368C83.6836 11.5733 83.7337 11.0197 83.7337 10.374V0H85.6078V10.5501C85.6078 11.4942 85.5137 12.3332 85.3265 13.0671C85.1443 13.7939 84.851 14.4066 84.4465 14.9052C84.041 15.4038 83.5194 15.7822 82.8797 16.0405C82.241 16.2988 81.4631 16.428 80.548 16.428ZM87.1126 14.8701C87.4349 14.9933 87.7343 15.0964 88.0096 15.1785C88.2909 15.2606 88.5552 15.3277 88.8015 15.3807C89.0478 15.4338 89.2831 15.4689 89.5053 15.4869C89.7286 15.5099 89.9488 15.5219 90.1661 15.5219C90.5706 15.5219 90.914 15.4748 91.1953 15.3807C91.4826 15.2866 91.7199 15.1635 91.9081 15.0113C92.1013 14.8591 92.2515 14.6859 92.3566 14.4917C92.4678 14.2985 92.5499 14.1023 92.6029 13.902C92.6149 13.861 92.627 13.8029 92.638 13.7268C92.656 13.6558 92.67 13.5857 92.682 13.5156H91.8901C90.7227 13.5156 89.8317 13.2482 89.215 12.7146C88.5993 12.175 88.2909 11.4002 88.2909 10.392C88.2909 9.91645 88.371 9.44089 88.5292 8.96635C88.6934 8.48479 88.9107 8.05728 89.18 7.68184C89.4563 7.3004 89.7757 6.99207 90.1391 6.7578C90.5085 6.51753 90.896 6.39636 91.3004 6.39636C91.758 6.39636 92.1714 6.52554 92.5418 6.78383C92.9113 7.04213 93.2657 7.44655 93.6061 7.99819C93.8704 8.42068 94.0816 8.89827 94.2398 9.43289C94.404 9.9665 94.5181 10.5441 94.5832 11.1658H96.14V13.5596H94.5562C94.4801 14.1933 94.3339 14.777 94.1167 15.3106C93.8994 15.8503 93.6091 16.3138 93.2457 16.7003C92.8872 17.0937 92.4538 17.3991 91.9432 17.6153C91.4326 17.8386 90.8459 17.9497 90.1831 17.9497C89.9368 17.9497 89.6936 17.9387 89.4533 17.9147C89.212 17.8916 88.9657 17.8506 88.7134 17.7915C88.4671 17.7395 88.2119 17.6684 87.9485 17.5803C87.6842 17.4982 87.4059 17.3961 87.1126 17.2729V14.8701ZM92.5418 10.5321C92.4708 10.3209 92.3887 10.1156 92.2946 9.91642C92.2015 9.71118 92.0983 9.52899 91.9872 9.3708C91.8761 9.21262 91.7549 9.08649 91.6268 8.99238C91.4976 8.89326 91.3655 8.84316 91.2303 8.84316C91.0782 8.84316 90.934 8.89624 90.7988 9.00136C90.6647 9.10148 90.5465 9.22464 90.4474 9.3708C90.3473 9.51197 90.2682 9.66411 90.2092 9.8283C90.1511 9.98649 90.1221 10.1276 90.1221 10.2508C90.1221 10.6382 90.2592 10.8965 90.5355 11.0247C90.8109 11.1538 91.2213 11.2189 91.767 11.2189H92.7C92.676 11.1128 92.653 10.9987 92.629 10.8755C92.6059 10.7524 92.5769 10.6382 92.5418 10.5321ZM103.32 8.702C103.062 8.54382 102.81 8.40867 102.563 8.29754C102.323 8.18642 102.071 8.0953 101.807 8.02422C101.543 7.95414 101.262 7.90409 100.963 7.87506C100.669 7.84002 100.341 7.82202 99.9764 7.82202C99.5539 7.82202 99.1585 7.84603 98.7891 7.89309C98.4196 7.93914 98.0382 8.01626 97.6447 8.12138V5.90379C98.0672 5.78665 98.4667 5.69558 98.8421 5.6315C99.2226 5.56643 99.634 5.53434 100.074 5.53434C100.537 5.53434 100.948 5.57544 101.305 5.65753C101.663 5.73963 101.995 5.84571 102.3 5.97486C102.604 6.103 102.895 6.24419 103.171 6.39636C103.446 6.54954 103.731 6.69869 104.024 6.84586C104.171 6.91594 104.323 6.97803 104.482 7.03009C104.641 7.08315 104.813 7.12722 105.001 7.16226C105.194 7.1973 105.406 7.22735 105.635 7.25038C105.863 7.2734 106.122 7.2944 106.409 7.31142L105.977 9.87236C105.685 9.94244 105.362 10.0836 105.01 10.2948C104.664 10.5001 104.279 10.7404 103.857 11.0167C103.44 11.286 102.98 11.5703 102.475 11.8697C101.972 12.169 101.417 12.4443 100.812 12.6966C100.209 12.9429 99.5489 13.1492 98.8331 13.3133C98.1233 13.4775 97.3514 13.5596 96.5184 13.5596H96.14C95.9348 13.5596 95.7826 13.4535 95.6825 13.2423C95.5774 13.026 95.5243 12.7327 95.5243 12.3622C95.5243 11.9928 95.5774 11.7025 95.6825 11.4912C95.7826 11.275 95.9348 11.1658 96.14 11.1658H96.5975C97.2843 11.1658 97.9321 11.0988 98.5428 10.9636C99.1525 10.8225 99.7332 10.6412 100.285 10.418C100.836 10.1897 101.361 9.93446 101.86 9.65214C102.364 9.3648 102.851 9.07144 103.32 8.77209V8.702ZM102.44 4.23188H100.373V2.37573H102.44V4.23188ZM110.131 13.5947C109.797 13.5947 109.403 13.5736 108.952 13.5326C108.5 13.4976 108.017 13.4335 107.5 13.3394L107.025 10.9196C107.682 11.0137 108.271 11.0838 108.794 11.1308C109.315 11.1779 109.788 11.2009 110.21 11.2009C110.615 11.2009 110.935 11.1749 111.169 11.1218C111.41 11.0637 111.592 10.9817 111.715 10.8755C111.844 10.7644 111.926 10.6293 111.961 10.4711C111.996 10.3129 112.014 10.1307 112.014 9.92546C112.014 9.65515 111.97 9.30673 111.882 8.87823C111.794 8.44974 111.677 7.97821 111.53 7.46162C111.384 6.93901 111.213 6.39337 111.02 5.82472C110.826 5.25006 110.624 4.68336 110.412 4.12671H112.63C112.964 5.11185 113.243 6.0209 113.466 6.85386C113.689 7.68182 113.885 8.47376 114.056 9.23063C114.109 9.45889 114.164 9.68815 114.223 9.91642C114.281 10.1457 114.366 10.3539 114.478 10.5412C114.595 10.7234 114.75 10.8725 114.945 10.9897C115.138 11.1078 115.393 11.1658 115.71 11.1658V13.5596H115.446C115.264 13.5596 115.085 13.5386 114.909 13.4976C114.738 13.4565 114.574 13.3925 114.416 13.3044C114.258 13.2103 114.109 13.0871 113.968 12.9349C113.832 12.7817 113.709 12.5915 113.598 12.3622H113.554C113.366 12.6035 113.147 12.8028 112.894 12.9609C112.642 13.1131 112.366 13.2393 112.066 13.3394C111.774 13.4335 111.463 13.4976 111.134 13.5326C110.806 13.5736 110.472 13.5947 110.131 13.5947ZM116.783 13.5596H115.71C115.504 13.5596 115.352 13.4535 115.252 13.2423C115.147 13.026 115.094 12.7327 115.094 12.3622C115.094 11.9928 115.147 11.7025 115.252 11.4912C115.352 11.275 115.504 11.1658 115.71 11.1658H116.871C117.106 11.1658 117.314 11.1568 117.496 11.1398C117.684 11.1218 117.839 11.0747 117.962 10.9987C118.091 10.9226 118.188 10.8084 118.253 10.6552C118.318 10.4971 118.35 10.2768 118.35 9.99549V0H120.224V10.0576C120.224 10.7734 120.127 11.3591 119.933 11.8166C119.74 12.2691 119.482 12.6236 119.159 12.8819C118.842 13.1402 118.476 13.3164 118.059 13.4095C117.649 13.5096 117.223 13.5596 116.783 13.5596ZM122.864 13.3394V0H124.738V13.3394H122.864ZM141.412 12.7677C141.207 14.0112 140.711 14.9322 139.926 15.5299C139.14 16.1286 138.065 16.428 136.705 16.428C135.919 16.428 135.25 16.3248 134.699 16.1196C134.147 15.9143 133.698 15.61 133.352 15.2045C133.007 14.8 132.754 14.2985 132.595 13.6998C132.437 13.1081 132.358 12.4183 132.358 11.6324C132.358 11.2329 132.382 10.8145 132.428 10.374C132.475 9.93447 132.557 9.40887 132.674 8.79916H134.522C134.464 9.15057 134.414 9.4619 134.373 9.73121C134.338 9.99551 134.308 10.2328 134.285 10.444C134.267 10.6492 134.256 10.8345 134.25 10.9987C134.244 11.1568 134.241 11.3101 134.241 11.4562C134.241 11.8907 134.279 12.2691 134.355 12.5915C134.431 12.9139 134.566 13.1812 134.76 13.3924C134.954 13.6037 135.215 13.7588 135.543 13.859C135.878 13.9641 136.303 14.0172 136.819 14.0172C137.406 14.0172 137.895 13.9461 138.289 13.8059C138.687 13.6708 139.005 13.4565 139.239 13.1631C139.474 12.8698 139.64 12.4944 139.74 12.0368C139.84 11.5733 139.891 11.0197 139.891 10.374V0H141.765V9.35376C141.765 9.66412 141.773 9.93447 141.791 10.1627C141.809 10.386 141.864 10.5732 141.958 10.7264C142.058 10.8725 142.207 10.9837 142.406 11.0607C142.612 11.1308 142.899 11.1658 143.269 11.1658V13.5596H142.899C142.583 13.5596 142.301 13.4975 142.055 13.3744C141.814 13.2573 141.624 13.0551 141.482 12.7677H141.412ZM144.431 13.5596H143.269C143.063 13.5596 142.911 13.4535 142.811 13.2423C142.706 13.026 142.653 12.7327 142.653 12.3622C142.653 11.9928 142.706 11.7025 142.811 11.4912C142.911 11.275 143.063 11.1658 143.269 11.1658H144.519C144.771 11.1658 144.984 11.1568 145.161 11.1398C145.337 11.1158 145.481 11.0658 145.592 10.9897C145.703 10.9136 145.782 10.7994 145.829 10.6472C145.882 10.4881 145.908 10.2718 145.908 9.99549V5.81567H147.783V9.38883C147.783 9.69318 147.792 9.95744 147.81 10.1807C147.827 10.403 147.883 10.5882 147.977 10.7344C148.076 10.8815 148.226 10.9897 148.425 11.0607C148.631 11.1308 148.918 11.1658 149.287 11.1658V13.5596H148.883C148.372 13.5596 147.936 13.4805 147.571 13.3214C147.208 13.1572 146.941 12.8999 146.771 12.5474H146.718C146.565 12.7527 146.396 12.9199 146.208 13.0491C146.021 13.1782 145.823 13.2803 145.618 13.3574C145.419 13.4335 145.217 13.4856 145.011 13.5156C144.806 13.5446 144.612 13.5596 144.431 13.5596ZM145.706 16.6041H143.639V14.747H145.706V16.6041ZM148.716 16.6041H146.648V14.747H148.716V16.6041ZM156.468 8.702C156.209 8.54382 155.957 8.40867 155.711 8.29754C155.471 8.18642 155.218 8.0953 154.954 8.02422C154.691 7.95414 154.408 7.90409 154.11 7.87506C153.817 7.84002 153.488 7.82202 153.124 7.82202C152.701 7.82202 152.306 7.84603 151.936 7.89309C151.567 7.93914 151.186 8.01626 150.792 8.12138V5.90379C151.215 5.78665 151.613 5.69558 151.988 5.6315C152.37 5.56643 152.78 5.53434 153.221 5.53434C153.684 5.53434 154.095 5.57544 154.452 5.65753C154.811 5.73963 155.142 5.84571 155.447 5.97486C155.752 6.103 156.042 6.24419 156.318 6.39636C156.594 6.54954 156.878 6.69869 157.171 6.84586C157.319 6.91594 157.471 6.97803 157.629 7.03009C157.787 7.08315 157.96 7.12722 158.149 7.16226C158.342 7.1973 158.553 7.22735 158.782 7.25038C159.011 7.2734 159.269 7.2944 159.556 7.31142L159.125 9.87236C158.896 9.93143 158.647 10.0335 158.377 10.1807C158.114 10.3209 157.828 10.4881 157.524 10.6823C157.547 10.7934 157.582 10.8815 157.629 10.9456C157.676 11.0107 157.741 11.0607 157.823 11.0958C157.911 11.1248 158.022 11.1459 158.158 11.1569C158.292 11.1629 158.462 11.1658 158.667 11.1658H159.821V13.5596H159.257C158.735 13.5596 158.301 13.5066 157.954 13.4015C157.609 13.3013 157.325 13.1602 157.101 12.979C156.884 12.7908 156.717 12.5675 156.6 12.3102C156.483 12.0519 156.395 11.7645 156.336 11.4472C155.931 11.6995 155.492 11.9518 155.016 12.2041C154.546 12.4504 154.036 12.6766 153.485 12.8819C152.94 13.0811 152.347 13.2423 151.707 13.3654C151.073 13.4946 150.394 13.5596 149.666 13.5596H149.287C149.082 13.5596 148.93 13.4535 148.83 13.2423C148.725 13.026 148.672 12.7327 148.672 12.3622C148.672 11.9928 148.725 11.7025 148.83 11.4912C148.93 11.275 149.082 11.1658 149.287 11.1658H149.745C150.432 11.1658 151.079 11.0988 151.69 10.9636C152.3 10.8225 152.881 10.6412 153.432 10.418C153.984 10.1897 154.508 9.93446 155.007 9.65214C155.512 9.3648 155.998 9.07144 156.468 8.77209V8.702ZM155.588 16.6041H153.52V14.747H155.588V16.6041ZM163.279 12.5655C163.114 12.7527 162.932 12.9109 162.733 13.04C162.54 13.1692 162.336 13.2723 162.125 13.3484C161.92 13.4244 161.712 13.4775 161.5 13.5066C161.295 13.5416 161.099 13.5596 160.912 13.5596H159.83C159.623 13.5596 159.471 13.4535 159.371 13.2423C159.266 13.026 159.213 12.7327 159.213 12.3622C159.213 11.9928 159.266 11.7025 159.371 11.4912C159.471 11.275 159.623 11.1658 159.83 11.1658H160.999C161.146 11.1658 161.304 11.1539 161.474 11.1308C161.651 11.1078 161.812 11.0547 161.958 10.9726C162.105 10.8905 162.228 10.7734 162.328 10.6202C162.428 10.4621 162.478 10.2538 162.478 9.99549V7.49663H164.343V9.41486C164.343 9.71421 164.352 9.97549 164.37 10.1977C164.387 10.415 164.437 10.5972 164.519 10.7434C164.601 10.8845 164.727 10.9897 164.897 11.0607C165.068 11.1308 165.305 11.1658 165.61 11.1658C165.786 11.1658 165.957 11.1568 166.121 11.1398C166.285 11.1158 166.428 11.0658 166.551 10.9897C166.68 10.9136 166.784 10.7994 166.86 10.6472C166.942 10.4881 166.983 10.2718 166.983 9.99549V7.49663H168.857V9.38883C168.857 9.69318 168.866 9.95744 168.883 10.1807C168.901 10.403 168.951 10.5882 169.033 10.7344C169.121 10.8815 169.256 10.9897 169.438 11.0607C169.626 11.1308 169.886 11.1658 170.221 11.1658C170.403 11.1658 170.57 11.1568 170.722 11.1398C170.881 11.1218 171.015 11.0747 171.128 10.9987C171.245 10.9166 171.336 10.7994 171.4 10.6472C171.465 10.4881 171.497 10.2718 171.497 9.99549V5.81567H173.371V9.33573C173.371 9.64709 173.38 9.91642 173.397 10.1457C173.415 10.3739 173.471 10.5652 173.564 10.7173C173.665 10.8635 173.814 10.9757 174.014 11.0518C174.219 11.1279 174.506 11.1658 174.876 11.1658V13.5596H174.471C173.99 13.5596 173.585 13.4916 173.257 13.3574C172.929 13.2222 172.658 12.987 172.447 12.6526C172.295 12.8348 172.128 12.985 171.946 13.1021C171.769 13.2192 171.585 13.3103 171.391 13.3744C171.198 13.4445 170.998 13.4916 170.793 13.5156C170.593 13.5446 170.397 13.5596 170.204 13.5596C169.974 13.5596 169.749 13.5416 169.526 13.5066C169.302 13.4775 169.091 13.4244 168.892 13.3484C168.693 13.2773 168.508 13.1782 168.338 13.0491C168.168 12.9199 168.021 12.7587 167.898 12.5655H167.863C167.705 12.7527 167.525 12.9109 167.326 13.04C167.132 13.1692 166.93 13.2723 166.718 13.3484C166.513 13.4244 166.308 13.4775 166.103 13.5066C165.898 13.5416 165.704 13.5596 165.522 13.5596C164.988 13.5596 164.543 13.4836 164.185 13.3304C163.827 13.1782 163.537 12.9229 163.314 12.5655H163.279ZM176.037 13.5596H174.876C174.671 13.5596 174.517 13.4535 174.418 13.2423C174.312 13.026 174.26 12.7327 174.26 12.3622C174.26 11.9928 174.312 11.7025 174.418 11.4912C174.517 11.275 174.671 11.1658 174.876 11.1658H176.125C176.36 11.1658 176.565 11.1568 176.741 11.1398C176.917 11.1218 177.06 11.0747 177.173 10.9987C177.29 10.9226 177.375 10.8084 177.428 10.6552C177.486 10.4971 177.516 10.2768 177.516 9.99549V5.81567H179.39V10.0576C179.39 10.7734 179.296 11.3591 179.108 11.8166C178.927 12.2691 178.68 12.6236 178.369 12.8819C178.064 13.1402 177.709 13.3164 177.305 13.4095C176.899 13.5096 176.477 13.5596 176.037 13.5596ZM177.991 4.04764H175.923V2.19052H177.991V4.04764ZM181 4.04764H178.933V2.19052H181V4.04764Z" fill="#8B8B8B"/>
</svg>
