<svg width="152" height="26" viewBox="0 0 152 26" fill="none" xmlns="http://www.w3.org/2000/svg">
<path d="M6.29571 23.7954C5.15725 23.7954 4.18944 23.6468 3.39031 23.3496C2.6002 23.0515 1.94965 22.6097 1.44065 22.0234C0.938682 21.4371 0.573252 20.7113 0.344354 19.8449C0.114452 18.9865 0 17.9876 0 16.8491C0 16.2718 0.0341313 15.6634 0.102399 15.0269C0.169663 14.3894 0.289136 13.6284 0.458802 12.745H3.13531C3.05901 13.255 2.99475 13.7058 2.94456 14.0963C2.89336 14.4788 2.85119 14.8232 2.81706 15.1283C2.78292 15.4255 2.75682 15.6936 2.73975 15.9315C2.73172 16.1614 2.72771 16.3823 2.72771 16.5941C2.72771 17.2236 2.78293 17.7707 2.89336 18.2386C3.00379 18.7054 3.19956 19.0919 3.47966 19.3981C3.75976 19.7043 4.13824 19.9292 4.61411 20.0738C5.09801 20.2264 5.71443 20.3037 6.46236 20.3037C7.3117 20.3037 8.02148 20.2012 8.59072 19.9974C9.15995 19.8017 9.61374 19.4914 9.95407 19.0668C10.3024 18.6421 10.5484 18.098 10.693 17.4354C10.8375 16.7637 10.9098 15.9616 10.9098 15.0269V0H13.6245V15.282C13.6245 16.6493 13.4889 17.8651 13.2169 18.9263C12.9538 19.9804 12.5282 20.8679 11.9429 21.5907C11.3566 22.3126 10.5996 22.8607 9.67397 23.2341C8.74733 23.6086 7.62192 23.7954 6.29571 23.7954ZM15.804 21.5395C16.2719 21.7182 16.7046 21.8668 17.1041 21.9853C17.5117 22.1047 17.8942 22.2021 18.2516 22.2784C18.608 22.3547 18.9484 22.4059 19.2706 22.432C19.5939 22.4662 19.9122 22.4822 20.2264 22.4822C20.8127 22.4822 21.3106 22.415 21.7182 22.2784C22.1349 22.1429 22.4782 21.9642 22.7503 21.7433C23.0304 21.5224 23.2473 21.2715 23.4009 20.9914C23.5615 20.7113 23.6809 20.4262 23.7572 20.137C23.7743 20.0778 23.7914 19.9935 23.8084 19.883C23.8335 19.7806 23.8546 19.6782 23.8717 19.5768H22.7252C21.0336 19.5768 19.7425 19.1903 18.85 18.4173C17.9585 17.6352 17.5117 16.5138 17.5117 15.0521C17.5117 14.3644 17.6272 13.6757 17.8561 12.9869C18.094 12.2902 18.4083 11.6708 18.7998 11.1266C19.1984 10.5745 19.6622 10.1278 20.1882 9.78842C20.7243 9.44005 21.2845 9.26531 21.8708 9.26531C22.5334 9.26531 23.1328 9.45307 23.6679 9.82653C24.203 10.2 24.717 10.7863 25.2099 11.5855C25.5924 12.1969 25.8986 12.8895 26.1275 13.6626C26.3655 14.4356 26.5311 15.2729 26.6255 16.1735H28.8814V19.6401H26.5863C26.4759 20.5577 26.2641 21.404 25.9499 22.177C25.6356 22.9581 25.215 23.6297 24.6879 24.1909C24.1699 24.7601 23.5404 25.2019 22.8015 25.5161C22.0626 25.8394 21.2123 26 20.2525 26C19.8951 26 19.5427 25.9829 19.1943 25.9498C18.846 25.9157 18.4896 25.8555 18.1241 25.7711C17.7667 25.6948 17.3973 25.5924 17.0148 25.4649C16.6323 25.3465 16.2287 25.1979 15.804 25.0192V21.5395ZM23.6679 15.2559C23.5665 14.9507 23.447 14.6525 23.3115 14.3644C23.175 14.0662 23.0264 13.8031 22.8647 13.5732C22.7041 13.3443 22.5294 13.1616 22.3427 13.0261C22.156 12.8815 21.9642 12.8092 21.7694 12.8092C21.5486 12.8092 21.3398 12.8856 21.145 13.0382C20.9492 13.1827 20.7796 13.3614 20.635 13.5732C20.4904 13.778 20.376 13.9989 20.2906 14.2368C20.2053 14.4657 20.1631 14.6696 20.1631 14.8483C20.1631 15.4095 20.3629 15.7829 20.7625 15.9697C21.1611 16.1564 21.7564 16.2498 22.5465 16.2498H23.8978C23.8637 16.0972 23.8295 15.9315 23.7954 15.7528C23.7613 15.5751 23.7191 15.4095 23.6679 15.2559ZM39.2812 12.6054C38.9077 12.3755 38.5423 12.1798 38.1849 12.0192C37.8365 11.8575 37.4711 11.726 37.0886 11.6236C36.7071 11.5212 36.2985 11.4499 35.8658 11.4068C35.4401 11.3556 34.9642 11.3304 34.4382 11.3304C33.8258 11.3304 33.2525 11.3646 32.7174 11.4329C32.1823 11.5001 31.6302 11.6105 31.0599 11.7641V8.55151C31.6723 8.38184 32.2496 8.25038 32.7937 8.15702C33.3459 8.06365 33.9412 8.01645 34.5777 8.01645C35.2494 8.01645 35.8437 8.07666 36.3627 8.19513C36.8808 8.3136 37.3607 8.46723 37.8024 8.65396C38.2441 8.84069 38.6648 9.04444 39.0643 9.26531C39.4639 9.48618 39.8755 9.70304 40.3012 9.91587C40.513 10.0173 40.7339 10.1066 40.9638 10.1829C41.1927 10.2602 41.4437 10.3235 41.7157 10.3747C41.9958 10.4259 42.302 10.4681 42.6333 10.5022C42.9646 10.5364 43.3381 10.5655 43.7547 10.5916L43.1303 14.3001C42.7056 14.4025 42.2378 14.6063 41.7278 14.9115C41.2268 15.2097 40.6706 15.558 40.0582 15.9566C39.4549 16.3481 38.7883 16.7598 38.0574 17.1935C37.3265 17.6272 36.5244 18.0257 35.6489 18.3912C34.7735 18.7486 33.8177 19.0457 32.7807 19.2836C31.7526 19.5216 30.6352 19.6401 29.4285 19.6401H28.8814C28.5832 19.6401 28.3623 19.4874 28.2178 19.1812C28.0652 18.867 27.9889 18.4424 27.9889 17.9073C27.9889 17.3722 28.0652 16.9515 28.2178 16.6453C28.3623 16.3311 28.5832 16.1735 28.8814 16.1735H29.544C30.5379 16.1735 31.4765 16.0761 32.36 15.8803C33.2445 15.6765 34.0848 15.4134 34.8839 15.0902C35.6831 14.7589 36.443 14.3895 37.1659 13.9819C37.8957 13.5652 38.6015 13.1406 39.2812 12.7069V12.6054ZM38.0062 6.13002H35.0114V3.44149H38.0062V6.13002ZM49.1459 19.6912C48.662 19.6912 48.0928 19.6621 47.4382 19.6019C46.7836 19.5517 46.0829 19.4573 45.3349 19.3218L44.6472 15.817C45.599 15.9526 46.4523 16.055 47.2083 16.1222C47.9653 16.1905 48.6489 16.2246 49.2603 16.2246C49.8467 16.2246 50.3105 16.1865 50.6498 16.1102C50.9982 16.0249 51.2622 15.9064 51.4399 15.7528C51.6266 15.5922 51.7461 15.3964 51.7973 15.1665C51.8485 14.9376 51.8736 14.6735 51.8736 14.3764C51.8736 13.9858 51.8094 13.4799 51.6819 12.8594C51.5554 12.24 51.3847 11.5553 51.1729 10.8084C50.96 10.0514 50.7141 9.26134 50.433 8.43711C50.1529 7.60484 49.8597 6.78461 49.5535 5.97744H52.7661C53.25 7.40504 53.6536 8.72219 53.9769 9.92892C54.2991 11.1266 54.5843 12.2731 54.8302 13.3694C54.9065 13.7007 54.9878 14.0321 55.0722 14.3644C55.1575 14.6957 55.281 14.9968 55.4426 15.2689C55.6123 15.5319 55.8372 15.7488 56.1173 15.9184C56.3984 16.0891 56.7678 16.1735 57.2266 16.1735V19.6401H56.8441C56.5811 19.6401 56.3221 19.6109 56.0671 19.5517C55.8201 19.4915 55.5822 19.3981 55.3533 19.2706C55.1234 19.1351 54.9065 18.9564 54.7027 18.7355C54.508 18.5147 54.3292 18.2386 54.1676 17.9073H54.1044C53.8323 18.2556 53.513 18.5447 53.1476 18.7736C52.7832 18.9945 52.3836 19.1772 51.9499 19.3218C51.5252 19.4573 51.0745 19.5517 50.5986 19.6019C50.1227 19.6621 49.6388 19.6912 49.1459 19.6912ZM58.7817 19.6401H57.2266C56.9294 19.6401 56.7086 19.4874 56.564 19.1812C56.4104 18.867 56.3341 18.4424 56.3341 17.9073C56.3341 17.3722 56.4104 16.9515 56.564 16.6453C56.7086 16.3311 56.9294 16.1735 57.2266 16.1735H58.9092C59.2485 16.1735 59.5507 16.1614 59.8138 16.1353C60.0858 16.1102 60.3107 16.0419 60.4894 15.9315C60.6762 15.8211 60.8167 15.6554 60.9101 15.4345C61.0034 15.2046 61.0506 14.8864 61.0506 14.4788V0H63.7653V14.5682C63.7653 15.6042 63.6247 16.4546 63.3446 17.1172C63.0635 17.7707 62.6901 18.2848 62.2232 18.6592C61.7634 19.0327 61.2333 19.2877 60.63 19.4242C60.0346 19.5678 59.4192 19.6401 58.7817 19.6401ZM67.5883 19.3218V0H70.3029V19.3218H67.5883ZM94.4557 18.4935C94.1586 20.2946 93.4408 21.6289 92.3013 22.4953C91.1628 23.3617 89.6087 23.7954 87.637 23.7954C86.4985 23.7954 85.5297 23.6468 84.7306 23.3496C83.9324 23.0515 83.2819 22.6097 82.7809 22.0234C82.2799 21.4371 81.9145 20.7113 81.6846 19.8449C81.4557 18.9865 81.3403 17.9876 81.3403 16.8491C81.3403 16.2718 81.3744 15.6634 81.4427 15.0269C81.5109 14.3894 81.6294 13.6284 81.8001 12.745H84.4766C84.3912 13.255 84.319 13.7058 84.2597 14.0963C84.2085 14.4788 84.1664 14.8232 84.1322 15.1283C84.1061 15.4255 84.0891 15.6936 84.081 15.9315C84.073 16.1614 84.068 16.3823 84.068 16.5941C84.068 17.2236 84.1232 17.7707 84.2336 18.2386C84.3441 18.7054 84.5398 19.0919 84.8199 19.3981C85.101 19.7043 85.4785 19.9292 85.9544 20.0738C86.4393 20.2264 87.0547 20.3037 87.8026 20.3037C88.652 20.3037 89.3617 20.2012 89.931 19.9974C90.5093 19.8017 90.9681 19.4914 91.3074 19.0668C91.6477 18.6421 91.8897 18.098 92.0342 17.4354C92.1788 16.7637 92.2511 15.9616 92.2511 15.0269V0H94.9657V13.5482C94.9657 13.9989 94.9778 14.3894 95.0039 14.7207C95.029 15.044 95.1103 15.3151 95.2458 15.536C95.3904 15.7488 95.6073 15.9104 95.8964 16.0208C96.1936 16.1222 96.6092 16.1735 97.1453 16.1735V19.6401H96.6092C96.1504 19.6401 95.7428 19.5517 95.3864 19.373C95.038 19.2034 94.7619 18.9102 94.5581 18.4935H94.4557ZM98.8269 19.6401H97.1453C96.8471 19.6401 96.6263 19.4874 96.4827 19.1812C96.3291 18.867 96.2528 18.4424 96.2528 17.9073C96.2528 17.3722 96.3291 16.9515 96.4827 16.6453C96.6263 16.3311 96.8471 16.1735 97.1453 16.1735H98.9544C99.3198 16.1735 99.63 16.1614 99.885 16.1353C100.14 16.1012 100.348 16.0289 100.51 15.9184C100.671 15.808 100.786 15.6424 100.854 15.4215C100.93 15.1926 100.968 14.8784 100.968 14.4788V8.42504H103.683V13.5993C103.683 14.0411 103.696 14.4236 103.721 14.7459C103.747 15.0691 103.828 15.3372 103.964 15.549C104.109 15.7618 104.324 15.9184 104.614 16.0208C104.911 16.1222 105.327 16.1735 105.863 16.1735V19.6401H105.276C104.537 19.6401 103.904 19.5256 103.378 19.2967C102.851 19.0588 102.464 18.6843 102.217 18.1743H102.141C101.92 18.4725 101.674 18.7144 101.402 18.9012C101.13 19.0879 100.846 19.2365 100.548 19.3469C100.26 19.4574 99.9664 19.5347 99.6682 19.5768C99.371 19.619 99.0909 19.6401 98.8269 19.6401ZM100.675 24.0504H97.6804V21.3608H100.675V24.0504ZM105.034 24.0504H102.04V21.3608H105.034V24.0504ZM116.263 12.6054C115.889 12.3755 115.523 12.1798 115.167 12.0192C114.819 11.8575 114.453 11.726 114.071 11.6236C113.688 11.5212 113.281 11.4499 112.847 11.4068C112.422 11.3556 111.946 11.3304 111.419 11.3304C110.808 11.3304 110.235 11.3646 109.7 11.4329C109.163 11.5001 108.611 11.6105 108.042 11.7641V8.55151C108.654 8.38184 109.232 8.25038 109.776 8.15702C110.328 8.06365 110.922 8.01645 111.56 8.01645C112.232 8.01645 112.826 8.07666 113.344 8.19513C113.863 8.3136 114.343 8.46723 114.785 8.65396C115.226 8.84069 115.647 9.04444 116.046 9.26531C116.446 9.48618 116.858 9.70304 117.282 9.91587C117.495 10.0173 117.716 10.1066 117.945 10.1829C118.175 10.2602 118.426 10.3235 118.697 10.3747C118.978 10.4259 119.283 10.4681 119.615 10.5022C119.947 10.5364 120.32 10.5655 120.737 10.5916L120.112 14.3001C119.781 14.3854 119.42 14.534 119.029 14.7459C118.647 14.9507 118.234 15.1926 117.792 15.4727C117.826 15.6344 117.878 15.7618 117.945 15.8552C118.013 15.9486 118.107 16.0209 118.226 16.0721C118.354 16.1142 118.514 16.1443 118.71 16.1614C118.906 16.1694 119.152 16.1735 119.449 16.1735H121.119V19.6401H120.303C119.547 19.6401 118.918 19.5637 118.417 19.4112C117.916 19.2666 117.503 19.0628 117.181 18.7988C116.867 18.5277 116.624 18.2044 116.454 17.831C116.284 17.4565 116.157 17.0409 116.072 16.5821C115.485 16.9465 114.848 17.3119 114.16 17.6774C113.48 18.0348 112.742 18.3621 111.942 18.6592C111.152 18.9484 110.294 19.1813 109.367 19.36C108.45 19.5467 107.465 19.6401 106.411 19.6401H105.863C105.565 19.6401 105.344 19.4874 105.2 19.1812C105.047 18.867 104.971 18.4424 104.971 17.9073C104.971 17.3722 105.047 16.9515 105.2 16.6453C105.344 16.3311 105.565 16.1735 105.863 16.1735H106.525C107.52 16.1735 108.459 16.0761 109.342 15.8803C110.226 15.6765 111.067 15.4134 111.866 15.0902C112.664 14.7589 113.425 14.3895 114.147 13.9819C114.878 13.5652 115.584 13.1406 116.263 12.7069V12.6054ZM114.988 24.0504H111.994V21.3608H114.988V24.0504ZM126.128 18.2004C125.89 18.4725 125.626 18.7014 125.338 18.8881C125.057 19.0758 124.764 19.2244 124.459 19.3349C124.161 19.4453 123.859 19.5216 123.553 19.5638C123.256 19.615 122.972 19.6401 122.7 19.6401H121.131C120.834 19.6401 120.613 19.4874 120.469 19.1812C120.316 18.867 120.24 18.4424 120.24 17.9073C120.24 17.3722 120.316 16.9515 120.469 16.6453C120.613 16.3311 120.834 16.1735 121.131 16.1735H122.827C123.039 16.1735 123.269 16.1564 123.515 16.1222C123.77 16.0891 124.004 16.0118 124.217 15.8934C124.428 15.7739 124.607 15.6042 124.752 15.3834C124.896 15.1545 124.969 14.8523 124.969 14.4788V10.8586H127.67V13.6375C127.67 14.0712 127.683 14.4487 127.708 14.772C127.733 15.0862 127.806 15.3492 127.925 15.5621C128.044 15.7659 128.226 15.9184 128.473 16.0208C128.719 16.1222 129.064 16.1735 129.505 16.1735C129.76 16.1735 130.006 16.1614 130.244 16.1353C130.482 16.1012 130.691 16.0289 130.869 15.9184C131.056 15.808 131.205 15.6424 131.315 15.4215C131.434 15.1926 131.494 14.8784 131.494 14.4788V10.8586H134.209V13.5993C134.209 14.0411 134.221 14.4236 134.247 14.7459C134.272 15.0691 134.344 15.3372 134.464 15.549C134.591 15.7618 134.786 15.9184 135.05 16.0208C135.321 16.1222 135.7 16.1735 136.184 16.1735C136.448 16.1735 136.69 16.1614 136.91 16.1353C137.14 16.1102 137.335 16.0419 137.497 15.9315C137.666 15.813 137.798 15.6424 137.892 15.4215C137.986 15.1926 138.032 14.8784 138.032 14.4788V8.42504H140.746V13.523C140.746 13.9728 140.759 14.3644 140.785 14.6957C140.811 15.027 140.891 15.303 141.028 15.5239C141.172 15.7357 141.388 15.8973 141.677 16.0078C141.974 16.1182 142.391 16.1735 142.926 16.1735V19.6401H142.34C141.643 19.6401 141.057 19.5427 140.581 19.3469C140.105 19.1522 139.714 18.8118 139.408 18.3279C139.187 18.591 138.945 18.8078 138.682 18.9774C138.427 19.1471 138.159 19.2797 137.879 19.373C137.599 19.4744 137.31 19.5427 137.013 19.5768C136.724 19.619 136.439 19.6401 136.158 19.6401C135.827 19.6401 135.5 19.615 135.177 19.5638C134.854 19.5216 134.548 19.4453 134.259 19.3349C133.971 19.2325 133.703 19.0879 133.457 18.9012C133.21 18.7144 132.998 18.4805 132.819 18.2004H132.768C132.539 18.4725 132.279 18.7014 131.991 18.8881C131.71 19.0758 131.417 19.2244 131.112 19.3349C130.813 19.4453 130.516 19.5216 130.219 19.5638C129.922 19.615 129.641 19.6401 129.378 19.6401C128.605 19.6401 127.959 19.5296 127.44 19.3088C126.922 19.0879 126.502 18.7184 126.179 18.2004H126.128ZM144.609 19.6401H142.926C142.629 19.6401 142.408 19.4874 142.263 19.1812C142.111 18.867 142.034 18.4424 142.034 17.9073C142.034 17.3722 142.111 16.9515 142.263 16.6453C142.408 16.3311 142.629 16.1735 142.926 16.1735H144.736C145.076 16.1735 145.374 16.1614 145.629 16.1353C145.884 16.1102 146.091 16.0419 146.253 15.9315C146.423 15.8211 146.546 15.6554 146.622 15.4345C146.708 15.2046 146.75 14.8864 146.75 14.4788V8.42504H149.465V14.5682C149.465 15.6042 149.329 16.4546 149.057 17.1172C148.793 17.7707 148.437 18.2848 147.986 18.6592C147.544 19.0327 147.03 19.2877 146.444 19.4242C145.857 19.5678 145.246 19.6401 144.609 19.6401ZM147.438 5.86298H144.443V3.17341H147.438V5.86298ZM151.797 5.86298H148.802V3.17341H151.797V5.86298Z" fill="#FBFBFB"/>
</svg>
