<svg width="16" height="16" viewBox="0 0 16 16" fill="none" xmlns="http://www.w3.org/2000/svg">
<path d="M10.2627 12.1732L8.66698 11.3333L10.2627 12.1732ZM10.2627 12.1732L10.3275 12.5511L10.8203 12.4666L11.0532 12.0242L10.7138 11.8456L10.3403 9.66664C10.3228 9.56051 10.3313 9.45172 10.3649 9.34957C10.3986 9.24741 10.4565 9.15491 10.5336 9.07997M10.2627 12.1732L10.882 9.43866L12.914 7.47996L13.6489 6.77152L12.6387 6.62514L9.83201 6.21848L9.83201 6.21847L9.8292 6.21808C9.8022 6.21432 9.77653 6.204 9.75445 6.18802C9.73236 6.17204 9.71453 6.15088 9.70253 6.12641L9.70235 6.12605L9.11568 4.93271L8.16698 5.15331V11.3333V11.6352L8.4341 11.7758L10.5874 12.9091L11.4844 13.3812L11.3131 12.3822L10.8337 9.58533L10.3404 9.66663L10.8331 9.58216L10.8335 9.58429C10.8293 9.55809 10.8315 9.53127 10.8398 9.50606C10.8482 9.48069 10.8625 9.45771 10.8816 9.43905L10.8806 9.43996L10.5336 9.07997M10.5336 9.07997L12.1113 7.55918M10.5336 9.07997L12.1113 7.55918M12.1113 7.55918L12.4953 7.61481L12.567 7.11998L12.1113 7.55918ZM14.0215 6.49474L14.0362 6.49689L14.051 6.49815C14.0832 6.5009 14.1138 6.51292 14.1392 6.53274C14.1599 6.54882 14.1764 6.56947 14.1875 6.59297C14.1913 6.61797 14.1893 6.64359 14.1817 6.66787C14.1723 6.69796 14.1545 6.72476 14.1304 6.74515L14.1177 6.7559L14.1058 6.76748L11.3525 9.43415L11.1619 9.61872L11.2079 9.88L11.8745 13.6667L11.8745 13.6667L11.8758 13.6735C11.8818 13.7048 11.8786 13.737 11.8668 13.7666C11.855 13.7961 11.835 13.8216 11.8091 13.8402L11.8071 13.8416C11.7785 13.8623 11.7441 13.8734 11.7088 13.8733L11.7053 13.8733C11.6845 13.8734 11.6641 13.868 11.646 13.8578L11.6392 13.854L11.6322 13.8503L8.23222 12.0703L8.00031 11.9489L7.7684 12.0703L4.3684 13.8503L4.36125 13.8541L4.35421 13.8581C4.32626 13.8739 4.29433 13.8813 4.26227 13.8794C4.23021 13.8774 4.19938 13.8663 4.1735 13.8473C4.14762 13.8283 4.12778 13.8022 4.11638 13.7722C4.10497 13.7421 4.10248 13.7095 4.10921 13.6781L4.11114 13.6691L4.11274 13.66L4.7794 9.87334L4.8254 9.61205L4.63483 9.42748L1.88508 6.76428C1.86458 6.7432 1.85001 6.71706 1.84287 6.6885C1.83591 6.66066 1.83626 6.63152 1.84385 6.60389C1.8538 6.57608 1.87097 6.55138 1.89363 6.53236C1.91749 6.51233 1.94649 6.49938 1.97734 6.495L1.97734 6.49501L1.98 6.49461L5.77333 5.93461L6.0325 5.89635L6.14856 5.66149L7.84856 2.22149L7.84858 2.2215L7.85031 2.21792C7.86396 2.18974 7.88527 2.16598 7.91179 2.14935C7.93832 2.13272 7.969 2.1239 8.00031 2.1239C8.03162 2.1239 8.0623 2.13272 8.08882 2.14935C8.11535 2.16598 8.13666 2.18974 8.15031 2.21792L8.1503 2.21792L8.15189 2.22115L9.85189 5.66782L9.96812 5.90348L10.2281 5.94141L14.0215 6.49474Z" fill="#FFB01D" stroke="#FFB01D"/>
</svg>
