<svg width="31" height="32" viewBox="0 0 31 32" fill="none" xmlns="http://www.w3.org/2000/svg">
<path d="M30.9995 15.8151C30.9525 12.7545 30.0643 9.7718 28.4379 7.21823C26.8116 4.66367 24.5161 2.64424 21.8205 1.39596C19.1259 0.14869 16.1422 -0.275412 13.2226 0.174687C10.3029 0.623786 7.56732 1.92908 5.33883 3.93553C3.10934 5.94197 1.47998 8.56653 0.639795 11.5002C-0.19939 14.4338 -0.213371 17.5555 0.599808 20.4982C1.41199 23.4398 3.01834 26.0804 5.22983 28.1079C7.44031 30.1363 10.1639 31.4676 13.0796 31.9457V20.5342H9.14368V15.8121H13.0785V12.2144C13.0785 8.12246 15.392 5.86094 18.9328 5.86094C20.0951 5.87794 21.2554 5.98497 22.4026 6.18001V10.1989H20.4482C20.1121 10.1559 19.771 10.1909 19.451 10.3029C19.1299 10.415 18.8378 10.6 18.5948 10.845C18.3527 11.0901 18.1657 11.3882 18.0496 11.7172C17.9336 12.0473 17.8896 12.3994 17.9226 12.7485V15.8121H22.2216L21.5344 20.5342H17.9216V31.9457C21.5944 31.3046 24.9272 29.3301 27.3237 26.3745C29.7192 23.4188 31.0225 19.676 30.9995 15.8151Z" fill="#1877F2"/>
</svg>
