<svg width="16" height="16" viewBox="0 0 16 16" fill="none" xmlns="http://www.w3.org/2000/svg">
<path d="M5.73729 12.1732L7.33302 11.3333L5.73729 12.1732ZM5.73729 12.1732L5.6725 12.5511L5.17969 12.4666L4.94682 12.0242L5.28616 11.8456L5.65969 9.66664C5.67718 9.56051 5.66874 9.45172 5.63507 9.34957C5.6014 9.24741 5.54352 9.15491 5.46636 9.07997M5.73729 12.1732L5.11801 9.43866L3.08602 7.47996L2.35108 6.77152L3.36133 6.62514L6.16799 6.21848L6.16799 6.21847L6.1708 6.21808C6.1978 6.21432 6.22347 6.204 6.24555 6.18802C6.26764 6.17204 6.28547 6.15088 6.29747 6.12641L6.29765 6.12605L6.88432 4.93271L7.83302 5.15331V11.3333V11.6352L7.5659 11.7758L5.41256 12.9091L4.51562 13.3812L4.68688 12.3822L5.16635 9.58533L5.65962 9.66663L5.16688 9.58216L5.16651 9.58429C5.17066 9.55809 5.1685 9.53127 5.16019 9.50606C5.15183 9.48069 5.1375 9.45771 5.11841 9.43905L5.11936 9.43996L5.46636 9.07997M5.46636 9.07997L3.88866 7.55918M5.46636 9.07997L3.88866 7.55918M3.88866 7.55918L3.50472 7.61481L3.43302 7.11998L3.88866 7.55918ZM1.97853 6.49474L1.96381 6.49689L1.94898 6.49815C1.91685 6.5009 1.8862 6.51292 1.86076 6.53274C1.84012 6.54882 1.82363 6.56947 1.81252 6.59297C1.80872 6.61797 1.81065 6.64359 1.81827 6.66787C1.82771 6.69796 1.8455 6.72476 1.86956 6.74515L1.88226 6.7559L1.89421 6.76748L4.64755 9.43415L4.83812 9.61872L4.79212 9.88L4.12545 13.6667L4.1255 13.6667L4.1242 13.6735C4.11825 13.7048 4.12136 13.737 4.13318 13.7666C4.14499 13.7961 4.16501 13.8216 4.19087 13.8402L4.19291 13.8416C4.22151 13.8623 4.25594 13.8734 4.29124 13.8733L4.29466 13.8733C4.31545 13.8734 4.33591 13.868 4.35402 13.8578L4.36084 13.854L4.36778 13.8503L7.76778 12.0703L7.99969 11.9489L8.2316 12.0703L11.6316 13.8503L11.6388 13.8541L11.6458 13.8581C11.6737 13.8739 11.7057 13.8813 11.7377 13.8794C11.7698 13.8774 11.8006 13.8663 11.8265 13.8473C11.8524 13.8283 11.8722 13.8022 11.8836 13.7722C11.895 13.7421 11.8975 13.7095 11.8908 13.6781L11.8889 13.6691L11.8873 13.66L11.2206 9.87334L11.1746 9.61205L11.3652 9.42748L14.1149 6.76428C14.1354 6.7432 14.15 6.71706 14.1571 6.6885C14.1641 6.66066 14.1637 6.63152 14.1561 6.60389C14.1462 6.57608 14.129 6.55138 14.1064 6.53236C14.0825 6.51233 14.0535 6.49938 14.0227 6.495L14.0227 6.49501L14.02 6.49461L10.2267 5.93461L9.9675 5.89635L9.85144 5.66149L8.15144 2.22149L8.15142 2.2215L8.14969 2.21792C8.13604 2.18974 8.11473 2.16598 8.08821 2.14935C8.06168 2.13272 8.031 2.1239 7.99969 2.1239C7.96838 2.1239 7.9377 2.13272 7.91118 2.14935C7.88465 2.16598 7.86334 2.18974 7.84969 2.21792L7.8497 2.21792L7.84811 2.22115L6.14811 5.66782L6.03188 5.90348L5.77186 5.94141L1.97853 6.49474Z" fill="#FFB01D" stroke="#FFB01D"/>
</svg>
