<svg width="15" height="25" viewBox="0 0 15 25" fill="none" xmlns="http://www.w3.org/2000/svg">
<path d="M0 21.5672C0.347502 21.6978 0.67091 21.8092 0.971207 21.9006C1.27251 21.992 1.55673 22.0674 1.82489 22.1266C2.09305 22.1849 2.34816 22.228 2.5902 22.2542C2.83827 22.2803 3.08032 22.2933 3.31534 22.2933C3.85868 22.2933 4.30963 22.221 4.66918 22.0774C5.02873 21.9398 5.31999 21.754 5.54195 21.518C5.76391 21.29 5.92761 21.0218 6.03206 20.7145C6.14354 20.4132 6.21888 20.0958 6.25805 19.7624C5.8071 19.9261 5.33907 20.0074 4.85498 20.0074C4.4432 20.0074 4.02539 19.9492 3.59955 19.8317C3.18175 19.7072 2.80212 19.5113 2.46265 19.2432C2.12921 18.968 1.85401 18.6124 1.63808 18.1735C1.42214 17.7356 1.31469 17.2033 1.31469 16.5756C1.31469 16.0453 1.40306 15.516 1.57982 14.9857C1.75659 14.4504 1.99463 13.9724 2.29593 13.5546C2.60326 13.1297 2.95879 12.7863 3.36455 12.5241C3.7703 12.256 4.20517 12.1224 4.66918 12.1224C5.17938 12.1224 5.64037 12.269 6.05215 12.5633C6.46393 12.8515 6.85663 13.2924 7.22924 13.888C7.62093 14.5027 7.91219 15.2278 8.10201 16.0654C8.29183 16.902 8.38625 17.7979 8.38625 18.752C8.38625 19.6158 8.28782 20.4263 8.09197 21.1845C7.89613 21.9438 7.59181 22.6037 7.18003 23.1661C6.76825 23.7345 6.24198 24.1825 5.60122 24.5099C4.96647 24.8363 4.20518 25 3.31534 25C3.04718 25 2.78304 24.984 2.5209 24.9508C2.25977 24.9247 1.99463 24.8795 1.72647 24.8142C1.45831 24.7489 1.18111 24.6696 0.892866 24.5782C0.611651 24.4868 0.314358 24.3753 0 24.2448V21.5672ZM4.59084 14.8492C4.40704 14.8492 4.24032 14.9074 4.09068 15.0259C3.94002 15.1364 3.80947 15.277 3.69799 15.4468C3.59354 15.6105 3.50817 15.7842 3.44289 15.967C3.38463 16.1498 3.35451 16.3105 3.35451 16.4481C3.35451 16.657 3.39769 16.8297 3.48206 16.9673C3.57345 17.1049 3.69498 17.2164 3.84563 17.3007C3.99527 17.3791 4.16902 17.4384 4.36487 17.4775C4.56775 17.5107 4.77665 17.5267 4.99258 17.5267C5.19546 17.5267 5.40436 17.5107 5.6203 17.4775C5.83623 17.4384 6.03207 17.3831 6.20884 17.3108C6.15661 17.0688 6.07826 16.8076 5.97381 16.5264C5.87539 16.2382 5.75487 15.97 5.61024 15.7219C5.47365 15.4739 5.31598 15.267 5.14022 15.1043C4.96949 14.9335 4.78668 14.8492 4.59084 14.8492ZM11.329 19.8608V4.99157H13.418V19.8608H11.329ZM13.7705 1.26447C13.6209 1.23233 13.4762 1.20621 13.3396 1.18613C13.2091 1.16704 13.1036 1.15701 13.0253 1.15701C12.7832 1.15701 12.5814 1.20921 12.4177 1.31366C12.261 1.41209 12.1816 1.58484 12.1816 1.83391C12.1816 2.08199 12.274 2.26879 12.4568 2.39233C12.6396 2.51686 12.9018 2.57914 13.2412 2.57914H14.2225V3.707H10.5245V2.63838H11.3089L11.3189 2.59823C11.1884 2.4285 11.0869 2.26479 11.0146 2.10811C10.9493 1.9444 10.9172 1.77467 10.9172 1.59791C10.9172 1.36289 10.9654 1.14997 11.0638 0.961154C11.1622 0.764304 11.2988 0.594574 11.4756 0.450954C11.6594 0.307333 11.8743 0.195851 12.1234 0.117512C12.3785 0.0391737 12.6597 0 12.967 0C13.189 0 13.4572 0.0291315 13.7705 0.0873832V1.26447Z" fill="#9A9896"/>
</svg>
