<svg width="249" height="258" viewBox="0 0 249 258" fill="none" xmlns="http://www.w3.org/2000/svg">
<g filter="url(#filter0_d_925_52576)">
<path d="M11.5939 22.7703V13.6673C11.5939 8.63512 15.6733 4.55575 20.7055 4.55575H33.9274" stroke="#FFB01D" stroke-width="2.48033" stroke-linecap="round"/>
</g>
<g filter="url(#filter1_d_925_52576)">
<path d="M11.5939 224.786V233.889C11.5939 238.922 15.6733 243.001 20.7055 243.001H33.9274" stroke="#FFB01D" stroke-width="2.48033" stroke-linecap="round"/>
</g>
<g filter="url(#filter2_d_925_52576)">
<path d="M237.41 224.786V233.889C237.41 238.922 233.331 243.001 228.298 243.001H215.076" stroke="#FFB01D" stroke-width="2.48033" stroke-linecap="round"/>
</g>
<g filter="url(#filter3_d_925_52576)">
<path d="M236.475 22.7703V13.6673C236.475 8.63512 232.395 4.55575 227.363 4.55575H214.141" stroke="#FFB01D" stroke-width="2.48033" stroke-linecap="round"/>
</g>
<g clip-path="url(#clip0_925_52576)">
<path d="M135.804 89.8687H120.751V97.4214H143.357V74.8151H135.804V89.8687Z" fill="#C0C0CF"/>
<path d="M120.75 82.368H113.198V89.9207H120.75V82.368Z" fill="#C0C0CF"/>
<path d="M83.0902 89.8688H75.5375V97.4215H83.0902V89.8688Z" fill="#C0C0CF"/>
<path d="M218.677 89.8688H196.071V97.4215H218.677V89.8688Z" fill="#C0C0CF"/>
<path d="M37.8769 97.4215H30.3242V104.974H37.8769V97.4215Z" fill="#C0C0CF"/>
<path d="M98.1417 97.4214H113.195V89.8687H98.1417V67.2624H90.589V104.922H98.1417V97.4214Z" fill="#C0C0CF"/>
<path d="M173.465 104.922H181.017V89.8688H158.411V97.4215H173.465V104.922Z" fill="#C0C0CF"/>
<path d="M196.122 97.4215H188.569V104.974H196.122V97.4215Z" fill="#C0C0CF"/>
<path d="M128.249 112.475V104.922H120.749V97.4215H113.196V104.922H98.1422V112.475H113.196V120.028H120.749V112.475H128.249Z" fill="#C0C0CF"/>
<path d="M203.624 112.475V120.028H211.176V127.529H218.677V104.922H196.071V112.475H203.624Z" fill="#C0C0CF"/>
<path d="M75.5369 112.475H90.5905V104.922H60.4832V97.4215H67.9842V89.8688H45.3778V97.4215H52.9305V112.475H45.3778V104.922H37.8769V112.475H30.3242V157.688H37.8769V127.529H45.3778V120.028H52.9305V127.529H90.5905V120.028H75.5369V112.475Z" fill="#C0C0CF"/>
<path d="M98.1417 112.475H90.589V120.028H98.1417V112.475Z" fill="#C0C0CF"/>
<path d="M203.624 120.028H196.071V127.581H203.624V120.028Z" fill="#C0C0CF"/>
<path d="M188.568 135.081H181.015V127.529H188.568V119.976H181.015V112.475H173.514V119.976H165.962V104.922H158.409V97.3696H143.459V104.922H151.012V119.976H158.512V127.529H143.459V104.922H135.958V112.475H128.405V119.976H120.853V127.529H135.958V135.081H166.065V127.529H173.618V135.081H166.065V142.582H203.725V150.135H158.512V142.582H151.012V165.189H143.459V172.793H135.958V165.189H128.405V187.795H135.958V180.294H143.459V187.795H166.065V202.9H173.618V217.954H181.119V195.348H173.618V187.795H181.119V195.348H188.672V157.688H196.224V172.793H203.725V180.346H211.278V172.793H218.831V157.688H211.278V165.189H203.725V157.688H211.278V150.135H218.831V135.081H196.224V127.529H188.672L188.568 135.081ZM181.015 180.294H158.409V157.688H181.015V180.294Z" fill="#C0C0CF"/>
<path d="M113.248 127.529H105.695V142.582H113.248V127.529Z" fill="#C0C0CF"/>
<path d="M52.9323 135.081H45.3796V157.688H52.9323V135.081Z" fill="#C0C0CF"/>
<path d="M105.643 150.135V142.634H98.142V135.081H60.4821V150.135H67.983V142.634H83.0884V150.135H75.5357V157.688H90.5893V150.135H105.643Z" fill="#C0C0CF"/>
<path d="M98.1417 157.688H90.589V165.24H98.1417V157.688Z" fill="#C0C0CF"/>
<path d="M120.75 157.688V150.135H128.251V157.688H143.357V142.634H128.251V135.081H120.75V142.634H113.198V165.24H128.251V157.688H120.75Z" fill="#C0C0CF"/>
<path d="M30.3242 217.954H83.0896V165.189H30.3242V217.954ZM75.5368 172.793V210.453H37.877V172.793H75.5368Z" fill="#C0C0CF"/>
<path d="M113.196 165.24H98.1422V172.793H113.196V165.24Z" fill="#C0C0CF"/>
<path d="M173.517 165.24H165.964V172.793H173.517V165.24Z" fill="#C0C0CF"/>
<path d="M120.75 172.741H113.198V180.294H120.75V172.741Z" fill="#C0C0CF"/>
<path d="M90.589 202.901H98.1417V210.453H105.643V187.847H113.195V180.294H90.589V202.901Z" fill="#C0C0CF"/>
<path d="M203.624 180.294H196.071V187.847H203.624V180.294Z" fill="#C0C0CF"/>
<path d="M211.175 210.453H188.569V217.954H218.676V187.847H211.175V210.453Z" fill="#C0C0CF"/>
<path d="M67.986 180.294H45.3796V202.901H67.986V180.294Z" fill="#C0C0CF"/>
<path d="M120.75 187.847H113.198V202.901H120.75V187.847Z" fill="#C0C0CF"/>
<path d="M150.856 195.348H135.802V202.901H143.355V210.453H150.856V195.348Z" fill="#C0C0CF"/>
<path d="M203.623 195.348H188.569V202.901H203.623V195.348Z" fill="#C0C0CF"/>
<path d="M128.304 202.901H120.751V210.453H128.304V202.901Z" fill="#C0C0CF"/>
<path d="M165.964 202.901H158.411V210.453H165.964V202.901Z" fill="#C0C0CF"/>
<path d="M113.248 210.453H105.695V218.006H113.248V210.453Z" fill="#C0C0CF"/>
<path d="M135.802 210.453H128.249V218.006H135.802V210.453Z" fill="#C0C0CF"/>
<path d="M158.41 210.453H150.858V218.006H158.41V210.453Z" fill="#C0C0CF"/>
</g>
<g clip-path="url(#clip1_925_52576)">
<path d="M120.75 29.6025H113.198V37.1552H120.75V29.6025Z" fill="#212134"/>
<path d="M165.96 29.6025V82.3161H218.726V29.6025H165.96ZM211.173 74.7634H173.513V37.1035H211.173V74.7634Z" fill="#212134"/>
<path d="M67.986 44.656H45.3796V67.2623H67.986V44.656Z" fill="#212134"/>
<path d="M203.622 44.656H181.016V67.2623H203.622V44.656Z" fill="#212134"/>
<path d="M143.354 74.8152H150.855V82.3679H158.408V67.2625H150.855V59.7615H158.408V44.6561H150.855V29.6025H143.354V44.6561H135.802V59.7615H128.249V44.6561H113.195V52.2088H105.643V44.6561H113.195V37.1552H98.1417V29.6025H90.589V52.2088H98.1417V67.2625H143.354V74.8152Z" fill="#212134"/>
<path d="M83.0896 29.6025H30.3242V82.3161H83.0896V29.6025ZM37.877 74.7634V37.1035H75.5368V74.7634H37.877Z" fill="#212134"/>
<path d="M113.248 74.8151H105.695V82.3678H113.248V74.8151Z" fill="#212134"/>
<path d="M128.304 74.8151H120.751V82.3678H128.304V74.8151Z" fill="#212134"/>
<path d="M135.804 89.8687H120.751V97.4214H143.357V74.8151H135.804V89.8687Z" fill="#212134"/>
<path d="M120.75 82.368H113.198V89.9207H120.75V82.368Z" fill="#212134"/>
<path d="M98.1417 97.4214H113.195V89.8687H98.1417V67.2624H90.589V104.922H98.1417V97.4214Z" fill="#212134"/>
</g>
<g filter="url(#filter4_d_925_52576)">
<line x1="10.2868" y1="82.0755" x2="238.713" y2="82.0755" stroke="#FFB01D" stroke-width="4" stroke-linecap="round"/>
</g>
<defs>
<filter id="filter0_d_925_52576" x="2.06813" y="2.34087e-05" width="41.3852" height="37.266" filterUnits="userSpaceOnUse" color-interpolation-filters="sRGB">
<feFlood flood-opacity="0" result="BackgroundImageFix"/>
<feColorMatrix in="SourceAlpha" type="matrix" values="0 0 0 0 0 0 0 0 0 0 0 0 0 0 0 0 0 0 127 0" result="hardAlpha"/>
<feOffset dy="4.96066"/>
<feGaussianBlur stdDeviation="4.13388"/>
<feComposite in2="hardAlpha" operator="out"/>
<feColorMatrix type="matrix" values="0 0 0 0 1 0 0 0 0 0.690196 0 0 0 0 0.113725 0 0 0 0.3 0"/>
<feBlend mode="normal" in2="BackgroundImageFix" result="effect1_dropShadow_925_52576"/>
<feBlend mode="normal" in="SourceGraphic" in2="effect1_dropShadow_925_52576" result="shape"/>
</filter>
<filter id="filter1_d_925_52576" x="2.06813" y="220.23" width="41.3852" height="37.266" filterUnits="userSpaceOnUse" color-interpolation-filters="sRGB">
<feFlood flood-opacity="0" result="BackgroundImageFix"/>
<feColorMatrix in="SourceAlpha" type="matrix" values="0 0 0 0 0 0 0 0 0 0 0 0 0 0 0 0 0 0 127 0" result="hardAlpha"/>
<feOffset dy="4.96066"/>
<feGaussianBlur stdDeviation="4.13388"/>
<feComposite in2="hardAlpha" operator="out"/>
<feColorMatrix type="matrix" values="0 0 0 0 1 0 0 0 0 0.690196 0 0 0 0 0.113725 0 0 0 0.3 0"/>
<feBlend mode="normal" in2="BackgroundImageFix" result="effect1_dropShadow_925_52576"/>
<feBlend mode="normal" in="SourceGraphic" in2="effect1_dropShadow_925_52576" result="shape"/>
</filter>
<filter id="filter2_d_925_52576" x="205.551" y="220.23" width="41.3852" height="37.266" filterUnits="userSpaceOnUse" color-interpolation-filters="sRGB">
<feFlood flood-opacity="0" result="BackgroundImageFix"/>
<feColorMatrix in="SourceAlpha" type="matrix" values="0 0 0 0 0 0 0 0 0 0 0 0 0 0 0 0 0 0 127 0" result="hardAlpha"/>
<feOffset dy="4.96066"/>
<feGaussianBlur stdDeviation="4.13388"/>
<feComposite in2="hardAlpha" operator="out"/>
<feColorMatrix type="matrix" values="0 0 0 0 1 0 0 0 0 0.690196 0 0 0 0 0.113725 0 0 0 0.3 0"/>
<feBlend mode="normal" in2="BackgroundImageFix" result="effect1_dropShadow_925_52576"/>
<feBlend mode="normal" in="SourceGraphic" in2="effect1_dropShadow_925_52576" result="shape"/>
</filter>
<filter id="filter3_d_925_52576" x="204.615" y="2.34087e-05" width="41.3852" height="37.266" filterUnits="userSpaceOnUse" color-interpolation-filters="sRGB">
<feFlood flood-opacity="0" result="BackgroundImageFix"/>
<feColorMatrix in="SourceAlpha" type="matrix" values="0 0 0 0 0 0 0 0 0 0 0 0 0 0 0 0 0 0 127 0" result="hardAlpha"/>
<feOffset dy="4.96066"/>
<feGaussianBlur stdDeviation="4.13388"/>
<feComposite in2="hardAlpha" operator="out"/>
<feColorMatrix type="matrix" values="0 0 0 0 1 0 0 0 0 0.690196 0 0 0 0 0.113725 0 0 0 0.3 0"/>
<feBlend mode="normal" in2="BackgroundImageFix" result="effect1_dropShadow_925_52576"/>
<feBlend mode="normal" in="SourceGraphic" in2="effect1_dropShadow_925_52576" result="shape"/>
</filter>
<filter id="filter4_d_925_52576" x="-0.000184403" y="76.7584" width="249" height="20.5739" filterUnits="userSpaceOnUse" color-interpolation-filters="sRGB">
<feFlood flood-opacity="0" result="BackgroundImageFix"/>
<feColorMatrix in="SourceAlpha" type="matrix" values="0 0 0 0 0 0 0 0 0 0 0 0 0 0 0 0 0 0 127 0" result="hardAlpha"/>
<feOffset dy="4.96066"/>
<feGaussianBlur stdDeviation="4.13388"/>
<feComposite in2="hardAlpha" operator="out"/>
<feColorMatrix type="matrix" values="0 0 0 0 1 0 0 0 0 0.690196 0 0 0 0 0.113725 0 0 0 0.3 0"/>
<feBlend mode="normal" in2="BackgroundImageFix" result="effect1_dropShadow_925_52576"/>
<feBlend mode="normal" in="SourceGraphic" in2="effect1_dropShadow_925_52576" result="shape"/>
</filter>
<clipPath id="clip0_925_52576">
<rect width="188" height="135" fill="white" transform="translate(30.3242 82.7016) scale(1.00187)"/>
</clipPath>
<clipPath id="clip1_925_52576">
<rect width="188" height="53" fill="white" transform="translate(30.3242 29.6025) scale(1.00187)"/>
</clipPath>
</defs>
</svg>
