<svg width="152" height="27" viewBox="0 0 152 27" fill="none" xmlns="http://www.w3.org/2000/svg">
<path d="M0.469698 19.9641L0.591131 19.932V19.9309L0.469698 19.9641ZM0.58411 12.8664V12.741H0.480732L0.460663 12.8434L0.58411 12.8664ZM3.25977 12.8664L3.38422 12.8855L3.40529 12.741H3.25977V12.8664ZM2.86434 16.0519L2.7399 16.0429V16.0469L2.86434 16.0519ZM4.73811 20.1929L4.77525 20.0735L4.77424 20.0725L4.73811 20.1929ZM8.71346 20.1166L8.67231 19.9982H8.67031L8.71346 20.1166ZM10.0764 19.1862L9.97903 19.107L9.97803 19.108L10.0764 19.1862ZM10.8151 17.5553L10.9385 17.5825V17.5814L10.8151 17.5553ZM11.0318 0.125453V0H10.9064V0.125453H11.0318ZM13.7456 0.125453H13.8711V0H13.7456V0.125453ZM6.41918 23.7879C5.29211 23.7879 4.33866 23.6403 3.55885 23.3503L3.47053 23.5852C4.28748 23.8893 5.27104 24.0388 6.41918 24.0388V23.7879ZM3.55885 23.3503C2.78706 23.0593 2.15478 22.6287 1.65999 22.0596L1.47031 22.2242C1.9952 22.8274 2.66261 23.2811 3.47053 23.5852L3.55885 23.3503ZM1.661 22.0606C1.17323 21.4916 0.815943 20.783 0.591131 19.932L0.348258 19.9952C0.581098 20.8774 0.954443 21.621 1.47031 22.2242L1.661 22.0606ZM0.591131 19.9309C0.364312 19.0859 0.250906 18.0993 0.250906 16.9692H0C0 18.1154 0.115417 19.124 0.348258 19.9952L0.591131 19.9309ZM0.250906 16.9692C0.250906 16.3962 0.285027 15.794 0.35227 15.1607L0.102367 15.1336C0.0341206 15.7749 0 16.3871 0 16.9692H0.250906ZM0.35227 15.1607C0.419513 14.5284 0.537944 13.7717 0.707557 12.8905L0.460663 12.8434C0.291051 13.7286 0.170613 14.4923 0.102367 15.1336L0.35227 15.1607ZM0.58411 12.9919H3.25977V12.741H0.58411V12.9919ZM3.13532 12.8484C3.05905 13.3582 2.99582 13.8088 2.94463 14.2012L3.19353 14.2333C3.24371 13.8439 3.30795 13.3944 3.38422 12.8855L3.13532 12.8484ZM2.94463 14.2012C2.89345 14.5846 2.85029 14.9289 2.81617 15.235L3.06607 15.2631C3.10019 14.958 3.14235 14.6157 3.19353 14.2333L2.94463 14.2012ZM2.81617 15.235C2.78204 15.5341 2.75696 15.803 2.7399 16.0429L2.98979 16.061C3.00685 15.8251 3.03195 15.5591 3.06607 15.2631L2.81617 15.235ZM2.7399 16.0469C2.73086 16.2777 2.72685 16.5006 2.72685 16.7143H2.97775C2.97775 16.5036 2.98176 16.2848 2.98979 16.0569L2.7399 16.0469ZM2.72685 16.7143C2.72685 17.3496 2.78205 17.9076 2.89546 18.3874L3.13933 18.3292C3.03195 17.8735 2.97775 17.3366 2.97775 16.7143H2.72685ZM2.89546 18.3874C3.00987 18.8721 3.21461 19.2786 3.51168 19.6028L3.69635 19.4331C3.43239 19.1451 3.24572 18.7788 3.13933 18.3292L2.89546 18.3874ZM3.51168 19.6028C3.80976 19.9279 4.20819 20.1638 4.70097 20.3133L4.77424 20.0725C4.31559 19.934 3.95829 19.7192 3.69635 19.4331L3.51168 19.6028ZM4.69997 20.3123C5.20078 20.4709 5.83005 20.5482 6.58578 20.5482V20.2973C5.8451 20.2973 5.24293 20.221 4.77525 20.0735L4.69997 20.3123ZM6.58578 20.5482C7.44387 20.5482 8.16849 20.4448 8.75561 20.2351L8.67031 19.9982C8.11932 20.1959 7.42581 20.2973 6.58578 20.2973V20.5482ZM8.75361 20.2351C9.34273 20.0333 9.81845 19.7101 10.1747 19.2645L9.97803 19.108C9.65486 19.5125 9.22129 19.8095 8.67231 19.9982L8.75361 20.2351ZM10.1737 19.2655C10.537 18.8229 10.79 18.2599 10.9385 17.5825L10.6926 17.5283C10.5521 18.1766 10.3122 18.7005 9.97903 19.107L10.1737 19.2655ZM10.9385 17.5814C11.085 16.9 11.1573 16.088 11.1573 15.1477H10.9064C10.9064 16.076 10.8351 16.8679 10.6926 17.5283L10.9385 17.5814ZM11.1573 15.1477V0.125453H10.9064V15.1477H11.1573ZM11.0318 0.250906H13.7456V0H11.0318V0.250906ZM13.6202 0.125453V15.4026H13.8711V0.125453H13.6202ZM13.6202 15.4026C13.6202 16.7615 13.4857 17.9659 13.2167 19.0146L13.4596 19.0769C13.7346 18.003 13.8711 16.7776 13.8711 15.4026H13.6202ZM13.2167 19.0146C12.9568 20.0534 12.5393 20.9246 11.9662 21.6301L12.1619 21.7886C12.7611 21.05 13.1926 20.1447 13.4596 19.0769L13.2167 19.0146ZM11.9662 21.6301C11.3951 22.3346 10.6565 22.8695 9.7492 23.2369L9.84354 23.4687C10.7869 23.0883 11.5607 22.5283 12.1619 21.7886L11.9662 21.6301ZM9.7492 23.2369C8.84192 23.6022 7.73393 23.7879 6.41918 23.7879V24.0388C7.75601 24.0388 8.89813 23.8501 9.84354 23.4687L9.7492 23.2369ZM15.9245 21.6582L15.9697 21.5407L15.799 21.4755V21.6582H15.9245ZM19.39 22.5504L19.4031 22.425H19.4L19.39 22.5504ZM21.8368 22.3968L21.7977 22.2774L21.7967 22.2784L21.8368 22.3968ZM22.8686 21.8619L22.7913 21.7636L22.7893 21.7646L22.8686 21.8619ZM23.5189 21.1102L23.4095 21.048L23.4085 21.05L23.5189 21.1102ZM23.8752 20.2561L23.7548 20.222L23.7538 20.225L23.8752 20.2561ZM23.9264 20.0022L23.804 19.9711L23.8019 19.9831L23.9264 20.0022ZM23.9896 19.6961L24.1141 19.7161L24.1382 19.5707H23.9896V19.6961ZM26.2448 13.7837L26.1253 13.8199V13.8209L26.2448 13.7837ZM26.7426 16.2938L26.6171 16.3069L26.6292 16.4193H26.7426V16.2938ZM28.9977 16.2938H29.1232V16.1684H28.9977V16.2938ZM28.9977 19.7593V19.8848H29.1232V19.7593H28.9977ZM26.7034 19.7593V19.6339H26.593L26.579 19.7443L26.7034 19.7593ZM24.8056 24.3087L24.7142 24.2224L24.7122 24.2235L24.8056 24.3087ZM18.2439 25.8885L18.272 25.766H18.27L18.2439 25.8885ZM17.1349 25.5824L17.175 25.4639L17.172 25.4629L17.1349 25.5824ZM15.9245 25.1367H15.799V25.22L15.8763 25.2521L15.9245 25.1367ZM23.4296 14.4853L23.3152 14.5364L23.3162 14.5385L23.4296 14.4853ZM22.4611 13.1474L22.3838 13.2458L22.3868 13.2488L22.4611 13.1474ZM21.2638 13.1595L21.338 13.2608L21.3411 13.2589L21.2638 13.1595ZM20.7539 13.6944L20.8563 13.7677L20.8573 13.7656L20.7539 13.6944ZM20.4097 14.3578L20.5271 14.401L20.5281 14.4L20.4097 14.3578ZM24.0157 16.3701V16.4955H24.1723L24.1382 16.343L24.0157 16.3701ZM15.8803 21.7756C16.349 21.9542 16.7856 22.1048 17.1881 22.2242L17.2603 21.9843C16.8649 21.8659 16.4343 21.7184 15.9697 21.5407L15.8803 21.7756ZM17.1881 22.2242C17.5985 22.3447 17.9849 22.443 18.3442 22.5203L18.3974 22.2744C18.0442 22.1991 17.6648 22.1018 17.2593 21.9834L17.1881 22.2242ZM18.3442 22.5203C18.7065 22.5976 19.0518 22.6487 19.38 22.6748L19.4 22.425C19.0839 22.3999 18.7497 22.3497 18.3974 22.2744L18.3442 22.5203ZM19.377 22.6748C19.7041 22.709 20.0273 22.726 20.3455 22.726V22.4751C20.0363 22.4751 19.7222 22.4591 19.4031 22.425L19.377 22.6748ZM20.3455 22.726C20.9406 22.726 21.4525 22.6578 21.876 22.5163L21.7967 22.2784C21.4053 22.4089 20.9236 22.4751 20.3455 22.4751V22.726ZM21.876 22.5163C22.3025 22.3768 22.6618 22.1921 22.9479 21.9592L22.7893 21.7646C22.5324 21.9733 22.2032 22.1459 21.7977 22.2774L21.876 22.5163ZM22.9459 21.9603C23.2379 21.7304 23.4667 21.4675 23.6283 21.1704L23.4085 21.05C23.265 21.314 23.0593 21.5518 22.7913 21.7636L22.9459 21.9603ZM23.6273 21.1724C23.7939 20.8834 23.9174 20.5893 23.9966 20.2882L23.7538 20.225C23.6805 20.502 23.5661 20.776 23.4095 21.048L23.6273 21.1724ZM23.9956 20.2912C24.0147 20.224 24.0328 20.1327 24.0498 20.0213L23.8019 19.9831C23.7859 20.0915 23.7698 20.1698 23.7548 20.222L23.9956 20.2912ZM24.0478 20.0323C24.0739 19.9269 24.096 19.8215 24.1141 19.7161L23.8662 19.675C23.8501 19.7743 23.828 19.8727 23.804 19.9711L24.0478 20.0323ZM23.9896 19.5707H22.8435V19.8216H23.9896V19.5707ZM22.8435 19.5707C21.1704 19.5707 19.9129 19.1883 19.0518 18.4416L18.8872 18.6312C19.8095 19.4311 21.1353 19.8216 22.8435 19.8216V19.5707ZM19.0528 18.4426C18.1937 17.6898 17.7571 16.6069 17.7571 15.1728H17.5062C17.5062 16.6611 17.9619 17.8203 18.8872 18.6312L19.0528 18.4426ZM17.7571 15.1728C17.7571 14.4993 17.8695 13.8239 18.0953 13.1484L17.8575 13.0682C17.6236 13.7687 17.5062 14.4702 17.5062 15.1728H17.7571ZM18.0943 13.1495C18.3292 12.463 18.6383 11.8547 19.0207 11.3218L18.8169 11.1753C18.4185 11.7303 18.0983 12.3616 17.8575 13.0682L18.0943 13.1495ZM19.0207 11.3218C19.4111 10.7819 19.8637 10.3463 20.3756 10.0161L20.2401 9.80536C19.6991 10.1546 19.2244 10.6113 18.8169 11.1753L19.0207 11.3218ZM20.3756 10.0161C20.8914 9.67993 21.4304 9.51329 21.9894 9.51329V9.26239C21.3772 9.26239 20.7941 9.44506 20.2401 9.80536L20.3756 10.0161ZM21.9894 9.51329C22.6267 9.51329 23.2008 9.69295 23.7146 10.0512L23.8581 9.84653C23.3011 9.45712 22.6779 9.26239 21.9894 9.26239V9.51329ZM23.7146 10.0512C24.2305 10.4125 24.7333 10.9836 25.2211 11.7735L25.4348 11.641C24.936 10.8341 24.4121 10.2329 23.8581 9.84653L23.7146 10.0512ZM25.2211 11.7735C25.5974 12.3746 25.8985 13.0561 26.1253 13.8199L26.3652 13.7486C26.1334 12.9658 25.8232 12.2633 25.4338 11.641L25.2211 11.7735ZM26.1253 13.8209C26.3602 14.5857 26.5248 15.4136 26.6171 16.3069L26.867 16.2808C26.7727 15.3735 26.6051 14.5294 26.3652 13.7486L26.1253 13.8209ZM26.7426 16.4193H28.9977V16.1684H26.7426V16.4193ZM28.8723 16.2938V19.7593H29.1232V16.2938H28.8723ZM28.9977 19.6339H26.7034V19.8848H28.9977V19.6339ZM26.579 19.7443C26.4696 20.6525 26.2598 21.4865 25.9507 22.2483L26.1825 22.3426C26.5017 21.5578 26.7165 20.7017 26.8289 19.7743L26.579 19.7443ZM25.9507 22.2483C25.6416 23.0171 25.2291 23.6744 24.7142 24.2224L24.8969 24.394C25.4348 23.821 25.8634 23.1365 26.1835 22.3417L25.9507 22.2483ZM24.7122 24.2235C24.2074 24.7795 23.5942 25.21 22.8706 25.5181L22.9689 25.7489C23.7237 25.4278 24.367 24.9762 24.8979 24.3931L24.7122 24.2235ZM22.8706 25.5181C22.15 25.8332 21.317 25.9918 20.3716 25.9918V26.2427C21.3451 26.2427 22.2122 26.0791 22.9699 25.7479L22.8706 25.5181ZM20.3716 25.9918C20.0183 25.9918 19.67 25.9758 19.3258 25.9416L19.3017 26.1916C19.654 26.2257 20.0102 26.2427 20.3716 26.2427V25.9918ZM19.3258 25.9416C18.9835 25.9085 18.6323 25.8503 18.272 25.766L18.2148 26.0109C18.5851 26.0962 18.9474 26.1574 19.3017 26.1916L19.3258 25.9416ZM18.27 25.766C17.9177 25.6897 17.5534 25.5893 17.175 25.4639L17.0957 25.7017C17.4821 25.8302 17.8555 25.9336 18.2178 26.0109L18.27 25.766ZM17.172 25.4629C16.7946 25.3455 16.3952 25.198 15.9737 25.0213L15.8763 25.2521C16.3039 25.4318 16.7113 25.5823 17.0977 25.7017L17.172 25.4629ZM16.0499 25.1367V21.6582H15.799V25.1367H16.0499ZM23.9053 15.3374C23.8019 15.0262 23.6805 14.7251 23.543 14.4311L23.3162 14.5385C23.4497 14.8225 23.5671 15.1155 23.6675 15.4166L23.9053 15.3374ZM23.543 14.4331C23.4045 14.129 23.253 13.859 23.0864 13.6222L22.8806 13.7667C23.0372 13.9895 23.1817 14.2454 23.3152 14.5364L23.543 14.4331ZM23.0864 13.6222C22.9188 13.3843 22.7351 13.1906 22.5344 13.0451L22.3868 13.2488C22.5605 13.3743 22.7261 13.5469 22.8806 13.7667L23.0864 13.6222ZM22.5374 13.0481C22.3336 12.8895 22.1159 12.8052 21.888 12.8052V13.0561C22.0496 13.0561 22.2142 13.1154 22.3838 13.2458L22.5374 13.0481ZM21.888 12.8052C21.6351 12.8052 21.4003 12.8925 21.1855 13.0611L21.3411 13.2589C21.5167 13.1204 21.6983 13.0561 21.888 13.0561V12.8052ZM21.1885 13.0591C20.9818 13.2117 20.8021 13.4013 20.6496 13.6241L20.8573 13.7656C20.9938 13.5639 21.1544 13.3963 21.338 13.2608L21.1885 13.0591ZM20.6516 13.6222C20.5 13.836 20.3806 14.0668 20.2913 14.3157L20.5281 14.4C20.6084 14.1721 20.7178 13.9614 20.8563 13.7677L20.6516 13.6222ZM20.2923 14.3136C20.204 14.5525 20.1568 14.7713 20.1568 14.969H20.4077C20.4077 14.8095 20.4458 14.6208 20.5271 14.401L20.2923 14.3136ZM20.1568 14.969C20.1568 15.2631 20.209 15.519 20.3214 15.7288C20.4348 15.9406 20.6044 16.0991 20.8282 16.2035L20.9346 15.9766C20.758 15.8943 20.6295 15.7729 20.5422 15.6103C20.4549 15.4467 20.4077 15.235 20.4077 14.969H20.1568ZM20.8282 16.2035C21.2517 16.4022 21.869 16.4955 22.6648 16.4955V16.2446C21.881 16.2446 21.3079 16.1513 20.9346 15.9766L20.8282 16.2035ZM22.6648 16.4955H24.0157V16.2446H22.6648V16.4955ZM24.1382 16.343C24.104 16.1915 24.0709 16.0278 24.0368 15.8502L23.7899 15.8974C23.824 16.076 23.8592 16.2436 23.8933 16.3982L24.1382 16.343ZM24.0368 15.8502C24.0017 15.6665 23.9585 15.4959 23.9053 15.3374L23.6675 15.4166C23.7156 15.5632 23.7568 15.7237 23.7899 15.8974L24.0368 15.8502ZM39.3942 12.7269H39.5197V12.6567L39.4595 12.6195L39.3942 12.7269ZM35.9799 11.5286L35.9649 11.653L35.9669 11.6541L35.9799 11.5286ZM31.1756 11.8859H31.0501V12.0495L31.2087 12.0063L31.1756 11.8859ZM31.1756 8.67426L31.1424 8.55383L31.0501 8.57895V8.67426H31.1756ZM40.4139 10.0382L40.3577 10.1506L40.3587 10.1516L40.4139 10.0382ZM43.8664 10.7137L43.9898 10.7337L44.0129 10.5962L43.8744 10.5882L43.8664 10.7137ZM43.2421 14.421L43.2712 14.5435L43.3515 14.5234L43.3656 14.4421L43.2421 14.421ZM40.171 16.077L40.2393 16.1824H40.2403L40.171 16.077ZM35.7631 18.5108L35.8103 18.6273H35.8113L35.7631 18.5108ZM28.3343 16.7655L28.4467 16.8217L28.4487 16.8177L28.3343 16.7655ZM32.4753 16.0008L32.5024 16.1232H32.5044L32.4753 16.0008ZM39.3942 12.8283L39.4615 12.9347L39.5197 12.8975V12.8283H39.3942ZM38.1196 6.25354V6.37899H38.2451V6.25354H38.1196ZM35.1258 6.25354H35.0004V6.37899H35.1258V6.25354ZM35.1258 3.56585V3.4404H35.0004V3.56585H35.1258ZM38.1196 3.56585H38.2451V3.4404H38.1196V3.56585ZM39.4595 12.6195C39.0821 12.3877 38.7118 12.19 38.3505 12.0264L38.2461 12.2542C38.5974 12.4138 38.9587 12.6065 39.329 12.8333L39.4595 12.6195ZM38.3505 12.0264C37.9952 11.8618 37.6238 11.7283 37.2354 11.6239L37.1702 11.8668C37.5456 11.9672 37.9039 12.0956 38.2461 12.2542L38.3505 12.0264ZM37.2354 11.6239C36.846 11.5206 36.4315 11.4473 35.992 11.4042L35.9669 11.6541C36.3944 11.6952 36.7949 11.7665 37.1702 11.8668L37.2354 11.6239ZM35.995 11.4042C35.5634 11.353 35.0827 11.3268 34.5528 11.3268V11.5778C35.0756 11.5778 35.5454 11.6029 35.9649 11.653L35.995 11.4042ZM34.5528 11.3268C33.9365 11.3268 33.3574 11.361 32.8165 11.4302L32.8486 11.6791C33.3775 11.6119 33.9456 11.5778 34.5528 11.5778V11.3268ZM32.8165 11.4302C32.2755 11.4985 31.7175 11.6099 31.1435 11.7645L31.2087 12.0063C31.7727 11.8548 32.3197 11.7464 32.8486 11.6791L32.8165 11.4302ZM31.301 11.8859V8.67426H31.0501V11.8859H31.301ZM31.2097 8.79574C31.8179 8.62713 32.391 8.49566 32.9299 8.40333L32.8877 8.1564C32.3398 8.25074 31.7577 8.38322 31.1424 8.55383L31.2097 8.79574ZM32.9299 8.40333C33.4739 8.31099 34.062 8.26483 34.6923 8.26483V8.01392C34.0499 8.01392 33.4478 8.06106 32.8877 8.1564L32.9299 8.40333ZM34.6923 8.26483C35.3567 8.26483 35.9418 8.32403 36.4486 8.44045L36.5048 8.19555C35.9749 8.07411 35.3707 8.01392 34.6923 8.01392V8.26483ZM36.4486 8.44045C36.9605 8.55787 37.4332 8.70843 37.8677 8.89209L37.9651 8.66122C37.5165 8.47153 37.0287 8.31598 36.5048 8.19555L36.4486 8.44045ZM37.8677 8.89209C38.3053 9.07776 38.7218 9.27949 39.1172 9.49828L39.2387 9.2785C38.8352 9.05569 38.4107 8.8499 37.9651 8.66122L37.8677 8.89209ZM39.1172 9.49828C39.5177 9.72009 39.9312 9.93683 40.3577 10.1506L40.4691 9.92579C40.0466 9.71403 39.6361 9.49829 39.2387 9.2785L39.1172 9.49828ZM40.3587 10.1516C40.5765 10.255 40.8023 10.3463 41.0362 10.4246L41.1155 10.1867C40.8916 10.1115 40.6749 10.0242 40.4681 9.92481L40.3587 10.1516ZM41.0362 10.4246C41.272 10.5029 41.528 10.5681 41.805 10.6203L41.8511 10.3735C41.5841 10.3233 41.3393 10.261 41.1155 10.1867L41.0362 10.4246ZM41.805 10.6203C42.089 10.6715 42.3981 10.7146 42.7323 10.7488L42.7584 10.4989C42.4292 10.4658 42.1281 10.4236 41.8511 10.3735L41.805 10.6203ZM42.7323 10.7488C43.0655 10.7829 43.4408 10.813 43.8584 10.8381L43.8744 10.5882C43.4589 10.5631 43.0876 10.533 42.7584 10.4989L42.7323 10.7488ZM43.7429 10.6926L43.1187 14.4L43.3656 14.4421L43.9898 10.7337L43.7429 10.6926ZM43.213 14.2986C42.7724 14.405 42.2927 14.6147 41.7758 14.9249L41.9043 15.1407C42.4061 14.8386 42.8628 14.6408 43.2712 14.5435L43.213 14.2986ZM41.7769 14.9249C41.273 15.2229 40.716 15.5722 40.1028 15.9727L40.2403 16.1824C40.8505 15.784 41.4055 15.4367 41.9043 15.1407L41.7769 14.9249ZM40.1028 15.9727C39.5016 16.3621 38.8362 16.7725 38.1066 17.2051L38.2351 17.4209C38.9667 16.9873 39.6351 16.5748 40.2393 16.1824L40.1028 15.9727ZM38.1066 17.2051C37.382 17.6356 36.5851 18.0321 35.715 18.3954L35.8113 18.6273C36.6905 18.2599 37.4994 17.8574 38.2351 17.4209L38.1066 17.2051ZM35.716 18.3944C34.8478 18.7486 33.8984 19.0438 32.8677 19.2806L32.9239 19.5255C33.9666 19.2856 34.9281 18.9866 35.8103 18.6273L35.716 18.3944ZM32.8677 19.2806C31.851 19.5165 30.743 19.6339 29.5447 19.6339V19.8848C30.7591 19.8848 31.8861 19.7653 32.9249 19.5255L32.8677 19.2806ZM29.5447 19.6339H28.9977V19.8848H29.5447V19.6339ZM28.9977 19.6339C28.8713 19.6339 28.7669 19.6027 28.6806 19.5415C28.5922 19.4813 28.513 19.386 28.4477 19.2475L28.2209 19.3549C28.3002 19.5225 28.4046 19.656 28.537 19.7483C28.6705 19.8406 28.8261 19.8848 28.9977 19.8848V19.6339ZM28.4477 19.2475C28.3062 18.9564 28.2309 18.552 28.2309 18.0271H27.98C27.98 18.572 28.0573 19.0176 28.2219 19.3558L28.4477 19.2475ZM28.2309 18.0271C28.2309 17.5012 28.3062 17.1027 28.4467 16.8217L28.2229 16.7093C28.0573 17.0395 27.98 17.4821 27.98 18.0271H28.2309ZM28.4487 16.8177C28.5139 16.6752 28.5932 16.5768 28.6816 16.5146C28.7689 16.4524 28.8723 16.4193 28.9977 16.4193V16.1684C28.8251 16.1684 28.6695 16.2145 28.536 16.3099C28.4036 16.4042 28.2992 16.5417 28.2209 16.7133L28.4487 16.8177ZM28.9977 16.4193H29.6601V16.1684H28.9977V16.4193ZM29.6601 16.4193C30.6617 16.4193 31.6091 16.3209 32.5024 16.1232L32.4482 15.8783C31.575 16.072 30.6456 16.1684 29.6601 16.1684V16.4193ZM32.5044 16.1232C33.3936 15.9184 34.2406 15.6525 35.0455 15.3273L34.9512 15.0945C34.1593 15.4146 33.3253 15.6766 32.4482 15.8783L32.5044 16.1232ZM35.0455 15.3273C35.8484 14.9941 36.6142 14.6217 37.3408 14.2123L37.2174 13.9935C36.4998 14.398 35.7441 14.7653 34.9502 15.0955L35.0455 15.3273ZM37.3408 14.2123C38.0735 13.7958 38.78 13.3683 39.4615 12.9347L39.327 12.7229C38.6485 13.1545 37.946 13.578 37.2174 13.9935L37.3408 14.2123ZM39.5197 12.8283V12.7269H39.2688V12.8283H39.5197ZM38.1196 6.12808H35.1258V6.37899H38.1196V6.12808ZM35.2513 6.25354V3.56585H35.0004V6.25354H35.2513ZM35.1258 3.69131H38.1196V3.4404H35.1258V3.69131ZM37.9942 3.56585V6.25354H38.2451V3.56585H37.9942ZM47.5487 19.7212L47.5597 19.5968H47.5587L47.5487 19.7212ZM45.4461 19.4412L45.3237 19.4652L45.3397 19.5495L45.424 19.5646L45.4461 19.4412ZM44.7586 15.9375L44.7757 15.8131L44.601 15.788L44.6352 15.9616L44.7586 15.9375ZM50.7593 16.2306L50.7874 16.353L50.7894 16.352L50.7593 16.2306ZM51.2822 10.9305L51.1607 10.9635V10.9646L51.2822 10.9305ZM49.6633 6.10101V5.97556H49.4817L49.5459 6.14517L49.6633 6.10101ZM52.8749 6.10101L52.9933 6.06089L52.9642 5.97556H52.8749V6.10101ZM55.5506 15.3896L55.4422 15.4537L55.4452 15.4578L55.5506 15.3896ZM57.334 16.2938H57.4595V16.1684H57.334V16.2938ZM57.334 19.7593V19.8848H57.4595V19.7593H57.334ZM55.4613 19.39L55.397 19.4984L55.4 19.4994L55.4613 19.39ZM54.8109 18.8551L54.7176 18.9384L54.7186 18.9403L54.8109 18.8551ZM54.276 18.0271L54.3884 17.9719L54.3543 17.9016H54.276V18.0271ZM54.2127 18.0271V17.9016H54.1515L54.1134 17.9498L54.2127 18.0271ZM53.2563 18.8932L53.3215 19.0006L53.3235 18.9996L53.2563 18.8932ZM52.059 19.4412L52.0971 19.5606H52.0991L52.059 19.4412ZM50.7081 19.7212L50.695 19.5968H50.693L50.7081 19.7212ZM49.2559 19.685C48.7771 19.685 48.2111 19.656 47.5597 19.5968L47.5376 19.8466C48.194 19.9058 48.7671 19.9359 49.2559 19.9359V19.685ZM47.5587 19.5968C46.9094 19.5456 46.2129 19.4532 45.4692 19.3177L45.424 19.5646C46.1747 19.7011 46.8803 19.7954 47.5387 19.8466L47.5587 19.5968ZM45.5695 19.4171L44.881 15.9134L44.6352 15.9616L45.3237 19.4652L45.5695 19.4171ZM44.7405 16.062C45.694 16.1975 46.5491 16.2998 47.3078 16.3681L47.3309 16.1182C46.5772 16.051 45.7261 15.9486 44.7757 15.8131L44.7405 16.062ZM47.3078 16.3681C48.0665 16.4363 48.755 16.4704 49.3703 16.4704V16.2195C48.7641 16.2195 48.0836 16.1854 47.3309 16.1182L47.3078 16.3681ZM49.3703 16.4704C49.9604 16.4704 50.4341 16.4323 50.7874 16.353L50.7322 16.1081C50.405 16.1814 49.9524 16.2195 49.3703 16.2195V16.4704ZM50.7894 16.352C51.1477 16.2647 51.4317 16.1392 51.6314 15.9686L51.4678 15.7779C51.3103 15.9134 51.0684 16.0259 50.7302 16.1081L50.7894 16.352ZM51.6314 15.9686C51.8372 15.79 51.9717 15.5722 52.0289 15.3143L51.784 15.2601C51.7388 15.4618 51.6354 15.6344 51.4678 15.779L51.6314 15.9686ZM52.0289 15.3143C52.0821 15.0744 52.1081 14.8014 52.1081 14.4973H51.8572C51.8572 14.7883 51.8322 15.0423 51.784 15.2601L52.0289 15.3143ZM52.1081 14.4973C52.1081 14.0948 52.0429 13.58 51.9145 12.9558L51.6686 13.0069C51.795 13.6232 51.8572 14.1189 51.8572 14.4973H52.1081ZM51.9145 12.9558C51.786 12.3325 51.6154 11.645 51.4026 10.8953L51.1607 10.9646C51.3725 11.7093 51.5421 12.3897 51.6686 13.0069L51.9145 12.9558ZM51.4026 10.8963C51.1898 10.1376 50.9429 9.3457 50.6619 8.51971L50.4241 8.60002C50.7041 9.42299 50.949 10.2098 51.1607 10.9635L51.4026 10.8963ZM50.6619 8.51971C50.3809 7.6857 50.0879 6.86476 49.7807 6.05684L49.5459 6.14517C49.852 6.95108 50.1441 7.76902 50.4241 8.60002L50.6619 8.51971ZM49.6633 6.22646H52.8749V5.97556H49.6633V6.22646ZM52.7555 6.14113C53.2392 7.56628 53.6417 8.88006 53.9638 10.0834L54.2057 10.0182C53.8826 8.8088 53.4781 7.49005 52.9933 6.06089L52.7555 6.14113ZM53.9638 10.0834C54.286 11.2797 54.57 12.4248 54.8159 13.5188L55.0608 13.4636C54.8139 12.3656 54.5289 11.2175 54.2057 10.0182L53.9638 10.0834ZM54.8159 13.5188C54.8932 13.851 54.9735 14.1842 55.0588 14.5164L55.3027 14.4532C55.2174 14.123 55.1371 13.7938 55.0608 13.4636L54.8159 13.5188ZM55.0588 14.5164C55.1471 14.8576 55.2746 15.1707 55.4422 15.4537L55.658 15.3253C55.5034 15.0644 55.384 14.7743 55.3027 14.4532L55.0588 14.5164ZM55.4452 15.4578C55.6258 15.7378 55.8647 15.9676 56.1608 16.1463L56.2903 15.9315C56.0253 15.7719 55.8145 15.5682 55.656 15.3213L55.4452 15.4578ZM56.1608 16.1463C56.4669 16.3319 56.8613 16.4193 57.334 16.4193V16.1684C56.8894 16.1684 56.5452 16.086 56.2903 15.9315L56.1608 16.1463ZM57.2086 16.2938V19.7593H57.4595V16.2938H57.2086ZM57.334 19.6339H56.9516V19.8848H57.334V19.6339ZM56.9516 19.6339C56.6977 19.6339 56.4488 19.6058 56.2029 19.5486L56.1447 19.7924C56.4097 19.8546 56.6787 19.8848 56.9516 19.8848V19.6339ZM56.2039 19.5486C55.9691 19.4913 55.7413 19.4031 55.5215 19.2806L55.4 19.4994C55.6389 19.6328 55.8878 19.7302 56.1447 19.7924L56.2039 19.5486ZM55.5245 19.2826C55.3077 19.1531 55.1 18.9825 54.9032 18.7697L54.7186 18.9403C54.9303 19.1692 55.1562 19.3549 55.397 19.4984L55.5245 19.2826ZM54.9052 18.7718C54.7186 18.561 54.546 18.295 54.3884 17.9719L54.1636 18.0823C54.3282 18.4205 54.5128 18.7075 54.7176 18.9384L54.9052 18.7718ZM54.276 17.9016H54.2127V18.1525H54.276V17.9016ZM54.1134 17.9498C53.8504 18.287 53.5423 18.566 53.1901 18.7868L53.3235 18.9996C53.7009 18.7627 54.0311 18.4637 54.3111 18.1044L54.1134 17.9498ZM53.1921 18.7858C52.8348 19.0016 52.4444 19.1802 52.0198 19.3217L52.0991 19.5606C52.5397 19.4131 52.9482 19.2264 53.3215 19.0006L53.1921 18.7858ZM52.0198 19.3217C51.6033 19.4552 51.1627 19.5466 50.695 19.5968L50.7221 19.8466C51.2049 19.7944 51.6635 19.6991 52.0971 19.5606L52.0198 19.3217ZM50.693 19.5968C50.2223 19.656 49.7436 19.685 49.2559 19.685V19.9359C49.7536 19.9359 50.2434 19.9059 50.7242 19.8456L50.693 19.5968ZM56.6716 19.3006L56.785 19.2475L56.784 19.2465L56.6716 19.3006ZM56.6716 16.7655L56.784 16.8217L56.785 16.8177L56.6716 16.7655ZM60.5958 16.0519L60.5316 15.9436L60.5296 15.9456L60.5958 16.0519ZM61.0163 15.5551L61.1317 15.6043L61.1327 15.6023L61.0163 15.5551ZM61.1568 0.125453V0H61.0314V0.125453H61.1568ZM63.8706 0.125453H63.9961V0H63.8706V0.125453ZM63.4501 17.2372L63.5655 17.2864V17.2854L63.4501 17.2372ZM60.7363 19.5435L60.7082 19.4211H60.7062L60.7363 19.5435ZM58.8886 19.6339H57.334V19.8848H58.8886V19.6339ZM57.334 19.6339C57.2076 19.6339 57.1042 19.6027 57.0169 19.5415C56.9286 19.4813 56.8503 19.386 56.785 19.2475L56.5582 19.3549C56.6375 19.5225 56.7409 19.656 56.8744 19.7483C57.0078 19.8406 57.1624 19.8848 57.334 19.8848V19.6339ZM56.784 19.2465C56.6425 18.9554 56.5673 18.552 56.5673 18.0271H56.3163C56.3163 18.572 56.3946 19.0166 56.5582 19.3549L56.784 19.2465ZM56.5673 18.0271C56.5673 17.5012 56.6425 17.1027 56.784 16.8217L56.5592 16.7093C56.3936 17.0395 56.3163 17.4821 56.3163 18.0271H56.5673ZM56.785 16.8177C56.8513 16.6752 56.9296 16.5768 57.0179 16.5146C57.1052 16.4524 57.2086 16.4193 57.334 16.4193V16.1684C57.1624 16.1684 57.0068 16.2145 56.8724 16.3099C56.7399 16.4042 56.6365 16.5417 56.5572 16.7133L56.785 16.8177ZM57.334 16.4193H59.0161V16.1684H57.334V16.4193ZM59.0161 16.4193C59.3583 16.4193 59.6644 16.4062 59.9324 16.3811L59.9083 16.1312C59.6504 16.1563 59.3523 16.1684 59.0161 16.1684V16.4193ZM59.9324 16.3811C60.2174 16.354 60.4623 16.2818 60.662 16.1583L60.5296 15.9456C60.372 16.0429 60.1672 16.1072 59.9083 16.1312L59.9324 16.3811ZM60.66 16.1603C60.8718 16.0349 61.0294 15.8472 61.1317 15.6043L60.9009 15.5059C60.8166 15.7047 60.6931 15.8482 60.5316 15.9436L60.66 16.1603ZM61.1327 15.6023C61.2351 15.3514 61.2823 15.0142 61.2823 14.5997H61.0314C61.0314 15.0002 60.9842 15.3002 60.8999 15.508L61.1327 15.6023ZM61.2823 14.5997V0.125453H61.0314V14.5997H61.2823ZM61.1568 0.250906H63.8706V0H61.1568V0.250906ZM63.7452 0.125453V14.689H63.9961V0.125453H63.7452ZM63.7452 14.689C63.7452 15.7147 63.6057 16.5457 63.3347 17.188L63.5655 17.2854C63.8546 16.6029 63.9961 15.7348 63.9961 14.689H63.7452ZM63.3347 17.188C63.0607 17.8273 62.6984 18.3221 62.2498 18.6804L62.4073 18.8761C62.8931 18.4877 63.2785 17.9558 63.5655 17.2864L63.3347 17.188ZM62.2498 18.6804C61.8062 19.0417 61.2933 19.2886 60.7082 19.4211L60.7634 19.666C61.3846 19.5255 61.9336 19.2625 62.4073 18.8761L62.2498 18.6804ZM60.7062 19.4211C60.1221 19.5636 59.5159 19.6339 58.8886 19.6339V19.8848C59.535 19.8848 60.1612 19.8115 60.7654 19.665L60.7062 19.4211ZM67.6924 19.4412H67.567V19.5666H67.6924V19.4412ZM67.6924 0.125453V0H67.567V0.125453H67.6924ZM70.4062 0.125453H70.5317V0H70.4062V0.125453ZM70.4062 19.4412V19.5666H70.5317V19.4412H70.4062ZM67.8179 19.4412V0.125453H67.567V19.4412H67.8179ZM67.6924 0.250906H70.4062V0H67.6924V0.250906ZM70.2808 0.125453V19.4412H70.5317V0.125453H70.2808ZM70.4062 19.3157H67.6924V19.5666H70.4062V19.3157ZM94.5514 18.6132V18.4877H94.445L94.428 18.5921L94.5514 18.6132ZM81.7843 19.9641L81.9057 19.932V19.9309L81.7843 19.9641ZM81.8997 12.8664V12.741H81.7953L81.7763 12.8434L81.8997 12.8664ZM84.5754 12.8664L84.6988 12.8875L84.7229 12.741H84.5754V12.8664ZM84.3586 14.2173L84.2341 14.1982V14.2003L84.3586 14.2173ZM84.2311 15.249L84.1057 15.235V15.239L84.2311 15.249ZM86.0527 20.1929L86.0908 20.0735L86.0888 20.0725L86.0527 20.1929ZM90.0281 20.1166L89.9879 19.9972L89.9859 19.9982L90.0281 20.1166ZM92.1307 17.5553L92.2531 17.5825V17.5814L92.1307 17.5553ZM92.3474 0.125453V0H92.222V0.125453H92.3474ZM95.0612 0.125453H95.1867V0H95.0612V0.125453ZM95.3412 15.6565L95.2349 15.7227L95.2379 15.7277L95.3412 15.6565ZM95.9916 16.1412L95.9464 16.2587L95.9505 16.2597L95.9916 16.1412ZM97.2401 16.2938H97.3656V16.1684H97.2401V16.2938ZM97.2401 19.7593V19.8848H97.3656V19.7593H97.2401ZM95.4818 19.4924L95.538 19.38L95.537 19.3789L95.4818 19.4924ZM94.6538 18.6132L94.7662 18.558L94.7311 18.4877H94.6538V18.6132ZM94.428 18.5921C94.1339 20.3705 93.4283 21.6722 92.3223 22.5143L92.4739 22.714C93.6441 21.8228 94.3737 20.4568 94.6748 18.6333L94.428 18.5921ZM92.3223 22.5143C91.2123 23.3583 89.6878 23.7879 87.7348 23.7879V24.0388C89.723 24.0388 91.3067 23.6022 92.4739 22.714L92.3223 22.5143ZM87.7348 23.7879C86.6067 23.7879 85.6543 23.6403 84.8735 23.3503L84.7861 23.5852C85.6021 23.8893 86.5866 24.0388 87.7348 24.0388V23.7879ZM84.8735 23.3503C84.0926 23.0593 83.4614 22.6287 82.9756 22.0606L82.7849 22.2242C83.3018 22.8274 83.9692 23.2811 84.7861 23.5852L84.8735 23.3503ZM82.9756 22.0606C82.4888 21.4916 82.1316 20.783 81.9057 19.932L81.6629 19.9952C81.8967 20.8774 82.27 21.621 82.7849 22.2242L82.9756 22.0606ZM81.9057 19.9309C81.6799 19.0859 81.5655 18.0993 81.5655 16.9692H81.3146C81.3146 18.1154 81.431 19.124 81.6629 19.9952L81.9057 19.9309ZM81.5655 16.9692C81.5655 16.3962 81.5996 15.794 81.6669 15.1607L81.418 15.1336C81.3497 15.7749 81.3146 16.3871 81.3146 16.9692H81.5655ZM81.6669 15.1607C81.7351 14.5284 81.8525 13.7717 82.0222 12.8905L81.7763 12.8434C81.6057 13.7286 81.4862 14.4923 81.418 15.1336L81.6669 15.1607ZM81.8997 12.9919H84.5754V12.741H81.8997V12.9919ZM84.4509 12.8464C84.3666 13.3562 84.2933 13.8068 84.2341 14.1982L84.482 14.2364C84.5413 13.846 84.6135 13.3963 84.6988 12.8875L84.4509 12.8464ZM84.2341 14.2003C84.183 14.5836 84.1388 14.9289 84.1057 15.235L84.3556 15.2631C84.3897 14.958 84.4319 14.6157 84.483 14.2333L84.2341 14.2003ZM84.1057 15.239C84.0806 15.5371 84.0635 15.8071 84.0545 16.0479L84.3054 16.0569C84.3134 15.8211 84.3305 15.5561 84.3556 15.2601L84.1057 15.239ZM84.0545 16.0469C84.0465 16.2777 84.0415 16.5006 84.0415 16.7143H84.2924C84.2924 16.5036 84.2964 16.2848 84.3054 16.0569L84.0545 16.0469ZM84.0415 16.7143C84.0415 17.3496 84.0977 17.9076 84.2111 18.3874L84.4549 18.3292C84.3475 17.8735 84.2924 17.3366 84.2924 16.7143H84.0415ZM84.2111 18.3874C84.3255 18.8721 84.5292 19.2786 84.8263 19.6028L85.0109 19.4331C84.748 19.1451 84.5613 18.7788 84.4549 18.3292L84.2111 18.3874ZM84.8263 19.6028C85.1244 19.9279 85.5238 20.1638 86.0166 20.3133L86.0888 20.0725C85.6312 19.934 85.2739 19.7192 85.0109 19.4331L84.8263 19.6028ZM86.0156 20.3123C86.5154 20.4709 87.1457 20.5482 87.9004 20.5482V20.2973C87.1607 20.2973 86.5585 20.221 86.0908 20.0735L86.0156 20.3123ZM87.9004 20.5482C88.7585 20.5482 89.4831 20.4448 90.0702 20.2351L89.9859 19.9982C89.4349 20.1959 88.7404 20.2973 87.9004 20.2973V20.5482ZM90.0682 20.2351C90.6664 20.0333 91.1461 19.7101 91.5024 19.2645L91.3067 19.108C90.9835 19.5115 90.5459 19.8085 89.9879 19.9972L90.0682 20.2351ZM91.5024 19.2645C91.8567 18.8219 92.1056 18.2589 92.2531 17.5825L92.0082 17.5283C91.8667 18.1766 91.6319 18.7015 91.3067 19.108L91.5024 19.2645ZM92.2531 17.5814C92.3996 16.9 92.4729 16.088 92.4729 15.1477H92.222C92.222 16.076 92.1497 16.8679 92.0082 17.5283L92.2531 17.5814ZM92.4729 15.1477V0.125453H92.222V15.1477H92.4729ZM92.3474 0.250906H95.0612V0H92.3474V0.250906ZM94.9358 0.125453V13.6694H95.1867V0.125453H94.9358ZM94.9358 13.6694C94.9358 14.122 94.9488 14.5154 94.9739 14.8516L95.2238 14.8315C95.1987 14.5043 95.1867 14.117 95.1867 13.6694H94.9358ZM94.9739 14.8516C95.001 15.1888 95.0863 15.4809 95.2349 15.7227L95.4486 15.5913C95.3252 15.3905 95.2489 15.1396 95.2238 14.8315L94.9739 14.8516ZM95.2379 15.7277C95.3995 15.9646 95.6383 16.1402 95.9464 16.2587L96.0358 16.0238C95.7658 15.9204 95.5721 15.7739 95.4446 15.5862L95.2379 15.7277ZM95.9505 16.2597C96.2666 16.3681 96.6992 16.4193 97.2401 16.4193V16.1684C96.7102 16.1684 96.3097 16.1182 96.0317 16.0228L95.9505 16.2597ZM97.1147 16.2938V19.7593H97.3656V16.2938H97.1147ZM97.2401 19.6339H96.7042V19.8848H97.2401V19.6339ZM96.7042 19.6339C96.2626 19.6339 95.8742 19.5486 95.538 19.38L95.4255 19.6048C95.8019 19.7925 96.2295 19.8848 96.7042 19.8848V19.6339ZM95.537 19.3789C95.2178 19.2244 94.9599 18.9544 94.7662 18.558L94.5404 18.6684C94.7541 19.1039 95.0482 19.4201 95.4266 19.6048L95.537 19.3789ZM94.6538 18.4877H94.5514V18.7386H94.6538V18.4877ZM96.5777 19.3006L96.6911 19.2475L96.6901 19.2465L96.5777 19.3006ZM96.5777 16.7655L96.6891 16.8217L96.6911 16.8177L96.5777 16.7655ZM99.979 16.2557L99.992 16.3811L99.9961 16.3801L99.979 16.2557ZM100.947 15.5421L100.828 15.5029V15.505L100.947 15.5421ZM101.062 8.54783V8.42238H100.936V8.54783H101.062ZM103.776 8.54783H103.901V8.42238H103.776V8.54783ZM104.057 15.6696L103.95 15.7378L103.952 15.7398L104.057 15.6696ZM105.955 16.2938H106.08V16.1684H105.955V16.2938ZM105.955 19.7593V19.8848H106.08V19.7593H105.955ZM103.471 19.4161L103.418 19.5305H103.42L103.471 19.4161ZM102.31 18.294L102.424 18.2398L102.39 18.1686H102.31V18.294ZM102.234 18.294V18.1686H102.171L102.134 18.2198L102.234 18.294ZM100.641 19.4663L100.598 19.3489L100.597 19.3498L100.641 19.4663ZM100.769 24.1683V24.2937H100.894V24.1683H100.769ZM97.775 24.1683H97.6496V24.2937H97.775V24.1683ZM97.775 21.4795V21.3541H97.6496V21.4795H97.775ZM100.769 21.4795H100.894V21.3541H100.769V21.4795ZM105.127 24.1683V24.2937H105.252V24.1683H105.127ZM102.133 24.1683H102.007V24.2937H102.133V24.1683ZM102.133 21.4795V21.3541H102.007V21.4795H102.133ZM105.127 21.4795H105.252V21.3541H105.127V21.4795ZM98.9212 19.6339H97.2401V19.8848H98.9212V19.6339ZM97.2401 19.6339C97.1137 19.6339 97.0103 19.6027 96.923 19.5415C96.8346 19.4813 96.7564 19.386 96.6911 19.2475L96.4633 19.3549C96.5426 19.5225 96.647 19.656 96.7794 19.7483C96.9129 19.8406 97.0685 19.8848 97.2401 19.8848V19.6339ZM96.6901 19.2465C96.5486 18.9554 96.4733 18.552 96.4733 18.0271H96.2224C96.2224 18.572 96.2997 19.0176 96.4643 19.3558L96.6901 19.2465ZM96.4733 18.0271C96.4733 17.5012 96.5486 17.1027 96.6891 16.8217L96.4653 16.7093C96.2997 17.0395 96.2224 17.4821 96.2224 18.0271H96.4733ZM96.6911 16.8177C96.7564 16.6752 96.8357 16.5768 96.924 16.5146C97.0113 16.4524 97.1147 16.4193 97.2401 16.4193V16.1684C97.0675 16.1684 96.9119 16.2145 96.7784 16.3099C96.646 16.4042 96.5426 16.5417 96.4633 16.7133L96.6911 16.8177ZM97.2401 16.4193H99.0486V16.1684H97.2401V16.4193ZM99.0486 16.4193C99.417 16.4193 99.7311 16.4062 99.992 16.3811L99.967 16.1312C99.7171 16.1563 99.4119 16.1684 99.0486 16.1684V16.4193ZM99.9961 16.3801C100.264 16.344 100.493 16.2677 100.675 16.1432L100.533 15.9355C100.391 16.0319 100.204 16.0991 99.9629 16.1312L99.9961 16.3801ZM100.675 16.1432C100.863 16.0138 100.993 15.8221 101.067 15.5792L100.828 15.505C100.767 15.7047 100.666 15.8442 100.533 15.9355L100.675 16.1432ZM101.067 15.5823C101.149 15.3344 101.187 15.0042 101.187 14.5997H100.936C100.936 14.9931 100.898 15.2922 100.828 15.5029L101.067 15.5823ZM101.187 14.5997V8.54783H100.936V14.5997H101.187ZM101.062 8.67328H103.776V8.42238H101.062V8.67328ZM103.65 8.54783V13.7205H103.901V8.54783H103.65ZM103.65 13.7205C103.65 14.1641 103.663 14.5495 103.689 14.8767L103.939 14.8576C103.914 14.5384 103.901 14.1601 103.901 13.7205H103.65ZM103.689 14.8767C103.715 15.2149 103.801 15.5029 103.95 15.7378L104.162 15.6023C104.04 15.4116 103.963 15.1647 103.939 14.8576L103.689 14.8767ZM103.952 15.7398C104.115 15.9787 104.356 16.1503 104.665 16.2597L104.748 16.0228C104.479 15.9285 104.287 15.785 104.16 15.5993L103.952 15.7398ZM104.665 16.2597C104.981 16.3681 105.415 16.4193 105.955 16.4193V16.1684C105.426 16.1684 105.026 16.1182 104.748 16.0228L104.665 16.2597ZM105.829 16.2938V19.7593H106.08V16.2938H105.829ZM105.955 19.6339H105.368V19.8848H105.955V19.6339ZM105.368 19.6339C104.642 19.6339 104.028 19.5214 103.521 19.3006L103.42 19.5305C103.966 19.7683 104.617 19.8848 105.368 19.8848V19.6339ZM103.522 19.3017C103.021 19.0749 102.657 18.7226 102.424 18.2398L102.198 18.3492C102.457 18.8862 102.865 19.2806 103.418 19.5305L103.522 19.3017ZM102.31 18.1686H102.234V18.4195H102.31V18.1686ZM102.134 18.2198C101.92 18.5068 101.683 18.7397 101.424 18.9173L101.567 19.124C101.851 18.9283 102.107 18.6764 102.336 18.3693L102.134 18.2198ZM101.424 18.9173C101.16 19.099 100.885 19.2425 100.598 19.3489L100.686 19.5847C100.993 19.4703 101.287 19.3167 101.567 19.124L101.424 18.9173ZM100.597 19.3498C100.316 19.4562 100.032 19.5305 99.7451 19.5716L99.7803 19.8205C100.087 19.7764 100.389 19.6971 100.687 19.5837L100.597 19.3498ZM99.7451 19.5716C99.4531 19.6138 99.1781 19.6339 98.9212 19.6339V19.8848C99.1911 19.8848 99.4782 19.8637 99.7803 19.8205L99.7451 19.5716ZM100.769 24.0428H97.775V24.2937H100.769V24.0428ZM97.9005 24.1683V21.4795H97.6496V24.1683H97.9005ZM97.775 21.605H100.769V21.3541H97.775V21.605ZM100.643 21.4795V24.1683H100.894V21.4795H100.643ZM105.127 24.0428H102.133V24.2937H105.127V24.0428ZM102.258 24.1683V21.4795H102.007V24.1683H102.258ZM102.133 21.605H105.127V21.3541H102.133V21.605ZM105.001 21.4795V24.1683H105.252V21.4795H105.001ZM116.352 12.7269H116.478V12.6567L116.417 12.6195L116.352 12.7269ZM112.937 11.5286L112.922 11.653L112.925 11.6541L112.937 11.5286ZM108.133 11.8859H108.008V12.0495L108.167 12.0063L108.133 11.8859ZM108.133 8.67426L108.1 8.55383L108.008 8.57895V8.67426H108.133ZM117.371 10.0382L117.315 10.1506L117.317 10.1516L117.371 10.0382ZM118.785 10.4969L118.762 10.6203H118.763L118.785 10.4969ZM120.824 10.7137L120.948 10.7337L120.971 10.5962L120.831 10.5882L120.824 10.7137ZM120.2 14.421L120.231 14.5425L120.309 14.5224L120.323 14.4421L120.2 14.421ZM119.117 14.8667L119.175 14.978L119.176 14.9771L119.117 14.8667ZM117.881 15.5933L117.813 15.4869L117.74 15.5341L117.758 15.6194L117.881 15.5933ZM118.314 16.1924L118.264 16.3078L118.274 16.3108L118.314 16.1924ZM118.798 16.2818L118.787 16.4062H118.793L118.798 16.2818ZM121.207 16.2938H121.332V16.1684H121.207V16.2938ZM121.207 19.7593V19.8848H121.332V19.7593H121.207ZM118.505 19.5305L118.542 19.41H118.54L118.505 19.5305ZM117.269 18.9183L117.187 19.0136L117.19 19.0156L117.269 18.9183ZM116.16 16.7023L116.284 16.6792L116.251 16.4976L116.094 16.5949L116.16 16.7023ZM109.458 19.4793L109.435 19.3558L109.434 19.3569L109.458 19.4793ZM105.292 16.7655L105.405 16.8217L105.407 16.8177L105.292 16.7655ZM111.956 15.2109L112.003 15.3273H112.004L111.956 15.2109ZM116.352 12.8283L116.419 12.9347L116.478 12.8975V12.8283H116.352ZM115.078 24.1683V24.2937H115.203V24.1683H115.078ZM112.084 24.1683H111.958V24.2937H112.084V24.1683ZM112.084 21.4795V21.3541H111.958V21.4795H112.084ZM115.078 21.4795H115.203V21.3541H115.078V21.4795ZM116.417 12.6195C116.04 12.3877 115.67 12.19 115.307 12.0264L115.203 12.2542C115.554 12.4138 115.917 12.6065 116.286 12.8333L116.417 12.6195ZM115.307 12.0264C114.953 11.8618 114.582 11.7283 114.192 11.6239L114.128 11.8668C114.503 11.9672 114.862 12.0956 115.203 12.2542L115.307 12.0264ZM114.192 11.6239C113.803 11.5206 113.388 11.4473 112.949 11.4042L112.925 11.6541C113.352 11.6952 113.753 11.7665 114.128 11.8668L114.192 11.6239ZM112.952 11.4042C112.521 11.353 112.041 11.3268 111.51 11.3268V11.5778C112.033 11.5778 112.503 11.6029 112.922 11.653L112.952 11.4042ZM111.51 11.3268C110.893 11.3268 110.315 11.361 109.774 11.4302L109.805 11.6791C110.335 11.6119 110.903 11.5778 111.51 11.5778V11.3268ZM109.774 11.4302C109.232 11.4985 108.675 11.6099 108.101 11.7645L108.167 12.0063C108.731 11.8548 109.277 11.7464 109.805 11.6791L109.774 11.4302ZM108.259 11.8859V8.67426H108.008V11.8859H108.259ZM108.168 8.79574C108.776 8.62713 109.349 8.49566 109.888 8.40333L109.846 8.1564C109.297 8.25074 108.716 8.38322 108.1 8.55383L108.168 8.79574ZM109.888 8.40333C110.432 8.31099 111.019 8.26483 111.65 8.26483V8.01392C111.007 8.01392 110.406 8.06106 109.846 8.1564L109.888 8.40333ZM111.65 8.26483C112.315 8.26483 112.899 8.32403 113.405 8.44045L113.462 8.19555C112.933 8.07411 112.329 8.01392 111.65 8.01392V8.26483ZM113.405 8.44045C113.917 8.55787 114.391 8.70843 114.825 8.89209L114.923 8.66122C114.473 8.47153 113.987 8.31598 113.462 8.19555L113.405 8.44045ZM114.825 8.89209C115.263 9.07776 115.68 9.27949 116.074 9.49828L116.196 9.2785C115.793 9.05569 115.369 8.8499 114.923 8.66122L114.825 8.89209ZM116.074 9.49828C116.476 9.72009 116.889 9.93683 117.315 10.1506L117.427 9.92579C117.003 9.71403 116.594 9.49829 116.196 9.2785L116.074 9.49828ZM117.317 10.1516C117.534 10.255 117.76 10.3463 117.994 10.4246L118.073 10.1867C117.849 10.1115 117.633 10.0242 117.425 9.92481L117.317 10.1516ZM117.994 10.4246C118.23 10.5029 118.486 10.5681 118.762 10.6203L118.808 10.3735C118.541 10.3233 118.296 10.261 118.073 10.1867L117.994 10.4246ZM118.763 10.6203C119.047 10.6715 119.356 10.7146 119.69 10.7488L119.715 10.4989C119.387 10.4658 119.084 10.4236 118.808 10.3735L118.763 10.6203ZM119.69 10.7488C120.023 10.7829 120.399 10.813 120.816 10.8381L120.831 10.5882C120.417 10.5631 120.044 10.533 119.715 10.4989L119.69 10.7488ZM120.7 10.6926L120.076 14.4L120.323 14.4421L120.948 10.7337L120.7 10.6926ZM120.169 14.2996C119.825 14.3879 119.454 14.5405 119.057 14.7573L119.176 14.9771C119.561 14.7683 119.912 14.6248 120.231 14.5425L120.169 14.2996ZM119.058 14.7562C118.672 14.962 118.257 15.2059 117.813 15.4869L117.948 15.6996C118.387 15.4206 118.797 15.1798 119.175 14.978L119.058 14.7562ZM117.758 15.6194C117.794 15.791 117.851 15.9365 117.932 16.0489L118.136 15.9014C118.081 15.8271 118.035 15.7187 118.003 15.5672L117.758 15.6194ZM117.932 16.0489C118.015 16.1633 118.128 16.2486 118.264 16.3078L118.363 16.077C118.263 16.0339 118.188 15.9747 118.136 15.9014L117.932 16.0489ZM118.274 16.3108C118.415 16.358 118.586 16.3892 118.787 16.4062L118.809 16.1563C118.619 16.1402 118.469 16.1111 118.353 16.073L118.274 16.3108ZM118.793 16.4062C118.991 16.4153 119.239 16.4193 119.537 16.4193V16.1684C119.241 16.1684 118.997 16.1643 118.804 16.1563L118.793 16.4062ZM119.537 16.4193H121.207V16.1684H119.537V16.4193ZM121.081 16.2938V19.7593H121.332V16.2938H121.081ZM121.207 19.6339H120.391V19.8848H121.207V19.6339ZM120.391 19.6339C119.642 19.6339 119.027 19.5586 118.542 19.41L118.469 19.6499C118.986 19.8085 119.627 19.8848 120.391 19.8848V19.6339ZM118.54 19.41C118.051 19.2685 117.655 19.0718 117.349 18.8219L117.19 19.0156C117.528 19.2926 117.957 19.5034 118.471 19.6509L118.54 19.41ZM117.351 18.8239C117.051 18.564 116.82 18.2559 116.657 17.8986L116.428 18.002C116.606 18.3924 116.859 18.7306 117.187 19.0136L117.351 18.8239ZM116.657 17.8986C116.492 17.5353 116.367 17.1288 116.284 16.6792L116.037 16.7244C116.124 17.1921 116.254 17.6186 116.428 18.002L116.657 17.8986ZM116.094 16.5949C115.511 16.9592 114.877 17.3225 114.19 17.6868L114.308 17.9087C114.997 17.5423 115.639 17.175 116.227 16.8087L116.094 16.5949ZM114.191 17.6868C113.517 18.0401 112.782 18.3653 111.988 18.6614L112.076 18.8962C112.879 18.5971 113.623 18.268 114.308 17.9087L114.191 17.6868ZM111.989 18.6603C111.207 18.9474 110.355 19.1792 109.435 19.3558L109.482 19.6028C110.414 19.4231 111.279 19.1882 112.076 18.8962L111.989 18.6603ZM109.434 19.3569C108.526 19.5415 107.548 19.6339 106.503 19.6339V19.8848C107.563 19.8848 108.556 19.7914 109.482 19.6028L109.434 19.3569ZM106.503 19.6339H105.955V19.8848H106.503V19.6339ZM105.955 19.6339C105.829 19.6339 105.725 19.6027 105.637 19.5415C105.549 19.4813 105.471 19.386 105.406 19.2475L105.179 19.3549C105.258 19.5225 105.362 19.656 105.495 19.7483C105.628 19.8406 105.784 19.8848 105.955 19.8848V19.6339ZM105.406 19.2475C105.264 18.9564 105.189 18.552 105.189 18.0271H104.938C104.938 18.572 105.015 19.0176 105.18 19.3558L105.406 19.2475ZM105.189 18.0271C105.189 17.5012 105.264 17.1027 105.405 16.8217L105.18 16.7093C105.015 17.0395 104.938 17.4821 104.938 18.0271H105.189ZM105.407 16.8177C105.472 16.6752 105.551 16.5768 105.639 16.5146C105.726 16.4524 105.829 16.4193 105.955 16.4193V16.1684C105.783 16.1684 105.627 16.2145 105.494 16.3099C105.36 16.4042 105.257 16.5417 105.179 16.7133L105.407 16.8177ZM105.955 16.4193H106.617V16.1684H105.955V16.4193ZM106.617 16.4193C107.62 16.4193 108.567 16.3209 109.46 16.1232L109.406 15.8783C108.533 16.072 107.603 16.1684 106.617 16.1684V16.4193ZM109.46 16.1232C110.349 15.9184 111.199 15.6525 112.003 15.3273L111.909 15.0945C111.117 15.4146 110.282 15.6766 109.405 15.8783L109.46 16.1232ZM112.004 15.3273C112.807 14.9941 113.572 14.6217 114.299 14.2123L114.175 13.9935C113.458 14.398 112.702 14.7653 111.908 15.0955L112.004 15.3273ZM114.299 14.2123C115.031 13.7958 115.738 13.3683 116.419 12.9347L116.284 12.7229C115.606 13.1545 114.903 13.578 114.174 13.9935L114.299 14.2123ZM116.478 12.8283V12.7269H116.227V12.8283H116.478ZM115.078 24.0428H112.084V24.2937H115.078V24.0428ZM112.209 24.1683V21.4795H111.958V24.1683H112.209ZM112.084 21.605H115.078V21.3541H112.084V21.605ZM114.952 21.4795V24.1683H115.203V21.4795H114.952ZM126.214 18.3201V18.1947H126.157L126.119 18.2368L126.214 18.3201ZM125.424 19.0076L125.356 18.9022L125.354 18.9032L125.424 19.0076ZM124.545 19.4542L124.502 19.3358L124.501 19.3368L124.545 19.4542ZM123.639 19.6831L123.622 19.5586L123.618 19.5596L123.639 19.6831ZM120.556 19.3006L120.67 19.2475L120.669 19.2465L120.556 19.3006ZM120.556 16.7655L120.669 16.8217L120.671 16.8177L120.556 16.7655ZM123.601 16.2426L123.585 16.1192H123.584L123.601 16.2426ZM124.838 15.504L124.942 15.5732L124.943 15.5712L124.838 15.504ZM125.055 10.9806V10.8552H124.929V10.9806H125.055ZM127.755 10.9806H127.881V10.8552H127.755V10.9806ZM128.01 15.6826L127.901 15.7438L127.902 15.7458L128.01 15.6826ZM130.329 16.2557L130.343 16.3811L130.347 16.3801L130.329 16.2557ZM130.953 16.0389L130.89 15.9315L130.888 15.9325L130.953 16.0389ZM131.399 15.5421L131.288 15.4849L131.287 15.4859L131.399 15.5421ZM131.578 10.9806V10.8552H131.453V10.9806H131.578ZM134.292 10.9806H134.417V10.8552H134.292V10.9806ZM134.547 15.6696L134.436 15.7307L134.438 15.7338L134.547 15.6696ZM135.133 16.1412L135.087 16.2577L135.089 16.2587L135.133 16.1412ZM137.579 16.0519L137.65 16.1553L137.651 16.1543L137.579 16.0519ZM137.974 15.5421L138.09 15.5913V15.5892L137.974 15.5421ZM138.114 8.54783V8.42238H137.988V8.54783H138.114ZM140.827 8.54783H140.953V8.42238H140.827V8.54783ZM141.109 15.6444L141.001 15.7097L141.004 15.7147L141.109 15.6444ZM141.758 16.1282L141.713 16.2456H141.715L141.758 16.1282ZM143.006 16.2938H143.132V16.1684H143.006V16.2938ZM143.006 19.7593V19.8848H143.132V19.7593H143.006ZM139.49 18.4476L139.596 18.3803L139.505 18.2348L139.394 18.3663L139.49 18.4476ZM138.764 19.0969L138.696 18.9915L138.694 18.9925L138.764 19.0969ZM137.961 19.4924L137.921 19.3729L137.918 19.3739L137.961 19.4924ZM137.095 19.6961L137.08 19.5716H137.076L137.095 19.6961ZM135.259 19.6831L135.279 19.5596L135.276 19.5586L135.259 19.6831ZM134.342 19.4542L134.387 19.3368L134.384 19.3358L134.342 19.4542ZM132.903 18.3201L133.008 18.2529L132.971 18.1947H132.903V18.3201ZM132.852 18.3201V18.1947H132.793L132.756 18.2388L132.852 18.3201ZM132.075 19.0076L132.007 18.9022L132.005 18.9032L132.075 19.0076ZM131.196 19.4542L131.153 19.3358L131.152 19.3368L131.196 19.4542ZM130.303 19.6831L130.285 19.5586L130.282 19.5596L130.303 19.6831ZM126.265 18.3201L126.371 18.2539L126.334 18.1947H126.265V18.3201ZM126.119 18.2368C125.889 18.5008 125.634 18.7226 125.356 18.9022L125.492 19.113C125.791 18.9203 126.063 18.6825 126.308 18.4024L126.119 18.2368ZM125.354 18.9032C125.082 19.0849 124.798 19.2294 124.502 19.3358L124.587 19.5716C124.903 19.4582 125.205 19.3047 125.493 19.112L125.354 18.9032ZM124.501 19.3368C124.211 19.4432 123.919 19.5174 123.622 19.5586L123.657 19.8075C123.972 19.7633 124.283 19.6851 124.588 19.5716L124.501 19.3368ZM123.618 19.5596C123.327 19.6098 123.05 19.6339 122.786 19.6339V19.8848C123.065 19.8848 123.357 19.8587 123.661 19.8065L123.618 19.5596ZM122.786 19.6339H121.219V19.8848H122.786V19.6339ZM121.219 19.6339C121.093 19.6339 120.989 19.6027 120.902 19.5415C120.813 19.4813 120.735 19.386 120.67 19.2475L120.443 19.3549C120.522 19.5225 120.627 19.656 120.759 19.7483C120.893 19.8406 121.048 19.8848 121.219 19.8848V19.6339ZM120.669 19.2465C120.528 18.9554 120.453 18.552 120.453 18.0271H120.202C120.202 18.572 120.279 19.0176 120.444 19.3558L120.669 19.2465ZM120.453 18.0271C120.453 17.5012 120.528 17.1027 120.669 16.8217L120.444 16.7093C120.279 17.0395 120.202 17.4821 120.202 18.0271H120.453ZM120.671 16.8177C120.736 16.6752 120.815 16.5768 120.904 16.5146C120.99 16.4524 121.093 16.4193 121.219 16.4193V16.1684C121.047 16.1684 120.892 16.2145 120.758 16.3099C120.625 16.4042 120.521 16.5417 120.443 16.7133L120.671 16.8177ZM121.219 16.4193H122.914V16.1684H121.219V16.4193ZM122.914 16.4193C123.133 16.4193 123.367 16.4022 123.618 16.3671L123.584 16.1192C123.342 16.1523 123.12 16.1684 122.914 16.1684V16.4193ZM123.618 16.3671C123.887 16.332 124.136 16.2506 124.364 16.1232L124.241 15.9044C124.043 16.0148 123.825 16.0871 123.585 16.1192L123.618 16.3671ZM124.364 16.1232C124.595 15.9937 124.788 15.809 124.942 15.5732L124.732 15.4357C124.598 15.6404 124.434 15.796 124.241 15.9044L124.364 16.1232ZM124.943 15.5712C125.105 15.3153 125.18 14.9881 125.18 14.5997H124.929C124.929 14.958 124.859 15.234 124.731 15.4377L124.943 15.5712ZM125.18 14.5997V10.9806H124.929V14.5997H125.18ZM125.055 11.1061H127.755V10.8552H125.055V11.1061ZM127.63 10.9806V13.7587H127.881V10.9806H127.63ZM127.63 13.7587C127.63 14.1942 127.643 14.5756 127.668 14.9028L127.919 14.8827C127.894 14.5636 127.881 14.1892 127.881 13.7587H127.63ZM127.668 14.9028C127.695 15.23 127.77 15.512 127.901 15.7438L128.12 15.6213C128.011 15.4286 127.943 15.1838 127.919 14.8827L127.668 14.9028ZM127.902 15.7458C128.036 15.9767 128.242 16.1463 128.51 16.2567L128.606 16.0248C128.382 15.9325 128.222 15.796 128.119 15.6194L127.902 15.7458ZM128.51 16.2567C128.778 16.3681 129.141 16.4193 129.59 16.4193V16.1684C129.155 16.1684 128.83 16.1182 128.606 16.0248L128.51 16.2567ZM129.59 16.4193C129.849 16.4193 130.1 16.4072 130.343 16.3811L130.316 16.1312C130.083 16.1563 129.841 16.1684 129.59 16.1684V16.4193ZM130.347 16.3801C130.6 16.344 130.824 16.2667 131.019 16.1463L130.888 15.9325C130.726 16.0329 130.534 16.1001 130.312 16.1312L130.347 16.3801ZM131.017 16.1473C131.228 16.0228 131.391 15.8382 131.512 15.5983L131.287 15.4859C131.186 15.6886 131.053 15.8351 130.89 15.9315L131.017 16.1473ZM131.511 15.6003C131.642 15.3454 131.704 15.0092 131.704 14.5997H131.453C131.453 14.9881 131.393 15.2801 131.288 15.4849L131.511 15.6003ZM131.704 14.5997V10.9806H131.453V14.5997H131.704ZM131.578 11.1061H134.292V10.8552H131.578V11.1061ZM134.166 10.9806V13.7205H134.417V10.9806H134.166ZM134.166 13.7205C134.166 14.1641 134.178 14.5495 134.205 14.8767L134.454 14.8576C134.429 14.5384 134.417 14.1601 134.417 13.7205H134.166ZM134.205 14.8767C134.231 15.2119 134.307 15.4989 134.436 15.7307L134.656 15.6084C134.548 15.4167 134.48 15.1677 134.454 14.8576L134.205 14.8767ZM134.438 15.7338C134.583 15.9737 134.802 16.1473 135.087 16.2577L135.178 16.0238C134.936 15.9305 134.765 15.79 134.654 15.6053L134.438 15.7338ZM135.089 16.2587C135.381 16.3681 135.776 16.4193 136.266 16.4193V16.1684C135.788 16.1684 135.428 16.1181 135.176 16.0238L135.089 16.2587ZM136.266 16.4193C136.534 16.4193 136.781 16.4062 137.007 16.3801L136.979 16.1312C136.763 16.1563 136.526 16.1684 136.266 16.1684V16.4193ZM137.007 16.3801C137.253 16.353 137.468 16.2798 137.65 16.1553L137.508 15.9486C137.366 16.0449 137.191 16.1072 136.979 16.1312L137.007 16.3801ZM137.651 16.1543C137.843 16.0198 137.988 15.8301 138.09 15.5913L137.858 15.4939C137.772 15.6957 137.655 15.8462 137.506 15.9496L137.651 16.1543ZM138.09 15.5892C138.192 15.3393 138.239 15.0062 138.239 14.5997H137.988C137.988 14.9911 137.942 15.2862 137.858 15.4939L138.09 15.5892ZM138.239 14.5997V8.54783H137.988V14.5997H138.239ZM138.114 8.67328H140.827V8.42238H138.114V8.67328ZM140.702 8.54783V13.6442H140.953V8.54783H140.702ZM140.702 13.6442C140.702 14.0959 140.715 14.4903 140.741 14.8255L140.991 14.8065C140.966 14.4793 140.953 14.0919 140.953 13.6442H140.702ZM140.741 14.8255C140.767 15.1718 140.853 15.4678 141.001 15.7097L141.215 15.5782C141.092 15.3785 141.015 15.1236 140.991 14.8065L140.741 14.8255ZM141.004 15.7147C141.166 15.9526 141.406 16.1282 141.713 16.2456L141.803 16.0108C141.533 15.9084 141.339 15.7609 141.212 15.5742L141.004 15.7147ZM141.715 16.2456C142.032 16.364 142.465 16.4193 143.006 16.4193V16.1684C142.477 16.1684 142.079 16.1141 141.802 16.0108L141.715 16.2456ZM142.881 16.2938V19.7593H143.132V16.2938H142.881ZM143.006 19.6339H142.42V19.8848H143.006V19.6339ZM142.42 19.6339C141.735 19.6339 141.166 19.5375 140.71 19.3508L140.615 19.5827C141.109 19.7864 141.713 19.8848 142.42 19.8848V19.6339ZM140.71 19.3508C140.261 19.1661 139.889 18.845 139.596 18.3803L139.384 18.5148C139.702 19.0177 140.112 19.3759 140.615 19.5827L140.71 19.3508ZM139.394 18.3663C139.181 18.6212 138.948 18.829 138.696 18.9915L138.831 19.2023C139.106 19.0257 139.358 18.7999 139.586 18.5279L139.394 18.3663ZM138.694 18.9925C138.448 19.1571 138.191 19.2836 137.921 19.3729L138 19.6108C138.292 19.5144 138.569 19.3769 138.833 19.2013L138.694 18.9925ZM137.918 19.3739C137.647 19.4733 137.368 19.5385 137.08 19.5716L137.109 19.8205C137.416 19.7854 137.714 19.7152 138.004 19.6098L137.918 19.3739ZM137.076 19.5716C136.793 19.6138 136.515 19.6339 136.241 19.6339V19.8848C136.528 19.8848 136.818 19.8637 137.113 19.8205L137.076 19.5716ZM136.241 19.6339C135.916 19.6339 135.596 19.6088 135.279 19.5596L135.24 19.8075C135.57 19.8587 135.904 19.8848 136.241 19.8848V19.6339ZM135.276 19.5586C134.962 19.5174 134.666 19.4432 134.387 19.3368L134.298 19.5707C134.596 19.6851 134.911 19.7643 135.243 19.8075L135.276 19.5586ZM134.384 19.3358C134.108 19.2385 133.851 19.1 133.615 18.9203L133.464 19.121C133.721 19.3157 134 19.4662 134.301 19.5726L134.384 19.3358ZM133.615 18.9203C133.382 18.7437 133.18 18.5208 133.008 18.2529L132.796 18.3874C132.982 18.6794 133.205 18.9243 133.464 19.121L133.615 18.9203ZM132.903 18.1947H132.852V18.4456H132.903V18.1947ZM132.756 18.2388C132.535 18.5018 132.285 18.7226 132.007 18.9022L132.143 19.113C132.442 18.9193 132.71 18.6814 132.948 18.4004L132.756 18.2388ZM132.005 18.9032C131.733 19.0849 131.449 19.2294 131.153 19.3358L131.238 19.5716C131.554 19.4582 131.856 19.3047 132.144 19.112L132.005 18.9032ZM131.152 19.3368C130.863 19.4442 130.573 19.5174 130.285 19.5586L130.322 19.8075C130.628 19.7633 130.933 19.6851 131.238 19.5716L131.152 19.3368ZM130.282 19.5596C129.991 19.6098 129.717 19.6339 129.462 19.6339V19.8848C129.733 19.8848 130.021 19.8587 130.325 19.8065L130.282 19.5596ZM129.462 19.6339C128.701 19.6339 128.073 19.5255 127.575 19.3127L127.476 19.5435C128.015 19.7734 128.679 19.8848 129.462 19.8848V19.6339ZM127.575 19.3127C127.083 19.103 126.681 18.7517 126.371 18.2539L126.158 18.3863C126.493 18.9243 126.933 19.3117 127.476 19.5435L127.575 19.3127ZM126.265 18.1947H126.214V18.4456H126.265V18.1947ZM142.344 19.3006L142.457 19.2475L142.456 19.2465L142.344 19.3006ZM142.344 16.7655L142.456 16.8217L142.458 16.8177L142.344 16.7655ZM146.332 16.0519L146.264 15.9466L146.261 15.9486L146.332 16.0519ZM146.702 15.5551L146.584 15.512L146.583 15.514L146.702 15.5551ZM146.829 8.54783V8.42238H146.704V8.54783H146.829ZM149.543 8.54783H149.668V8.42238H149.543V8.54783ZM149.135 17.2372L149.019 17.189V17.1901L149.135 17.2372ZM146.523 19.5435L146.495 19.4211H146.493L146.523 19.5435ZM147.517 5.98658V6.11203H147.642V5.98658H147.517ZM144.523 5.98658H144.397V6.11203H144.523V5.98658ZM144.523 3.29786V3.1724H144.397V3.29786H144.523ZM147.517 3.29786H147.642V3.1724H147.517V3.29786ZM151.874 5.98658V6.11203H152V5.98658H151.874ZM148.881 5.98658H148.755V6.11203H148.881V5.98658ZM148.881 3.29786V3.1724H148.755V3.29786H148.881ZM151.874 3.29786H152V3.1724H151.874V3.29786ZM144.688 19.6339H143.006V19.8848H144.688V19.6339ZM143.006 19.6339C142.881 19.6339 142.777 19.6027 142.689 19.5415C142.601 19.4813 142.523 19.386 142.457 19.2475L142.231 19.3549C142.31 19.5225 142.414 19.656 142.547 19.7483C142.68 19.8406 142.836 19.8848 143.006 19.8848V19.6339ZM142.456 19.2465C142.316 18.9554 142.241 18.552 142.241 18.0271H141.99C141.99 18.572 142.067 19.0176 142.232 19.3558L142.456 19.2465ZM142.241 18.0271C142.241 17.5012 142.316 17.1027 142.456 16.8217L142.232 16.7093C142.067 17.0395 141.99 17.4821 141.99 18.0271H142.241ZM142.458 16.8177C142.524 16.6752 142.603 16.5768 142.69 16.5146C142.778 16.4524 142.881 16.4193 143.006 16.4193V16.1684C142.835 16.1684 142.679 16.2145 142.546 16.3099C142.412 16.4042 142.309 16.5417 142.23 16.7133L142.458 16.8177ZM143.006 16.4193H144.816V16.1684H143.006V16.4193ZM144.816 16.4193C145.158 16.4193 145.46 16.4062 145.72 16.3811L145.695 16.1312C145.446 16.1563 145.153 16.1684 144.816 16.1684V16.4193ZM145.72 16.3811C145.99 16.354 146.22 16.2808 146.403 16.1553L146.261 15.9486C146.122 16.0439 145.936 16.1072 145.695 16.1312L145.72 16.3811ZM146.401 16.1573C146.597 16.0289 146.736 15.8392 146.82 15.5963L146.583 15.514C146.514 15.7127 146.407 15.8542 146.264 15.9466L146.401 16.1573ZM146.819 15.5983C146.911 15.3494 146.955 15.0132 146.955 14.5997H146.704C146.704 15.0012 146.662 15.3022 146.584 15.512L146.819 15.5983ZM146.955 14.5997V8.54783H146.704V14.5997H146.955ZM146.829 8.67328H149.543V8.42238H146.829V8.67328ZM149.418 8.54783V14.689H149.668V8.54783H149.418ZM149.418 14.689C149.418 15.7157 149.283 16.5467 149.019 17.189L149.251 17.2844C149.531 16.6019 149.668 15.7348 149.668 14.689H149.418ZM149.019 17.1901C148.762 17.8284 148.416 18.3242 147.984 18.6824L148.145 18.8751C148.615 18.4857 148.982 17.9528 149.252 17.2834L149.019 17.1901ZM147.984 18.6824C147.558 19.0427 147.062 19.2896 146.495 19.4211L146.551 19.665C147.156 19.5255 147.688 19.2615 148.146 18.8741L147.984 18.6824ZM146.493 19.4211C145.918 19.5636 145.316 19.6339 144.688 19.6339V19.8848C145.335 19.8848 145.957 19.8115 146.553 19.665L146.493 19.4211ZM147.517 5.86113H144.523V6.11203H147.517V5.86113ZM144.648 5.98658V3.29786H144.397V5.98658H144.648ZM144.523 3.42331H147.517V3.1724H144.523V3.42331ZM147.391 3.29786V5.98658H147.642V3.29786H147.391ZM151.874 5.86113H148.881V6.11203H151.874V5.86113ZM149.006 5.98658V3.29786H148.755V5.98658H149.006ZM148.881 3.42331H151.874V3.1724H148.881V3.42331ZM151.749 3.29786V5.98658H152V3.29786H151.749Z" fill="white"/>
</svg>
