<svg width="12" height="12" viewBox="0 0 12 12" fill="none" xmlns="http://www.w3.org/2000/svg">
<path d="M7.65257 4.57971L10.4846 4.99283L8.42689 6.98579L8.23632 7.17036L8.28232 7.43164L8.78232 10.2716L8.78227 10.2717L8.78347 10.2779L8.78233 10.2773L6.23233 8.93734L6.00063 8.81559L5.76855 8.93661L3.20855 10.2716L3.20854 10.2716L3.20607 10.2729L3.20717 10.2666L3.70717 7.42665L3.75317 7.16536L3.5626 6.98079L1.51065 4.99343L4.34777 4.57459L4.60693 4.53633L4.723 4.30147L5.998 1.72147L5.99801 1.72148L5.99974 1.71791L6.00132 1.72113L7.27632 4.30613L7.39256 4.54179L7.65257 4.57971Z" fill="#FFB01D" stroke="#FFB01D"/>
</svg>
