<svg width="308" height="12" viewBox="0 0 308 12" fill="none" xmlns="http://www.w3.org/2000/svg">
<mask id="mask0_1162_153" style="mask-type:luminance" maskUnits="userSpaceOnUse" x="-35" y="-17" width="357" height="44">
<path d="M321.959 -16.9577H-34.7876V26.0507H321.959V-16.9577Z" fill="white"/>
</mask>
<g mask="url(#mask0_1162_153)">
<path opacity="0.35" d="M287.394 0.648207H303.253C303.523 0.648307 303.792 0.703823 304.041 0.811348C304.292 0.918873 304.519 1.0765 304.711 1.27512C304.902 1.47384 305.054 1.70963 305.158 1.96907C305.261 2.22861 305.314 2.5067 305.314 2.78748V8.71148C305.314 8.99227 305.261 9.27035 305.158 9.52989C305.054 9.78934 304.902 10.0251 304.711 10.2237C304.519 10.4225 304.292 10.58 304.041 10.6876C303.792 10.7951 303.523 10.8506 303.253 10.8507H287.398C287.127 10.8506 286.86 10.7951 286.609 10.6876C286.358 10.58 286.131 10.4225 285.94 10.2237C285.748 10.0251 285.597 9.78934 285.493 9.52989C285.389 9.27035 285.336 8.99227 285.336 8.71148V2.78748C285.336 2.2211 285.553 1.67776 285.939 1.27672C286.324 0.875584 286.848 0.64961 287.394 0.648207Z" stroke="black"/>
<path opacity="0.4" d="M306.738 3.77499V7.72395C307.111 7.56001 307.431 7.28523 307.655 6.9341C307.88 6.58286 308 6.1708 308 5.74952C308 5.32814 307.88 4.91608 307.655 4.56494C307.431 4.21371 307.111 3.93893 306.738 3.77499Z" fill="black"/>
<path d="M286.759 3.21926C286.759 3.07676 286.786 2.93556 286.838 2.80379C286.892 2.67201 286.969 2.55236 287.065 2.45145C287.162 2.35054 287.278 2.27047 287.405 2.21585C287.532 2.16114 287.668 2.13298 287.805 2.13288H302.836C302.973 2.13288 303.109 2.16094 303.237 2.21555C303.364 2.27017 303.479 2.35024 303.576 2.45115C303.674 2.55206 303.751 2.67181 303.804 2.80358C303.856 2.93536 303.883 3.07666 303.883 3.21926V8.28736C303.883 8.42996 303.856 8.57116 303.804 8.70283C303.751 8.83461 303.675 8.95436 303.578 9.05527C303.48 9.15608 303.365 9.23615 303.238 9.29086C303.111 9.34548 302.974 9.37363 302.837 9.37373H287.805C287.668 9.37363 287.531 9.34538 287.404 9.29046C287.277 9.23565 287.161 9.15528 287.064 9.05397C286.967 8.95275 286.891 8.8326 286.837 8.70053C286.785 8.56835 286.758 8.42675 286.759 8.28395V3.21926Z" fill="black"/>
<path fill-rule="evenodd" clip-rule="evenodd" d="M272.804 2.4012C274.913 2.4013 276.94 3.24216 278.467 4.74951C278.494 4.77787 278.526 4.80042 278.562 4.81585C278.598 4.83118 278.636 4.8391 278.674 4.8391C278.713 4.8391 278.752 4.83118 278.787 4.81585C278.823 4.80042 278.855 4.77787 278.882 4.74951L279.982 3.5977C280.01 3.56824 280.033 3.53317 280.048 3.49459C280.064 3.456 280.072 3.41462 280.072 3.37283C280.072 3.33094 280.064 3.28956 280.048 3.25098C280.033 3.2124 280.01 3.17732 279.982 3.14786C278.053 1.22844 275.483 0.1567 272.809 0.1567C270.136 0.1567 267.565 1.22844 265.636 3.14786C265.607 3.17722 265.584 3.21229 265.569 3.25087C265.553 3.28946 265.545 3.33094 265.545 3.37283C265.545 3.41462 265.553 3.45611 265.569 3.49469C265.584 3.53337 265.607 3.56834 265.636 3.5977L266.736 4.74951C266.763 4.77787 266.796 4.80042 266.831 4.81585C266.867 4.83118 266.905 4.8391 266.944 4.8391C266.982 4.8391 267.02 4.83118 267.056 4.81585C267.091 4.80042 267.123 4.77787 267.151 4.74951C268.675 3.24456 270.699 2.404 272.804 2.4012ZM272.804 6.14894C273.963 6.14914 275.079 6.59588 275.938 7.40226C275.994 7.45828 276.068 7.48924 276.146 7.48824C276.223 7.48724 276.297 7.45447 276.353 7.39705L277.451 6.24534C277.48 6.21548 277.502 6.17991 277.518 6.14082C277.533 6.10164 277.541 6.05975 277.54 6.01757C277.54 5.97538 277.531 5.93369 277.515 5.89491C277.499 5.85623 277.475 5.82125 277.446 5.79199C276.186 4.57495 274.529 3.89823 272.807 3.89823C271.086 3.89823 269.428 4.57495 268.168 5.79199C268.139 5.82166 268.116 5.85693 268.101 5.89581C268.085 5.93469 268.077 5.97648 268.077 6.01867C268.077 6.06086 268.085 6.10264 268.101 6.14153C268.116 6.18041 268.139 6.21568 268.168 6.24534L269.267 7.39705C269.321 7.45447 269.395 7.48724 269.473 7.48824C269.55 7.48924 269.625 7.45828 269.682 7.40226C270.536 6.59778 271.649 6.15054 272.804 6.14724V6.14894ZM275.004 8.67012C275.005 8.71251 274.998 8.75459 274.983 8.79377C274.967 8.83296 274.944 8.86853 274.915 8.8981L273.015 10.8886C272.988 10.9174 272.954 10.9405 272.918 10.9561C272.881 10.9718 272.843 10.9798 272.803 10.9798C272.764 10.9798 272.725 10.9718 272.689 10.9561C272.653 10.9405 272.62 10.9174 272.593 10.8886L270.693 8.8981C270.664 8.86853 270.641 8.83306 270.625 8.79388C270.61 8.7547 270.602 8.7127 270.603 8.67042C270.604 8.62813 270.613 8.58644 270.63 8.54796C270.647 8.50948 270.671 8.47491 270.701 8.44655C271.288 7.93077 272.034 7.64778 272.803 7.64778C273.573 7.64778 274.318 7.93077 274.906 8.44655C274.936 8.47491 274.96 8.50928 274.976 8.54756C274.993 8.58584 275.002 8.62733 275.003 8.66931L275.004 8.67012Z" fill="black"/>
<path fill-rule="evenodd" clip-rule="evenodd" d="M259.806 0.484657H258.854C258.729 0.484657 258.605 0.51021 258.49 0.559914C258.374 0.609518 258.27 0.68227 258.181 0.773962C258.092 0.865654 258.022 0.974582 257.975 1.09433C257.927 1.21418 257.903 1.34255 257.903 1.47222V10.0283C257.903 10.1579 257.927 10.2863 257.975 10.4061C258.022 10.5259 258.092 10.6348 258.181 10.7265C258.27 10.8182 258.374 10.8909 258.49 10.9405C258.605 10.9902 258.729 11.0158 258.854 11.0158H259.806C259.931 11.0158 260.054 10.9902 260.17 10.9405C260.286 10.8909 260.39 10.8182 260.479 10.7265C260.568 10.6348 260.638 10.5259 260.685 10.4061C260.733 10.2863 260.758 10.1579 260.757 10.0283V1.47132C260.757 1.20967 260.657 0.958748 260.478 0.77366C260.3 0.588673 260.058 0.484657 259.806 0.484657ZM254.413 2.78828H255.365C255.49 2.78828 255.613 2.81383 255.729 2.86343C255.845 2.91304 255.95 2.98579 256.038 3.07748C256.126 3.16917 256.196 3.2781 256.244 3.39785C256.292 3.5177 256.317 3.64607 256.317 3.77574V10.0283C256.317 10.1579 256.292 10.2863 256.244 10.4061C256.196 10.5259 256.126 10.6348 256.038 10.7265C255.95 10.8182 255.845 10.8909 255.729 10.9405C255.613 10.9902 255.49 11.0158 255.365 11.0158H254.413C254.288 11.0158 254.164 10.9902 254.049 10.9405C253.934 10.8909 253.828 10.8182 253.74 10.7265C253.652 10.6348 253.582 10.5259 253.534 10.4061C253.486 10.2863 253.462 10.1579 253.462 10.0283V3.77574C253.462 3.64597 253.486 3.5175 253.534 3.39765C253.582 3.2778 253.652 3.16897 253.74 3.07718C253.828 2.98549 253.934 2.91274 254.049 2.86313C254.165 2.81363 254.288 2.78808 254.414 2.78828H254.413ZM250.928 5.0918H249.977C249.852 5.0918 249.728 5.11735 249.613 5.16696C249.497 5.21656 249.392 5.28931 249.304 5.381C249.216 5.47279 249.146 5.58162 249.098 5.70137C249.049 5.82122 249.025 5.94959 249.025 6.07926V10.0283C249.025 10.1579 249.049 10.2863 249.098 10.4061C249.146 10.5259 249.216 10.6348 249.304 10.7265C249.392 10.8182 249.497 10.8909 249.613 10.9405C249.728 10.9902 249.852 11.0158 249.977 11.0158H250.928C251.054 11.0158 251.178 10.9902 251.293 10.9405C251.408 10.8909 251.514 10.8182 251.602 10.7265C251.69 10.6348 251.76 10.5259 251.808 10.4061C251.856 10.2863 251.88 10.1579 251.88 10.0283V6.07926C251.88 5.94949 251.855 5.82092 251.808 5.70097C251.76 5.58112 251.69 5.47219 251.601 5.3804C251.513 5.28871 251.407 5.21596 251.292 5.16645C251.176 5.11695 251.053 5.0915 250.927 5.0918H250.928ZM246.488 7.07014H245.537C245.412 7.07014 245.288 7.09569 245.172 7.14529C245.057 7.195 244.952 7.26775 244.864 7.35944C244.775 7.45114 244.705 7.55996 244.657 7.67981C244.609 7.79956 244.585 7.92803 244.585 8.0576V10.036C244.585 10.1656 244.609 10.2941 244.657 10.4138C244.705 10.5337 244.775 10.6425 244.864 10.7342C244.952 10.8259 245.057 10.8986 245.172 10.9484C245.288 10.998 245.412 11.0235 245.537 11.0235H246.488C246.613 11.0235 246.738 10.998 246.853 10.9484C246.968 10.8986 247.073 10.8259 247.161 10.7342C247.25 10.6425 247.32 10.5337 247.368 10.4138C247.416 10.2941 247.44 10.1656 247.44 10.036V8.0576C247.44 7.92753 247.416 7.79866 247.369 7.67831C247.321 7.55806 247.251 7.44873 247.162 7.35664C247.073 7.26455 246.968 7.19149 246.853 7.14169C246.737 7.09198 246.612 7.06653 246.487 7.06673L246.488 7.07014Z" fill="black"/>
<path d="M3.67705 10.9436C2.83248 10.9685 2.00475 10.6955 1.32924 10.1695C0.692605 9.66402 0.266414 8.92558 0.137844 8.10506H1.92819C2.03351 8.48446 2.25958 8.81585 2.56953 9.04523C2.79731 9.19845 3.05244 9.30287 3.3197 9.35237C3.58706 9.40197 3.86124 9.39556 4.12619 9.33363C4.39104 9.2716 4.64137 9.15536 4.86233 8.99172C5.08329 8.82797 5.27038 8.62004 5.41268 8.38023C5.86944 7.52394 6.08459 6.55161 6.03328 5.57446H5.91714C5.69076 6.05918 5.32921 6.46222 4.87927 6.73139C4.40026 7.00776 3.85923 7.14756 3.31118 7.13643C2.87126 7.15046 2.43325 7.07039 2.02449 6.90124C1.61574 6.73209 1.24486 6.47746 0.93511 6.15328C0.625763 5.82539 0.383557 5.43598 0.223121 5.00838C0.0627857 4.58089 -0.0125735 4.12413 0.00175645 3.66567C-0.0135756 3.17524 0.0716059 2.68702 0.251883 2.23327C0.43206 1.77952 0.703126 1.37057 1.04715 1.03356C1.67726 0.466375 2.4604 0.113537 3.29044 0.0231483C4.12038 -0.067341 4.95713 0.108827 5.68736 0.527804C6.26957 0.896976 6.74036 1.42799 7.0463 2.06061C7.55286 3.07794 7.79777 4.21352 7.75729 5.35761C7.83996 6.81426 7.46117 8.25898 6.67873 9.47182C6.33201 9.95223 5.87725 10.3374 5.35406 10.594C4.83097 10.8505 4.25526 10.9706 3.67705 10.9436ZM2.3181 5.07893C2.5055 5.26883 2.72796 5.41734 2.97227 5.51554C3.21649 5.61375 3.47743 5.65944 3.73928 5.65012C4.00223 5.65914 4.26418 5.61315 4.50959 5.51504C4.75501 5.41694 4.97898 5.26863 5.16797 5.07893C5.35356 4.89174 5.49966 4.66647 5.59677 4.41754C5.69387 4.16862 5.73997 3.90146 5.73215 3.633C5.73846 3.35873 5.69117 3.08596 5.59286 2.83122C5.49465 2.57649 5.34754 2.34501 5.16045 2.1509C4.88407 1.85749 4.52933 1.65637 4.14182 1.57359C3.75441 1.49082 3.35187 1.5301 2.9861 1.68643C2.62034 1.84276 2.30798 2.10891 2.08933 2.45083C1.87067 2.79264 1.75553 3.19448 1.75894 3.60464C1.75112 3.87631 1.79681 4.14678 1.89322 4.39961C1.98972 4.65234 2.13482 4.88202 2.31981 5.07462L2.3181 5.07893Z" fill="black"/>
<path d="M10.435 9.58025C10.2871 9.58556 10.1397 9.55941 10.0019 9.50349C9.86399 9.44757 9.73873 9.36309 9.63351 9.25507C9.5303 9.14824 9.44922 9.02058 9.39531 8.88008C9.3413 8.73959 9.31575 8.58908 9.31995 8.43786C9.31484 8.28664 9.34009 8.13583 9.39411 7.99523C9.44802 7.85454 9.52959 7.72707 9.63351 7.62075C9.73873 7.51272 9.86399 7.42815 10.0019 7.37223C10.1397 7.31631 10.2871 7.29026 10.435 7.29557C10.583 7.28936 10.7307 7.31501 10.8686 7.37093C11.0066 7.42694 11.1318 7.51202 11.2365 7.62075C11.3404 7.72707 11.422 7.85454 11.4759 7.99523C11.5299 8.13583 11.5551 8.28664 11.55 8.43786C11.554 8.59018 11.5278 8.74169 11.473 8.88309C11.4181 9.02448 11.336 9.15265 11.2315 9.25978C11.1269 9.3668 11.0023 9.45048 10.8653 9.50559C10.7283 9.56081 10.5818 9.58616 10.435 9.58025ZM10.435 4.1568C10.2877 4.16231 10.1408 4.13686 10.0031 4.08224C9.86539 4.02753 9.73973 3.94466 9.63351 3.83853C9.5303 3.73171 9.44922 3.60414 9.39531 3.46365C9.3413 3.32306 9.31575 3.17264 9.31995 3.02142C9.31484 2.87011 9.34 2.71939 9.39401 2.5787C9.44802 2.438 9.52959 2.31054 9.63351 2.20421C9.73873 2.09629 9.86399 2.01171 10.0019 1.9558C10.1397 1.89988 10.2871 1.87382 10.435 1.87913C10.583 1.87282 10.7307 1.89847 10.8686 1.95449C11.0066 2.01041 11.1318 2.09549 11.2365 2.20421C11.3404 2.31054 11.422 2.438 11.476 2.5787C11.53 2.71939 11.5552 2.87011 11.55 3.02142C11.5543 3.17264 11.5287 3.32306 11.4748 3.46365C11.4208 3.60414 11.3397 3.73171 11.2365 3.83853C11.1308 3.94546 11.0052 4.02873 10.8674 4.08345C10.7296 4.13816 10.5825 4.16321 10.435 4.1568Z" fill="black"/>
<path d="M18.0208 10.6865V8.74071H13.1085V7.07803C13.926 5.51596 15.2916 3.2405 17.2053 0.251748H19.7415V7.16491H21.1004V8.74071H19.7415V10.6856L18.0208 10.6865ZM14.7736 7.09958V7.2079H18.0473V1.77343H17.9494C16.8637 3.43922 15.8051 5.21463 14.7736 7.09958Z" fill="black"/>
<path d="M24.7434 10.6865V2.13208H24.6248L22.1234 3.9548V2.16044L24.75 0.251748H26.5405V10.6865H24.7434Z" fill="black"/>
</g>
</svg>
