<svg width="20" height="20" viewBox="0 0 20 20" fill="none" xmlns="http://www.w3.org/2000/svg">
<path d="M5.00022 3.7333C6.3263 2.40722 8.12486 1.66223 10.0002 1.66223C11.8756 1.66223 13.6741 2.40722 15.0002 3.7333C16.3263 5.05938 17.0713 6.85794 17.0713 8.7333C17.0713 10.6087 16.3263 12.4072 15.0002 13.7333L10.6086 18.1333C10.5311 18.2114 10.4389 18.2734 10.3374 18.3157C10.2358 18.358 10.1269 18.3798 10.0169 18.3798C9.90688 18.3798 9.79796 18.358 9.69641 18.3157C9.59486 18.2734 9.50269 18.2114 9.42522 18.1333L5.00022 13.6916C3.67968 12.3711 2.93781 10.58 2.93781 8.71247C2.93781 6.84492 3.67968 5.05386 5.00022 3.7333ZM6.19189 12.5L10.0002 16.325L13.8086 12.5C14.5609 11.7469 15.0732 10.7877 15.2805 9.74354C15.4878 8.69941 15.3809 7.61725 14.9733 6.63387C14.5657 5.65048 13.8757 4.81001 12.9905 4.2187C12.1054 3.62739 11.0647 3.31178 10.0002 3.31178C8.93571 3.31178 7.89509 3.62739 7.00991 4.2187C6.12474 4.81001 5.43474 5.65048 5.02714 6.63387C4.61955 7.61725 4.51265 8.69941 4.71997 9.74354C4.92729 10.7877 5.43951 11.7469 6.19189 12.5ZM12.5002 6.17497C13.173 6.84978 13.5507 7.76377 13.5507 8.71663C13.5507 9.66949 13.173 10.5835 12.5002 11.2583C12.0004 11.759 11.3639 12.1009 10.6705 12.2411C9.97713 12.3814 9.25776 12.3138 8.60266 12.0468C7.94756 11.7797 7.3859 11.3252 6.98815 10.7402C6.59041 10.1551 6.37428 9.46569 6.36689 8.7583C6.36313 8.28597 6.45412 7.81768 6.63447 7.38112C6.81482 6.94456 7.08087 6.5486 7.41689 6.21663C7.74716 5.87878 8.14099 5.60958 8.5757 5.42452C9.01042 5.23946 9.47744 5.1422 9.94989 5.13832C10.4223 5.13445 10.8909 5.22405 11.3286 5.40196C11.7663 5.57986 12.1645 5.84257 12.5002 6.17497ZM8.59189 10.075C8.90769 10.3956 9.32505 10.5966 9.77262 10.6435C10.2202 10.6905 10.6702 10.5805 11.0456 10.3324C11.4211 10.0843 11.6987 9.7135 11.831 9.28337C11.9634 8.85324 11.9422 8.3905 11.7711 7.97426C11.6 7.55803 11.2896 7.21415 10.8931 7.00141C10.4965 6.78868 10.0383 6.72031 9.59694 6.80798C9.15554 6.89565 8.7583 7.13393 8.47313 7.48207C8.18796 7.83022 8.03258 8.26661 8.03356 8.71663C8.04568 9.23102 8.26148 9.71957 8.63355 10.075H8.59189Z" fill="#DCDCE4"/>
</svg>
