<svg width="199" height="18" viewBox="0 0 199 18" fill="none" xmlns="http://www.w3.org/2000/svg">
<path d="M4.93426 7.04523C5.96042 6.98018 6.47349 6.80204 6.47349 6.50882C6.47349 6.45578 6.43827 6.40876 6.36792 6.36773C6.30347 6.32669 6.22141 6.28267 6.12163 6.23564C6.02786 6.1886 5.92229 6.13655 5.805 6.0775C5.68771 6.01345 5.57924 5.9364 5.47956 5.84934C5.38579 5.75527 5.30373 5.6432 5.23328 5.5151C5.16883 5.38601 5.1366 5.22989 5.1366 5.04875C5.1366 4.80758 5.20986 4.59141 5.35647 4.39727C5.50888 4.20413 5.71123 4.034 5.96332 3.88789C6.22141 3.73478 6.51753 3.60869 6.85167 3.50962C7.19182 3.40955 7.55239 3.33349 7.93358 3.28045V4.41529C7.39998 4.48534 7.013 4.57338 6.77252 4.67946C6.53214 4.77854 6.41195 4.89564 6.41195 5.03074C6.41195 5.08978 6.44417 5.13981 6.50872 5.18084C6.57907 5.22187 6.66114 5.26592 6.75501 5.31195C6.85468 5.35898 6.96316 5.41202 7.08034 5.47106C7.19763 5.5231 7.30321 5.59415 7.39708 5.68222C7.49676 5.76928 7.57882 5.87537 7.64337 5.99846C7.71372 6.11555 7.74884 6.26265 7.74884 6.43778C7.74884 6.63193 7.6902 6.82806 7.57291 7.02721C7.46153 7.22135 7.2886 7.3995 7.05402 7.56362C6.82536 7.72274 6.53214 7.85683 6.17447 7.96892C5.82261 8.08 5.40921 8.14705 4.93426 8.17106V7.04523ZM6.49992 13.6241C5.95451 13.6241 5.41801 13.6151 4.89032 13.5981C4.36843 13.586 3.87297 13.548 3.40382 13.483C2.94058 13.4249 2.51256 13.3339 2.11967 13.2108C1.73268 13.0877 1.40134 12.9145 1.12583 12.6914C0.914678 12.5273 0.735844 12.3371 0.589235 12.12C0.448531 11.9028 0.334146 11.6717 0.246181 11.4255C0.158316 11.1793 0.0937695 10.9241 0.0527391 10.6599C0.017513 10.3957 0 10.1325 0 9.8683C0 9.458 0.0293208 9.05672 0.0878642 8.66343C0.152412 8.27014 0.234474 7.88085 0.334148 7.49356H2.21644C2.16951 7.71072 2.12558 7.90685 2.08454 8.08299C2.04932 8.25311 2.02 8.41423 1.99658 8.56635C1.97306 8.71345 1.95555 8.85656 1.94374 8.99766C1.93203 9.13877 1.92623 9.28187 1.92623 9.42898C1.92623 9.68117 1.95555 9.91234 2.01419 10.1235C2.07864 10.3347 2.22235 10.5248 2.44511 10.6949C2.59762 10.812 2.78817 10.9091 3.01683 10.9852C3.2455 11.0612 3.52701 11.1203 3.86126 11.1613C4.20131 11.2023 4.60591 11.2313 5.07496 11.2493C5.55001 11.2613 6.10703 11.2674 6.7462 11.2674C7.52018 11.2674 8.15344 11.2583 8.64601 11.2403C9.14448 11.2173 9.53437 11.1613 9.81578 11.0732C10.1032 10.9791 10.3025 10.839 10.4139 10.6509C10.5253 10.4638 10.581 10.2026 10.581 9.8683V0H12.4545V9.93036C12.4545 10.4988 12.3842 10.9851 12.2434 11.3904C12.1027 11.7947 11.9033 12.135 11.6453 12.4102C11.3873 12.6804 11.0765 12.8966 10.7129 13.0617C10.3495 13.2198 9.94777 13.3399 9.50795 13.422C9.06822 13.51 8.59327 13.5651 8.08309 13.5891C7.57882 13.6121 7.05113 13.6241 6.49992 13.6241ZM13.9585 14.864C14.2811 14.9871 14.5801 15.0902 14.8557 15.1722C15.1371 15.2543 15.401 15.3214 15.6473 15.3744C15.8936 15.4274 16.1281 15.4625 16.3509 15.4805C16.5738 15.5035 16.7936 15.5155 17.0106 15.5155C17.4152 15.5155 17.7583 15.4685 18.0397 15.3744C18.327 15.2803 18.5645 15.1572 18.7521 15.0051C18.9456 14.853 19.0952 14.6799 19.2007 14.4857C19.3121 14.2926 19.3942 14.0965 19.447 13.8963C19.4587 13.8553 19.4704 13.7973 19.4821 13.7212C19.4997 13.6501 19.5145 13.5801 19.5262 13.51H18.7346C17.5676 13.51 16.6764 13.2428 16.0607 12.7094C15.4449 12.17 15.1371 11.3954 15.1371 10.3877C15.1371 9.91235 15.2163 9.43699 15.3746 8.96264C15.5388 8.48128 15.7558 8.05397 16.0255 7.67869C16.3011 7.29741 16.6207 6.98918 16.9842 6.75501C17.3537 6.51483 17.7406 6.39375 18.1452 6.39375C18.6026 6.39375 19.016 6.52283 19.3854 6.78103C19.7548 7.03922 20.1096 7.44353 20.4497 7.99494C20.7136 8.41725 20.9246 8.89459 21.0829 9.42898C21.2471 9.96238 21.3615 10.5398 21.426 11.1613H22.9828V13.554H21.3996C21.3234 14.1875 21.1768 14.7709 20.9598 15.3043C20.7429 15.8437 20.4527 16.3071 20.0891 16.6934C19.7314 17.0867 19.2975 17.3919 18.7873 17.608C18.2771 17.8312 17.6908 17.9423 17.0282 17.9423C16.7819 17.9423 16.5386 17.9313 16.2982 17.9073C16.0578 17.8843 15.8115 17.8432 15.5593 17.7842C15.313 17.7322 15.058 17.6611 14.7942 17.573C14.5303 17.491 14.2518 17.3889 13.9585 17.2658V14.864ZM19.3854 10.5278C19.315 10.3167 19.233 10.1115 19.1392 9.91234C19.0453 9.70719 18.9427 9.52507 18.8313 9.36696C18.7199 9.20884 18.5997 9.08272 18.4707 8.98866C18.3417 8.88958 18.2097 8.83956 18.0749 8.83956C17.9224 8.83956 17.7788 8.89259 17.6439 8.99766C17.509 9.09774 17.3918 9.22085 17.2921 9.36696C17.1923 9.50806 17.1132 9.66018 17.0545 9.8243C16.996 9.98241 16.9667 10.1235 16.9667 10.2466C16.9667 10.6339 17.1045 10.8921 17.38 11.0202C17.6556 11.1493 18.0661 11.2143 18.6114 11.2143H19.5438C19.5203 11.1082 19.4968 10.9942 19.4733 10.8711C19.4499 10.748 19.4206 10.6339 19.3854 10.5278ZM24.1438 13.554H22.9828C22.7776 13.554 22.6252 13.448 22.5254 13.2368C22.4199 13.0207 22.3671 12.7274 22.3671 12.3571C22.3671 11.9879 22.4199 11.6977 22.5254 11.4865C22.6252 11.2703 22.7776 11.1613 22.9828 11.1613H24.2318C24.4839 11.1613 24.6979 11.1523 24.8738 11.1353C25.0498 11.1112 25.1935 11.0612 25.3049 10.9852C25.4162 10.9091 25.4954 10.795 25.5423 10.6429C25.5951 10.4838 25.6215 10.2676 25.6215 9.99141V5.8133H27.495V9.38495C27.495 9.68917 27.5038 9.95338 27.5213 10.1765C27.5389 10.3987 27.5946 10.5839 27.6884 10.73C27.7881 10.8771 27.9376 10.9851 28.1371 11.0562C28.3422 11.1262 28.6296 11.1613 28.999 11.1613V13.554H28.5944C28.0842 13.554 27.6474 13.475 27.2838 13.3159C26.9203 13.1517 26.6534 12.8945 26.4834 12.5423H26.4307C26.2782 12.7474 26.1081 12.9146 25.9205 13.0437C25.7329 13.1728 25.5364 13.2748 25.3313 13.3519C25.1318 13.428 24.9296 13.48 24.7243 13.51C24.5191 13.5391 24.3256 13.554 24.1438 13.554ZM27.4246 16.5973H25.3576V14.7409H27.4246V16.5973ZM32.4468 12.5603C32.2826 12.7474 32.1009 12.9056 31.9015 13.0347C31.708 13.1637 31.5057 13.2668 31.2946 13.3429C31.0894 13.4189 30.8813 13.472 30.6701 13.501C30.4649 13.536 30.2684 13.554 30.0808 13.554H28.999C28.7937 13.554 28.6413 13.448 28.5416 13.2368C28.4361 13.0207 28.3833 12.7274 28.3833 12.3571C28.3833 11.9879 28.4361 11.6977 28.5416 11.4865C28.6413 11.2703 28.7937 11.1613 28.999 11.1613H30.1688C30.3154 11.1613 30.4737 11.1493 30.6437 11.1263C30.8196 11.1032 30.981 11.0502 31.1275 10.9681C31.2741 10.8861 31.3973 10.769 31.4969 10.6159C31.5966 10.4578 31.6465 10.2496 31.6465 9.99141V7.49356H33.5111V9.41097C33.5111 9.71019 33.5199 9.97139 33.5376 10.1936C33.5551 10.4107 33.6049 10.5929 33.6871 10.739C33.7691 10.8801 33.8952 10.9851 34.0652 11.0562C34.2353 11.1262 34.4727 11.1613 34.7777 11.1613C34.9536 11.1613 35.1236 11.1523 35.2878 11.1353C35.452 11.1112 35.5957 11.0612 35.7188 10.9852C35.8478 10.9091 35.9504 10.795 36.0267 10.6429C36.1088 10.4838 36.1498 10.2676 36.1498 9.99141V7.49356H38.0233V9.38495C38.0233 9.68917 38.0321 9.95338 38.0496 10.1765C38.0672 10.3987 38.117 10.5839 38.1992 10.73C38.2871 10.8771 38.422 10.9851 38.6037 11.0562C38.7914 11.1262 39.0523 11.1613 39.3866 11.1613C39.5683 11.1613 39.7354 11.1523 39.888 11.1353C40.0466 11.1173 40.1807 11.0702 40.2928 10.9941C40.4098 10.9121 40.5009 10.795 40.565 10.6429C40.63 10.4838 40.662 10.2676 40.662 9.99141V5.8133H42.5354V9.33193C42.5354 9.64316 42.5444 9.91235 42.5614 10.1415C42.5795 10.3697 42.6355 10.5608 42.7286 10.713C42.8286 10.8591 42.9777 10.9711 43.1779 11.0472C43.383 11.1232 43.6703 11.1613 44.0395 11.1613V13.554H43.6352C43.1539 13.554 42.7496 13.486 42.4213 13.3519C42.0931 13.2168 41.8229 12.9817 41.6117 12.6474C41.4596 12.8295 41.2925 12.9796 41.1104 13.0967C40.9342 13.2138 40.7501 13.3048 40.556 13.3689C40.3628 13.4389 40.1637 13.486 39.9585 13.51C39.7589 13.5391 39.5625 13.554 39.369 13.554C39.1403 13.554 38.9145 13.536 38.6917 13.501C38.4689 13.472 38.2577 13.4189 38.0584 13.3429C37.8591 13.2718 37.6743 13.1728 37.5043 13.0437C37.3343 12.9146 37.1877 12.7534 37.0646 12.5603H37.0293C36.871 12.7474 36.6922 12.9056 36.4928 13.0347C36.2993 13.1637 36.097 13.2668 35.8859 13.3429C35.6807 13.4189 35.4755 13.472 35.2702 13.501C35.065 13.536 34.8715 13.554 34.6897 13.554C34.1561 13.554 33.7105 13.478 33.3528 13.3249C32.9952 13.1728 32.7048 12.9176 32.4821 12.5603H32.4468ZM45.2004 13.554H44.0395C43.8344 13.554 43.6813 13.448 43.5822 13.2368C43.4761 13.0207 43.4241 12.7274 43.4241 12.3571C43.4241 11.9879 43.4761 11.6977 43.5822 11.4865C43.6813 11.2703 43.8344 11.1613 44.0395 11.1613H45.2885C45.5406 11.1613 45.7548 11.1523 45.9309 11.1353C46.1061 11.1112 46.2502 11.0612 46.3613 10.9852C46.4733 10.9091 46.5524 10.795 46.5994 10.6429C46.6515 10.4838 46.6785 10.2676 46.6785 9.99141V5.8133H48.5519V9.38495C48.5519 9.68917 48.5599 9.95338 48.5779 10.1765C48.5959 10.3987 48.6509 10.5839 48.745 10.73C48.8451 10.8771 48.9942 10.9851 49.1934 11.0562C49.3985 11.1262 49.6857 11.1613 50.056 11.1613V13.554H49.6507C49.1413 13.554 48.704 13.475 48.3407 13.3159C47.9765 13.1517 47.7102 12.8945 47.5401 12.5423H47.4871C47.335 12.7474 47.1649 12.9146 46.9767 13.0437C46.7896 13.1728 46.5934 13.2748 46.3883 13.3519C46.1881 13.428 45.986 13.48 45.7808 13.51C45.5757 13.5391 45.3825 13.554 45.2004 13.554ZM46.4753 16.5973H44.4088V14.7409H46.4753V16.5973ZM49.4836 16.5973H47.417V14.7409H49.4836V16.5973ZM52.5358 11.1613C52.0965 10.827 51.7533 10.4428 51.5071 10.0094C51.2609 9.56911 51.1378 9.08573 51.1378 8.55834C51.1378 8.25312 51.1758 7.94188 51.2519 7.62565C51.3279 7.30841 51.436 7.00418 51.5771 6.71097C51.7182 6.41775 51.8853 6.14455 52.0785 5.89237C52.2716 5.63518 52.4828 5.40901 52.712 5.21587C52.9401 5.02173 53.1873 4.87261 53.4505 4.76653C53.7147 4.65545 53.9839 4.59942 54.2601 4.59942C54.5823 4.59942 54.8876 4.67347 55.1748 4.81958C55.468 4.96669 55.7372 5.16883 55.9834 5.42703C56.2306 5.67921 56.4497 5.97442 56.6439 6.31468C56.843 6.64892 57.0101 7.01019 57.1452 7.39647C57.2853 7.77775 57.3914 8.17406 57.4615 8.58436C57.5375 8.99467 57.5756 9.39598 57.5756 9.78927C57.5756 10.3757 57.4875 10.8741 57.3124 11.2844C57.1422 11.6947 56.9071 12.0409 56.6078 12.3221C56.3096 12.5984 55.9634 12.8175 55.5701 12.9816C55.1778 13.1458 54.7585 13.2698 54.3131 13.3519C53.8668 13.439 53.4095 13.495 52.9401 13.519C52.4778 13.542 52.0254 13.554 51.5861 13.554H50.056C49.8508 13.554 49.6977 13.448 49.5987 13.2368C49.4926 13.0207 49.4395 12.7274 49.4395 12.3571C49.4395 11.9879 49.4926 11.6977 49.5987 11.4865C49.6977 11.2703 49.8508 11.1613 50.056 11.1613H50.9356C51.0467 11.1613 51.1818 11.1673 51.3399 11.1793C51.4981 11.1853 51.6532 11.1933 51.8063 11.2053C51.9644 11.2113 52.1075 11.2173 52.2366 11.2233C52.3657 11.2283 52.4568 11.2313 52.5098 11.2313L52.5358 11.1613ZM54.154 7.04523C54.0019 7.04523 53.8548 7.09826 53.7147 7.20334C53.5736 7.30841 53.4505 7.44051 53.3454 7.59963C53.2394 7.75174 53.1543 7.91586 53.0902 8.09199C53.0312 8.26212 53.0022 8.41724 53.0022 8.55834C53.0022 8.66342 53.0282 8.78953 53.0812 8.93564C53.1403 9.07674 53.2514 9.23784 53.4155 9.41997C53.5856 9.5961 53.8258 9.79227 54.137 10.0094C54.4472 10.2206 54.8575 10.4488 55.3679 10.6949C55.433 10.6429 55.485 10.5749 55.526 10.4928C55.5671 10.4047 55.6001 10.3137 55.6231 10.2206C55.6521 10.1265 55.6702 10.0324 55.6762 9.93836C55.6882 9.84529 55.6932 9.76323 55.6932 9.69218C55.6932 9.47001 55.6491 9.20583 55.5621 8.90061C55.48 8.59638 55.3649 8.30617 55.2188 8.02997C55.0777 7.75476 54.9136 7.52259 54.7265 7.33545C54.5443 7.14131 54.3542 7.04523 54.154 7.04523ZM55.1307 2.77907H53.0632V0.923689H55.1307V2.77907ZM64.0584 15.1893C64.4627 15.3074 64.7999 15.3894 65.0701 15.4365C65.3453 15.4885 65.5975 15.5155 65.8257 15.5155C66.301 15.5155 66.6883 15.4304 66.9875 15.2603C67.2858 15.0962 67.5209 14.873 67.6911 14.5918C67.8612 14.3106 67.9753 13.9844 68.0333 13.6151C68.0984 13.2458 68.1304 12.8555 68.1304 12.4452C68.1304 12.0529 68.1044 11.6626 68.0513 11.2754C67.9983 10.8831 67.9192 10.4758 67.8142 10.0534C67.7081 9.63113 67.576 9.1848 67.4179 8.71645C67.2657 8.2471 67.0896 7.73373 66.8905 7.17732H68.966C69.1712 7.6927 69.3473 8.21808 69.4934 8.75148C69.6465 9.27887 69.7696 9.80426 69.8637 10.3256C69.8867 10.4427 69.9247 10.5518 69.9778 10.6509C70.0358 10.751 70.1269 10.839 70.25 10.9151C70.3791 10.9912 70.5492 11.0532 70.7603 11.1002C70.9715 11.1413 71.2437 11.1613 71.5779 11.1613V13.554H71.3498C71.1797 13.554 71.0335 13.542 70.9094 13.519C70.7864 13.495 70.6753 13.463 70.5752 13.422C70.4821 13.3809 70.3971 13.3309 70.321 13.2718C70.25 13.2078 70.1799 13.1347 70.1099 13.0527L70.0658 13.0617C70.0248 13.9113 69.8837 14.6419 69.6435 15.2513C69.4083 15.8668 69.1011 16.3742 68.7198 16.7734C68.3445 17.1717 67.9102 17.4649 67.4179 17.6521C66.9315 17.8462 66.4211 17.9423 65.8877 17.9423C65.6065 17.9423 65.3213 17.9133 65.0341 17.8552C64.7529 17.8022 64.4276 17.7082 64.0584 17.573V15.1893ZM72.7478 13.554H71.587C71.3818 13.554 71.2297 13.448 71.1296 13.2368C71.0245 13.0207 70.9715 12.7274 70.9715 12.3571C70.9715 11.9879 71.0245 11.6977 71.1296 11.4865C71.2297 11.2703 71.3818 11.1613 71.587 11.1613H72.8359C73.0881 11.1613 73.3022 11.1523 73.4784 11.1353C73.6545 11.1112 73.7976 11.0612 73.9097 10.9852C74.0208 10.9091 74.0998 10.795 74.1468 10.6429C74.1999 10.4838 74.2259 10.2676 74.2259 9.99141V5.8133H76.0993V9.38495C76.0993 9.68917 76.1083 9.95338 76.1253 10.1765C76.1433 10.3987 76.1994 10.5839 76.2924 10.73C76.3925 10.8771 76.5416 10.9851 76.7418 11.0562C76.9469 11.1262 77.2341 11.1613 77.6034 11.1613V13.554H77.1991C76.6887 13.554 76.2514 13.475 75.8881 13.3159C75.5249 13.1517 75.2577 12.8945 75.0875 12.5423H75.0355C74.8824 12.7474 74.7123 12.9146 74.5251 13.0437C74.337 13.1728 74.1408 13.2748 73.9357 13.3519C73.7365 13.428 73.5344 13.48 73.3282 13.51C73.1231 13.5391 72.9299 13.554 72.7478 13.554ZM76.0292 16.5973H73.9617V14.7409H76.0292V16.5973ZM87.1645 11.9619C86.4309 12.2781 85.7424 12.5393 85.097 12.7445C84.4525 12.9496 83.828 13.1137 83.2236 13.2368C82.6261 13.3549 82.0367 13.4369 81.4563 13.483C80.8748 13.53 80.2834 13.554 79.6789 13.554H77.6034C77.3982 13.554 77.2461 13.448 77.1461 13.2368C77.04 13.0207 76.9879 12.7274 76.9879 12.3571C76.9879 11.9879 77.04 11.6977 77.1461 11.4865C77.2461 11.2703 77.3982 11.1613 77.6034 11.1613H79.8991L79.9161 11.1082C79.6759 10.8801 79.4798 10.6539 79.3277 10.4317C79.1746 10.2086 79.0545 9.99141 78.9664 9.78026C78.8784 9.5631 78.8173 9.35194 78.7823 9.14679C78.7522 8.94164 78.7382 8.73647 78.7382 8.53132C78.7382 7.95089 78.8553 7.4295 79.0895 6.96616C79.3307 6.49681 79.6649 6.09853 80.0922 5.76929C80.5206 5.44105 81.0279 5.18885 81.6144 5.01372C82.2008 4.83759 82.8423 4.74952 83.5408 4.74952C83.757 4.74952 83.9921 4.76153 84.2443 4.78455C84.4965 4.80256 84.7927 4.84061 85.132 4.89865V7.30842C84.7977 7.25639 84.4845 7.21834 84.1913 7.19433C83.9041 7.16531 83.6199 7.15032 83.3376 7.15032C82.9924 7.15032 82.6552 7.1623 82.3269 7.18532C82.0037 7.20934 81.7135 7.27038 81.4563 7.37045C81.2041 7.47053 80.9989 7.61967 80.8398 7.81881C80.6877 8.01796 80.6116 8.29415 80.6116 8.64541C80.6116 8.73948 80.6316 8.86557 80.6727 9.02368C80.7197 9.1768 80.8108 9.35194 80.9459 9.55209C81.086 9.74523 81.2861 9.96239 81.5433 10.2026C81.8015 10.4367 82.1418 10.6809 82.5641 10.9331C82.9213 10.8621 83.2796 10.78 83.6369 10.6859C83.9951 10.5929 84.3584 10.4838 84.7277 10.3607C85.103 10.2376 85.4903 10.0975 85.8885 9.93836C86.2878 9.78025 86.7122 9.59913 87.1645 9.39298V11.9619ZM83.3997 3.34247H81.3332V1.48612H83.3997V3.34247ZM98.59 16.4212C97.8034 16.4212 97.1359 16.3181 96.5845 16.1129C96.0391 15.9078 95.5907 15.6035 95.2385 15.1982C94.8922 14.7939 94.64 14.2926 94.4819 13.6941C94.3238 13.1027 94.2447 12.4132 94.2447 11.6276C94.2447 11.2283 94.2678 10.81 94.3148 10.3697C94.3618 9.93036 94.4439 9.40497 94.561 8.79552H96.4083C96.3553 9.14678 96.3113 9.45801 96.2762 9.72721C96.2412 9.9914 96.2122 10.2286 96.1882 10.4397C96.1652 10.6449 96.1471 10.83 96.1361 10.9941C96.1301 11.1523 96.1271 11.3054 96.1271 11.4515C96.1271 11.8858 96.1652 12.2641 96.2412 12.5863C96.3173 12.9086 96.4524 13.1757 96.6455 13.3869C96.8397 13.5981 97.0999 13.7532 97.4291 13.8533C97.7623 13.9583 98.1877 14.0114 98.704 14.0114C99.2905 14.0114 99.7798 13.9403 100.173 13.8002C100.565 13.6651 100.88 13.4509 101.114 13.1577C101.354 12.8645 101.524 12.4892 101.624 12.0319C101.723 11.5686 101.773 11.0152 101.773 10.3697V0H103.647V10.5458C103.647 11.4895 103.554 12.3282 103.365 13.0617C103.183 13.7882 102.891 14.4007 102.486 14.8991C102.082 15.3974 101.559 15.7757 100.921 16.0339C100.281 16.2921 99.5046 16.4212 98.59 16.4212ZM105.151 14.864C105.474 14.9871 105.772 15.0902 106.048 15.1722C106.33 15.2543 106.594 15.3214 106.84 15.3744C107.086 15.4274 107.32 15.4625 107.544 15.4805C107.767 15.5035 107.986 15.5155 108.203 15.5155C108.607 15.5155 108.951 15.4685 109.232 15.3744C109.52 15.2803 109.757 15.1572 109.944 15.0051C110.139 14.853 110.288 14.6799 110.394 14.4857C110.505 14.2926 110.587 14.0965 110.64 13.8963C110.651 13.8553 110.663 13.7973 110.675 13.7212C110.692 13.6501 110.707 13.5801 110.719 13.51H109.927C108.76 13.51 107.869 13.2428 107.253 12.7094C106.638 12.17 106.33 11.3954 106.33 10.3877C106.33 9.91235 106.409 9.43699 106.567 8.96264C106.731 8.48128 106.948 8.05397 107.218 7.67869C107.494 7.29741 107.813 6.98918 108.177 6.75501C108.546 6.51483 108.934 6.39375 109.338 6.39375C109.795 6.39375 110.209 6.52283 110.578 6.78103C110.947 7.03922 111.302 7.44353 111.643 7.99494C111.906 8.41725 112.117 8.89459 112.275 9.42898C112.44 9.96238 112.554 10.5398 112.618 11.1613H114.176V13.554H112.592C112.516 14.1875 112.369 14.7709 112.152 15.3043C111.936 15.8437 111.646 16.3071 111.281 16.6934C110.924 17.0867 110.49 17.3919 109.979 17.608C109.47 17.8312 108.884 17.9423 108.221 17.9423C107.975 17.9423 107.731 17.9313 107.491 17.9073C107.25 17.8843 107.004 17.8432 106.752 17.7842C106.506 17.7322 106.251 17.6611 105.986 17.573C105.723 17.491 105.444 17.3889 105.151 17.2658V14.864ZM110.578 10.5278C110.508 10.3167 110.426 10.1115 110.332 9.91234C110.238 9.70719 110.136 9.52507 110.023 9.36696C109.912 9.20884 109.792 9.08272 109.663 8.98866C109.534 8.88958 109.402 8.83956 109.268 8.83956C109.115 8.83956 108.972 8.89259 108.837 8.99766C108.701 9.09774 108.584 9.22085 108.484 9.36696C108.385 9.50806 108.306 9.66018 108.247 9.8243C108.188 9.98241 108.159 10.1235 108.159 10.2466C108.159 10.6339 108.297 10.8921 108.572 11.0202C108.849 11.1493 109.259 11.2143 109.804 11.2143H110.736C110.713 11.1082 110.689 10.9942 110.666 10.8711C110.643 10.748 110.613 10.6339 110.578 10.5278ZM121.353 8.69846C121.095 8.54035 120.842 8.40522 120.596 8.29414C120.356 8.18306 120.104 8.09201 119.84 8.02096C119.576 7.95091 119.294 7.90085 118.995 7.87183C118.702 7.8368 118.374 7.81881 118.01 7.81881C117.588 7.81881 117.193 7.84281 116.822 7.88985C116.453 7.93588 116.072 8.01294 115.68 8.11802V5.90138C116.102 5.78429 116.5 5.69322 116.876 5.62917C117.257 5.56412 117.667 5.53211 118.107 5.53211C118.57 5.53211 118.981 5.57313 119.338 5.65519C119.696 5.73725 120.028 5.84335 120.332 5.97244C120.637 6.10054 120.928 6.24163 121.203 6.39375C121.479 6.54686 121.763 6.69597 122.056 6.84308C122.202 6.91314 122.356 6.97517 122.514 7.02721C122.672 7.08025 122.845 7.12427 123.032 7.1593C123.226 7.19432 123.437 7.22436 123.666 7.24737C123.895 7.27039 124.153 7.29141 124.44 7.30842L124.009 9.8683C123.716 9.93836 123.393 10.0795 123.041 10.2906C122.696 10.4958 122.312 10.736 121.889 11.0122C121.473 11.2814 121.013 11.5656 120.508 11.8648C120.004 12.164 119.449 12.4392 118.846 12.6914C118.242 12.9376 117.582 13.1437 116.866 13.3079C116.157 13.472 115.386 13.554 114.554 13.554H114.176C113.97 13.554 113.817 13.448 113.718 13.2368C113.612 13.0207 113.56 12.7274 113.56 12.3571C113.56 11.9879 113.612 11.6977 113.718 11.4865C113.817 11.2703 113.97 11.1613 114.176 11.1613H114.633C115.318 11.1613 115.967 11.0942 116.576 10.9591C117.187 10.818 117.767 10.6369 118.319 10.4137C118.869 10.1856 119.394 9.93035 119.893 9.64814C120.397 9.36093 120.883 9.06771 121.353 8.76849V8.69846ZM120.473 4.23015H118.406V2.37478H120.473V4.23015ZM128.16 13.5891C127.826 13.5891 127.433 13.5681 126.982 13.527C126.531 13.492 126.046 13.428 125.531 13.3339L125.056 10.9151C125.712 11.0092 126.301 11.0792 126.824 11.1263C127.345 11.1733 127.818 11.1963 128.24 11.1963C128.644 11.1963 128.963 11.1703 129.199 11.1172C129.439 11.0592 129.62 10.9771 129.744 10.8711C129.872 10.76 129.954 10.6249 129.99 10.4668C130.025 10.3087 130.042 10.1265 130.042 9.92135C130.042 9.65115 129.998 9.30291 129.911 8.87459C129.823 8.44627 129.705 7.97491 129.559 7.45853C129.412 6.93614 129.243 6.39073 129.049 5.82231C128.855 5.24788 128.653 4.68148 128.442 4.12507H130.659C130.993 5.1098 131.271 6.01847 131.494 6.85109C131.716 7.6787 131.913 8.47028 132.083 9.22684C132.136 9.45501 132.192 9.68418 132.25 9.91234C132.309 10.1415 132.394 10.3497 132.505 10.5368C132.622 10.7189 132.778 10.8681 132.971 10.9852C133.165 11.1032 133.42 11.1613 133.737 11.1613V13.554H133.473C133.291 13.554 133.113 13.5331 132.936 13.492C132.766 13.451 132.602 13.387 132.444 13.2989C132.286 13.2048 132.136 13.0817 131.996 12.9296C131.861 12.7765 131.738 12.5863 131.625 12.3571H131.581C131.394 12.5983 131.174 12.7975 130.922 12.9556C130.67 13.1077 130.395 13.2338 130.095 13.3339C129.802 13.428 129.492 13.492 129.163 13.527C128.834 13.5681 128.5 13.5891 128.16 13.5891ZM134.81 13.554H133.737C133.532 13.554 133.379 13.448 133.28 13.2368C133.174 13.0207 133.122 12.7274 133.122 12.3571C133.122 11.9879 133.174 11.6977 133.28 11.4865C133.379 11.2703 133.532 11.1613 133.737 11.1613H134.898C135.132 11.1613 135.34 11.1523 135.522 11.1353C135.709 11.1173 135.866 11.0702 135.989 10.9941C136.118 10.9181 136.214 10.804 136.279 10.6509C136.343 10.4928 136.375 10.2726 136.375 9.99141V0H138.249V10.0534C138.249 10.769 138.152 11.3544 137.959 11.8118C137.765 12.2641 137.507 12.6184 137.185 12.8766C136.868 13.1348 136.501 13.3109 136.085 13.4039C135.674 13.504 135.249 13.554 134.81 13.554ZM140.887 13.3339V0H142.761V13.3339H140.887ZM159.429 12.7625C159.224 14.0054 158.728 14.9261 157.942 15.5235C157.156 16.1219 156.084 16.4212 154.723 16.4212C153.937 16.4212 153.268 16.3181 152.718 16.1129C152.167 15.9078 151.718 15.6035 151.372 15.1982C151.026 14.7939 150.774 14.2926 150.616 13.6941C150.457 13.1027 150.378 12.4132 150.378 11.6276C150.378 11.2283 150.401 10.81 150.448 10.3697C150.495 9.93036 150.577 9.40497 150.695 8.79552H152.542C152.483 9.14678 152.433 9.45801 152.392 9.72721C152.357 9.9914 152.328 10.2286 152.304 10.4397C152.287 10.6449 152.275 10.83 152.269 10.9941C152.263 11.1523 152.261 11.3054 152.261 11.4515C152.261 11.8858 152.299 12.2641 152.375 12.5863C152.451 12.9086 152.586 13.1757 152.779 13.3869C152.972 13.5981 153.233 13.7532 153.562 13.8533C153.896 13.9583 154.321 14.0114 154.838 14.0114C155.424 14.0114 155.913 13.9403 156.306 13.8002C156.705 13.6651 157.021 13.4509 157.256 13.1577C157.491 12.8645 157.658 12.4892 157.758 12.0319C157.857 11.5686 157.907 11.0152 157.907 10.3697V0H159.78V9.34995C159.78 9.66018 159.789 9.93036 159.807 10.1585C159.824 10.3817 159.88 10.5689 159.974 10.722C160.074 10.8681 160.224 10.9791 160.423 11.0562C160.628 11.1262 160.915 11.1613 161.284 11.1613V13.554H160.915C160.599 13.554 160.317 13.492 160.071 13.3689C159.83 13.2518 159.64 13.0497 159.499 12.7625H159.429ZM162.445 13.554H161.284C161.079 13.554 160.927 13.448 160.827 13.2368C160.722 13.0207 160.669 12.7274 160.669 12.3571C160.669 11.9879 160.722 11.6977 160.827 11.4865C160.927 11.2703 161.079 11.1613 161.284 11.1613H162.533C162.786 11.1613 163 11.1523 163.176 11.1353C163.352 11.1112 163.495 11.0612 163.606 10.9852C163.718 10.9091 163.797 10.795 163.844 10.6429C163.896 10.4838 163.923 10.2676 163.923 9.99141V5.8133H165.797V9.38495C165.797 9.68917 165.806 9.95338 165.823 10.1765C165.841 10.3987 165.896 10.5839 165.99 10.73C166.09 10.8771 166.239 10.9851 166.438 11.0562C166.644 11.1262 166.932 11.1613 167.301 11.1613V13.554H166.897C166.386 13.554 165.949 13.475 165.586 13.3159C165.222 13.1517 164.955 12.8945 164.785 12.5423H164.732C164.58 12.7474 164.41 12.9146 164.223 13.0437C164.034 13.1728 163.838 13.2748 163.633 13.3519C163.434 13.428 163.231 13.48 163.026 13.51C162.821 13.5391 162.627 13.554 162.445 13.554ZM163.721 16.5973H161.654V14.7409H163.721V16.5973ZM166.729 16.5973H164.662V14.7409H166.729V16.5973ZM174.478 8.69846C174.22 8.54035 173.968 8.40522 173.722 8.29414C173.481 8.18306 173.229 8.09201 172.965 8.02096C172.701 7.95091 172.42 7.90085 172.12 7.87183C171.827 7.8368 171.499 7.81881 171.136 7.81881C170.713 7.81881 170.317 7.84281 169.948 7.88985C169.579 7.93588 169.197 8.01294 168.805 8.11802V5.90138C169.227 5.78429 169.626 5.69322 170.001 5.62917C170.382 5.56412 170.792 5.53211 171.233 5.53211C171.695 5.53211 172.106 5.57313 172.464 5.65519C172.821 5.73725 173.152 5.84335 173.457 5.97244C173.763 6.10054 174.053 6.24163 174.328 6.39375C174.604 6.54686 174.888 6.69597 175.182 6.84308C175.328 6.91314 175.481 6.97517 175.639 7.02721C175.797 7.08025 175.97 7.12427 176.157 7.1593C176.352 7.19432 176.563 7.22436 176.791 7.24737C177.02 7.27039 177.278 7.29141 177.565 7.30842L177.134 9.8683C176.905 9.92735 176.656 10.0294 176.387 10.1765C176.122 10.3167 175.838 10.4838 175.533 10.6779C175.557 10.789 175.592 10.8771 175.639 10.9411C175.686 11.0062 175.75 11.0562 175.832 11.0912C175.92 11.1202 176.031 11.1413 176.166 11.1523C176.302 11.1583 176.472 11.1613 176.677 11.1613H177.829V13.554H177.266C176.744 13.554 176.311 13.501 175.964 13.3959C175.618 13.2959 175.334 13.1548 175.111 12.9736C174.894 12.7855 174.727 12.5623 174.61 12.3051C174.492 12.0469 174.404 11.7597 174.346 11.4425C173.942 11.6947 173.501 11.9469 173.026 12.1991C172.558 12.4453 172.047 12.6714 171.496 12.8766C170.951 13.0757 170.358 13.2368 169.72 13.3599C169.086 13.489 168.406 13.554 167.679 13.554H167.301C167.096 13.554 166.943 13.448 166.844 13.2368C166.737 13.0207 166.685 12.7274 166.685 12.3571C166.685 11.9879 166.737 11.6977 166.844 11.4865C166.943 11.2703 167.096 11.1613 167.301 11.1613H167.758C168.444 11.1613 169.092 11.0942 169.702 10.9591C170.312 10.818 170.893 10.6369 171.443 10.4137C171.994 10.1856 172.52 9.93035 173.018 9.64814C173.522 9.36093 174.009 9.06771 174.478 8.76849V8.69846ZM173.599 16.5973H171.531V14.7409H173.599V16.5973ZM181.285 12.5603C181.121 12.7474 180.94 12.9056 180.741 13.0347C180.547 13.1637 180.345 13.2668 180.133 13.3429C179.928 13.4189 179.72 13.472 179.509 13.501C179.304 13.536 179.108 13.554 178.919 13.554H177.838C177.633 13.554 177.48 13.448 177.38 13.2368C177.275 13.0207 177.222 12.7274 177.222 12.3571C177.222 11.9879 177.275 11.6977 177.38 11.4865C177.48 11.2703 177.633 11.1613 177.838 11.1613H179.008C179.155 11.1613 179.313 11.1493 179.483 11.1263C179.658 11.1032 179.82 11.0502 179.966 10.9681C180.113 10.8861 180.236 10.769 180.336 10.6159C180.436 10.4578 180.486 10.2496 180.486 9.99141V7.49356H182.35V9.41097C182.35 9.71019 182.359 9.97139 182.376 10.1936C182.394 10.4107 182.444 10.5929 182.526 10.739C182.608 10.8801 182.734 10.9851 182.904 11.0562C183.075 11.1262 183.312 11.1613 183.617 11.1613C183.792 11.1613 183.962 11.1523 184.126 11.1353C184.29 11.1112 184.435 11.0612 184.558 10.9852C184.687 10.9091 184.789 10.795 184.866 10.6429C184.948 10.4838 184.989 10.2676 184.989 9.99141V7.49356H186.862V9.38495C186.862 9.68917 186.87 9.95338 186.888 10.1765C186.906 10.3987 186.955 10.5839 187.037 10.73C187.126 10.8771 187.261 10.9851 187.443 11.0562C187.63 11.1262 187.891 11.1613 188.225 11.1613C188.408 11.1613 188.575 11.1523 188.727 11.1353C188.885 11.1173 189.02 11.0702 189.131 10.9941C189.248 10.9121 189.339 10.795 189.404 10.6429C189.468 10.4838 189.5 10.2676 189.5 9.99141V5.8133H191.374V9.33193C191.374 9.64316 191.383 9.91235 191.401 10.1415C191.418 10.3697 191.474 10.5608 191.568 10.713C191.667 10.8591 191.817 10.9711 192.016 11.0472C192.221 11.1232 192.509 11.1613 192.878 11.1613V13.554H192.474C191.993 13.554 191.588 13.486 191.26 13.3519C190.931 13.2168 190.662 12.9817 190.451 12.6474C190.298 12.8295 190.131 12.9796 189.95 13.0967C189.774 13.2138 189.588 13.3048 189.395 13.3689C189.202 13.4389 189.002 13.486 188.797 13.51C188.598 13.5391 188.402 13.554 188.207 13.554C187.979 13.554 187.753 13.536 187.531 13.501C187.308 13.472 187.097 13.4189 186.897 13.3429C186.698 13.2718 186.513 13.1728 186.343 13.0437C186.173 12.9146 186.027 12.7534 185.904 12.5603H185.869C185.71 12.7474 185.531 12.9056 185.331 13.0347C185.138 13.1637 184.936 13.2668 184.725 13.3429C184.52 13.4189 184.314 13.472 184.109 13.501C183.904 13.536 183.71 13.554 183.529 13.554C182.995 13.554 182.549 13.478 182.192 13.3249C181.834 13.1728 181.543 12.9176 181.321 12.5603H181.285ZM194.04 13.554H192.878C192.673 13.554 192.521 13.448 192.42 13.2368C192.315 13.0207 192.262 12.7274 192.262 12.3571C192.262 11.9879 192.315 11.6977 192.42 11.4865C192.521 11.2703 192.673 11.1613 192.878 11.1613H194.127C194.362 11.1613 194.567 11.1523 194.743 11.1353C194.918 11.1173 195.062 11.0702 195.174 10.9941C195.292 10.9181 195.376 10.804 195.429 10.6509C195.488 10.4928 195.517 10.2726 195.517 9.99141V5.8133H197.39V10.0534C197.39 10.769 197.296 11.3544 197.109 11.8118C196.927 12.2641 196.681 12.6184 196.37 12.8766C196.065 13.1348 195.71 13.3109 195.306 13.4039C194.901 13.504 194.479 13.554 194.04 13.554ZM195.992 4.046H193.925V2.18964H195.992V4.046ZM199 4.046H196.933V2.18964H199V4.046Z" fill="#8B8B8B"/>
</svg>
